<?xml version="1.0" encoding="utf-8"?>
<!-- Generator: Adobe Illustrator 21.0.0, SVG Export Plug-In . SVG Version: 6.00 Build 0)  -->
<svg version="1.1" id="Capa_1" xmlns="http://www.w3.org/2000/svg" xmlns:xlink="http://www.w3.org/1999/xlink" x="0px" y="0px"
	 viewBox="0 0 534.9 412.8" style="enable-background:new 0 0 534.9 412.8;" xml:space="preserve">
<style type="text/css">
	.st0{fill:#FFFFFF;}
	.st1{fill:#D3F2DF;}
	.st2{fill:#27B45F;}
	.st3{fill:none;stroke:#003A32;stroke-width:11.3939;stroke-miterlimit:10;}
</style>
<path class="st0" d="M338.6,61h-49.2c-0.8,0-1.4-0.6-1.4-1.4V28.4c0-0.8,0.6-1.4,1.4-1.4h49.2c0.8,0,1.4,0.6,1.4,1.4v31.2
	C340,60.4,339.4,61,338.6,61z"/>
<path class="st1" d="M238,319.9c0,0,22.2,108,163.5,85.5C542.8,383,480,255.2,480,255.2s-46.4-90.6-128.8-47S235.7,267.9,238,319.9z
	"/>
<path class="st1" d="M295.8,112c0,0-3.6-110.2-146.7-112s-103,134.8-103,134.8s30.4,97.2,119.1,68.1S289.2,163.6,295.8,112z"/>
<path class="st0" d="M393.5,352.1H152.4c-2.6,0-4.7-2.1-4.7-4.7l0,0c0-2.6,2.1-4.7,4.7-4.7h241.1c2.6,0,4.7,2.1,4.7,4.7l0,0
	C398.2,350.1,396.1,352.1,393.5,352.1z"/>
<title>city-hall</title>
<path class="st2" d="M475.2,314.2h-6.9V176.8c0-3.3-2.8-6.1-6.1-6.1c-3.3,0-6.1,2.8-6.1,6.1v111.3h-26.9V242c0-3.3-2.8-6.1-6.1-6.1
	l0,0h-32.6c-3.3,0-6.1,2.8-6.1,6.1l0,0v46.1h-26.9V169.9h6.9c3.3,0,6.1-2.8,6.1-6.1v-20h85.7v7c0,3.3,2.8,6.1,6.1,6.1
	s6.1-2.8,6.1-6.1v-6.9h6.9c3.3,0,6.1-2.8,6.1-6.1s-2.8-6.1-6.1-6.1h-89.6L279.2,69V52.5h39.5c3.3,0,6.1-2.8,6.1-6.1l0,0V13.8
	c0-3.3-2.8-6.1-6.1-6.1h-39.6V7.3c0-3.3-2.8-6.1-6.1-6.1c-3.3,0-6.1,2.8-6.1,6.1V69l-106.5,62.7H70.7c-3.3,0-6.1,2.8-6.1,6.1
	s2.8,6.1,6.1,6.1h6.9v111.3c0,3.3,2.8,6.1,6.1,6.1s6.1-2.8,6.1-6.1V143.8h85.7v20c0,3.3,2.8,6.1,6.1,6.1h6.9v118.3h-26.9v-46.1
	c0-3.3-2.8-6.1-6.1-6.1l0,0H123c-3.3,0-6.1,2.8-6.1,6.1l0,0v46.1h-27v-6.9c0-3.3-2.8-6.1-6.1-6.1s-6.1,2.8-6.1,6.1v33h-6.9
	c-3.3,0-6.1,2.8-6.1,6.1c0,3.3,2.8,6.1,6.1,6.1h404.5c3.3,0,6.1-2.8,6.1-6.1C481.3,317.1,478.6,314.2,475.2,314.2L475.2,314.2z
	 M279.1,19.9h33.4v20.4h-33.4V19.9z M396.5,248.2h20.4v40h-20.4V248.2z M273,79.5l88.5,52.1h-177L273,79.5z M187.8,157.7v-13.8
	h170.5v13.9L187.8,157.7z M345.2,169.9v118.3h-13.9V169.9H345.2z M319.1,248.2v40h-26.9v-40L319.1,248.2L319.1,248.2z M292.2,236
	v-20.4h26.9V236H292.2z M292.2,203.3v-33.4h26.9v33.4L292.2,203.3L292.2,203.3z M280,169.9v118.3h-13.9V169.9H280z M226.9,236v-20.4
	h26.9V236H226.9z M253.8,248.2v40h-26.9v-40L253.8,248.2L253.8,248.2z M226.9,203.3v-33.4h26.9v33.4L226.9,203.3L226.9,203.3z
	 M214.7,169.9v118.3h-13.9V169.9H214.7z M129.1,248.2h20.4v40h-20.4V248.2z M175.6,314.2H89.9v-13.9h85.7V314.2z M358.3,314.2H187.8
	v-13.9h170.4L358.3,314.2L358.3,314.2z M456.1,314.2h-85.6v-13.9h85.7L456.1,314.2L456.1,314.2z"/>
<path class="st2" d="M138.6,188.7c-12.4,0-22.4,10-22.4,22.4V234c0,3.3,2.8,6.1,6.1,6.1h32.6c3.3,0,6.1-2.8,6.1-6.1v-23
	C161,198.7,150.9,188.7,138.6,188.7z M148.7,227.8h-20.4V211c0-5.6,4.6-10.2,10.2-10.2s10.2,4.6,10.2,10.2V227.8L148.7,227.8z"/>
<path class="st2" d="M407.8,188c-12.4,0-22.4,10-22.4,22.4v22.9c0,3.3,2.8,6.1,6.1,6.1h32.6c3.3,0,6.1-2.8,6.1-6.1v-22.9
	C430.2,198,420.1,188,407.8,188z M417.9,227.2h-20.4v-16.8c0-5.6,4.6-10.2,10.2-10.3c5.6,0,10.2,4.6,10.3,10.2l0,0v16.9H417.9z"/>
<path class="st3" d="M534.9,68"/>
</svg>
