<?xml version="1.0"?>
<svg xmlns="http://www.w3.org/2000/svg" xmlns:xlink="http://www.w3.org/1999/xlink" xmlns:svgjs="http://svgjs.com/svgjs" version="1.1" width="512" height="512" x="0" y="0" viewBox="0 0 512 512" style="enable-background:new 0 0 512 512" xml:space="preserve" class=""><g>
<g xmlns="http://www.w3.org/2000/svg">
	<g>
		<path d="M497,421h-15v-90h15c6.456,0,12.188-4.131,14.23-10.257c2.041-6.125-0.065-12.869-5.23-16.743l-54-40.5v-52.863    c38.638-2.253,60-19.573,60-59.637c0-23.695-7.449-59.39-18.537-88.821C477.92,20.92,458.923,0,437,0    c-21.923,0-40.92,20.92-56.463,62.179C369.449,91.611,362,127.305,362,151c0,40.017,21.529,57.394,60,59.637V241l-36-27    c-5.334-4-12.666-4-18,0l-66,49.5v-91.25l4.438,4.401c5.874,5.826,15.354,5.795,21.191-0.066    c5.837-5.861,5.827-15.342-0.022-21.191C311.822,139.74,222.801,51.454,206.563,35.35c-5.864-5.816-15.328-5.798-21.169,0.044    l-120,120c-5.859,5.859-5.858,15.355,0,21.213c5.857,5.858,15.355,5.858,21.213,0L91,172.214v42.938l-80.696,26.603    C4.154,243.782,0,249.526,0,256c0,4.809,0,217.629,0,241c0,8.284,6.716,15,15,15h482c8.284,0,15-6.716,15-15v-61    C512,427.716,505.284,421,497,421z M452,44.728c4.083,6.447,8.664,15.483,13.39,28.027c2.668,7.084,5.023,14.37,7.061,21.584    L452,107.973V44.728z M452,144.028l27.499-18.332C481.154,135.687,482,144.48,482,151c0,20.903-5.742,27.919-30,29.575V144.028z     M408.61,72.755c4.726-12.544,9.307-21.58,13.39-28.027v63.244l-20.451-13.634C403.587,87.125,405.942,79.839,408.61,72.755z     M392,151c0-6.521,0.846-15.313,2.501-25.304L422,144.028v36.547C397.742,178.919,392,171.903,392,151z M377,244.75l80.042,60.032    C453.949,307.53,452,311.538,452,316v105h-30v-75c0-8.284-6.716-15-15-15h-60c-8.284,0-15,6.716-15,15v75h-30V316    c0-4.386-1.977-8.495-5.042-11.218L377,244.75z M392,361v60h-30v-60H392z M121,142.214l75.044-75.044L272,142.498V286l-24,18    c-5.165,3.874-7.271,10.618-5.23,16.743C244.812,326.869,250.544,331,257,331h15v90h-31v-45c0-24.813-20.187-45-45-45    s-45,20.187-45,45v45h-30C121,387.957,121,175.745,121,142.214z M211,376v45h-30v-45c0-8.271,6.729-15,15-15S211,367.729,211,376z     M30,391h15c8.284,0,15-6.716,15-15s-6.716-15-15-15H30v-30h15c8.284,0,15-6.716,15-15s-6.716-15-15-15H30v-34.15l61-20.11V421H30    V391z M482,482H30v-31c83.308,0,405.517,0,452,0V482z" fill="#f8a23d" data-original="#000000" style="" class=""/>
	</g>
</g>
<g xmlns="http://www.w3.org/2000/svg">
	<g>
		<path d="M196,151c-24.813,0-45,20.187-45,45s20.187,45,45,45s45-20.187,45-45S220.813,151,196,151z M196,211    c-8.271,0-15-6.729-15-15s6.729-15,15-15s15,6.729,15,15S204.271,211,196,211z" fill="#f8a23d" data-original="#000000" style="" class=""/>
	</g>
</g>
<g xmlns="http://www.w3.org/2000/svg">
</g>
<g xmlns="http://www.w3.org/2000/svg">
</g>
<g xmlns="http://www.w3.org/2000/svg">
</g>
<g xmlns="http://www.w3.org/2000/svg">
</g>
<g xmlns="http://www.w3.org/2000/svg">
</g>
<g xmlns="http://www.w3.org/2000/svg">
</g>
<g xmlns="http://www.w3.org/2000/svg">
</g>
<g xmlns="http://www.w3.org/2000/svg">
</g>
<g xmlns="http://www.w3.org/2000/svg">
</g>
<g xmlns="http://www.w3.org/2000/svg">
</g>
<g xmlns="http://www.w3.org/2000/svg">
</g>
<g xmlns="http://www.w3.org/2000/svg">
</g>
<g xmlns="http://www.w3.org/2000/svg">
</g>
<g xmlns="http://www.w3.org/2000/svg">
</g>
<g xmlns="http://www.w3.org/2000/svg">
</g>
</g></svg>
