<svg xmlns="http://www.w3.org/2000/svg" xmlns:svgjs="http://svgjs.com/svgjs" xmlns:xlink="http://www.w3.org/1999/xlink" style="enable-background:new 0 0 512 512" width="512" height="512" x="0" y="0" version="1.1" viewBox="0 0 512 512" xml:space="preserve"><g><g xmlns="http://www.w3.org/2000/svg"><path fill="#f8a23d" d="m463.567 393.441c6.968-9.937 11.074-22.019 11.074-35.05v-26.184c0-31.682-24.198-57.817-55.082-60.901-7.746-13.23-20.026-23.495-34.7-28.634 6.963-9.934 11.065-22.013 11.065-35.038v-26.184c0-33.75-27.458-61.208-61.208-61.208s-61.207 27.458-61.207 61.208v26.184c0 13.025 4.102 25.104 11.065 35.038-11.24 3.936-21.074 10.881-28.545 19.86-7.471-8.979-17.305-15.924-28.545-19.86 6.963-9.934 11.065-22.013 11.065-35.038v-26.184c0-33.75-27.458-61.208-61.208-61.208s-61.208 27.458-61.208 61.208v26.184c0 13.025 4.102 25.104 11.065 35.038-14.673 5.138-26.952 15.401-34.698 28.629-30.912 3.056-55.141 29.203-55.141 60.905v26.184c0 13.03 4.106 25.113 11.073 35.049-25.347 8.874-43.582 33.019-43.582 61.357v57.204h502.297v-57.202c.002-28.337-18.233-52.483-43.58-61.357zm-128.851 19.875c-7.475-8.994-17.328-15.935-28.581-19.875 6.968-9.937 11.074-22.019 11.074-35.05v-26.184c0-23.943-13.826-44.706-33.907-54.759 6.115-5.232 14.038-8.407 22.699-8.407h57.433c8.661 0 16.584 3.176 22.699 8.407-20.081 10.053-33.907 30.816-33.907 54.759v26.184c0 13.03 4.106 25.113 11.073 35.049-11.254 3.941-21.108 10.882-28.583 19.876zm-157.432 0c-7.475-8.994-17.328-15.935-28.582-19.875 6.968-9.936 11.073-22.019 11.073-35.049v-26.184c0-23.928-13.81-44.681-33.871-54.74 6.118-5.243 14.05-8.426 22.721-8.426h57.433c8.651 0 16.565 3.168 22.677 8.389-20.1 10.046-33.943 30.82-33.943 54.777v26.184c0 13.03 4.106 25.113 11.073 35.049-11.253 3.94-21.106 10.881-28.581 19.875zm109.924-54.924c0 17.208-14 31.208-31.208 31.208s-31.208-14-31.208-31.208v-26.184c0-17.208 14-31.208 31.208-31.208s31.208 14 31.208 31.208zm157.433-26.184v26.184c0 17.208-14 31.208-31.208 31.208s-31.208-14-31.208-31.208v-26.184c0-17.208 14-31.208 31.208-31.208s31.208 14 31.208 31.208zm-141.132-150.756c0-17.208 13.999-31.208 31.207-31.208s31.208 14 31.208 31.208v26.184c0 17.208-14 31.208-31.208 31.208s-31.207-14-31.207-31.208zm-157.375 0c0-17.208 14-31.208 31.208-31.208s31.208 14 31.208 31.208v26.184c0 17.208-14 31.208-31.208 31.208s-31.208-14-31.208-31.208zm-78.774 150.756c0-17.208 14-31.208 31.208-31.208s31.208 14 31.208 31.208v26.184c0 17.208-14 31.208-31.208 31.208s-31.208-14-31.208-31.208zm94.924 149.792h-127.433v-27.202c0-19.299 15.701-35 35-35h57.433c19.299 0 35 15.701 35 35zm157.432 0h-127.432v-27.202c0-19.299 15.701-35 35-35h57.432c19.299 0 35 15.701 35 35zm157.433 0h-127.433v-27.202c0-19.299 15.701-35 35-35h57.433c19.299 0 35 15.701 35 35z" data-original="#000000"/><path fill="#f8a23d" d="m149.142 14.328h30v74.295h-30z" data-original="#000000" transform="matrix(.687 -.727 .727 .687 13.958 135.363)"/><path fill="#f8a23d" d="m241 0h30v64.336h-30z" data-original="#000000"/><path fill="#f8a23d" d="m310.71 36.476h74.295v29.999h-74.295z" data-original="#000000" transform="matrix(.727 -.687 .687 .727 59.754 253.097)"/></g></g></svg>