<?xml version="1.0"?>
<svg xmlns="http://www.w3.org/2000/svg" xmlns:xlink="http://www.w3.org/1999/xlink" xmlns:svgjs="http://svgjs.com/svgjs" version="1.1" width="512" height="512" x="0" y="0" viewBox="0 0 512 512" style="enable-background:new 0 0 512 512" xml:space="preserve" class=""><g><g xmlns="http://www.w3.org/2000/svg"><path d="m389.5 267c-64.18 0-116.984 49.613-122.09 112.5h-22.82c-2.133-26.274-12.594-50.227-28.731-69.216l94.382-94.383c9.482 8.065 20.063 14.599 31.578 19.468 15.101 6.391 31.141 9.631 47.681 9.631s32.58-3.24 47.68-9.63c14.59-6.17 27.69-15 38.94-26.25s20.08-24.35 26.25-38.94c6.39-15.1 9.63-31.14 9.63-47.68 0-14.71-2.58-29.11-7.681-42.77-1.449-3.9-5.22-6.51-9.369-6.51-1.19 0-2.36.21-3.49.63-2.5.93-4.49 2.78-5.601 5.21-1.109 2.43-1.21 5.15-.279 7.65 4.26 11.43 6.42 23.47 6.42 35.79 0 21.633-6.672 42.245-19.021 59.501-11.196-19.591-28.104-34.433-47.971-42.547 11.911-10.096 19.492-25.153 19.492-41.954 0-30.327-24.673-55-55-55s-55 24.673-55 55c0 16.797 7.577 31.851 19.484 41.948-19.87 8.109-36.781 22.946-47.979 42.532-12.339-17.253-19.005-37.856-19.005-59.48 0-27.37 10.67-53.11 30.02-72.48 19.37-19.35 45.11-30.02 72.48-30.02 14.359 0 28.25 2.91 41.28 8.65 1.279.56 2.64.85 4.029.85 3.96 0 7.561-2.34 9.16-5.97 2.22-5.05-.08-10.96-5.12-13.18-15.589-6.87-32.179-10.35-49.329-10.35h-.02c-16.54 0-32.58 3.24-47.681 9.63-14.59 6.17-27.689 15-38.939 26.25s-20.08 24.35-26.25 38.94c-6.39 15.1-9.63 31.14-9.63 47.68s3.24 32.58 9.63 47.68c4.87 11.515 11.403 22.097 19.469 31.579l-94.382 94.383c-18.99-16.137-42.942-26.598-69.216-28.731v-22.821c62.886-5.106 112.499-57.91 112.499-122.09 0-67.547-54.953-122.5-122.5-122.5s-122.5 54.953-122.5 122.5c0 64.18 49.613 116.984 112.5 122.09v22.821c-62.887 5.105-112.5 57.909-112.5 122.089 0 67.547 54.953 122.5 122.5 122.5 64.18 0 116.984-49.613 122.09-112.5h22.821c5.105 62.887 57.909 112.5 122.089 112.5 67.547 0 122.5-54.953 122.5-122.5s-54.953-122.5-122.5-122.5zm-35-169.5c0-19.299 15.701-35 35-35s35 15.701 35 35c0 19.228-15.587 34.879-34.788 34.995-.074 0-.148-.004-.222-.004-.071 0-.141.004-.211.004-19.197-.121-34.779-15.77-34.779-34.995zm34.78 54.994c.074 0 .146.006.22.006.071 0 .141-.005.211-.005 29.552.088 56.029 17.738 69.078 45.532-18.97 17.417-43.393 26.973-69.289 26.973-25.904 0-50.345-9.563-69.31-26.991 13.053-27.787 39.534-45.431 69.09-45.515zm-301.78-54.994c0-19.299 15.701-35 35-35s35 15.701 35 35c0 19.228-15.587 34.879-34.788 34.995-.074 0-.148-.004-.222-.004-.071 0-.141.004-.211.004-19.197-.121-34.779-15.77-34.779-34.995zm35 55c.071 0 .141-.005.211-.005 29.537.088 56.001 17.719 69.056 45.488-18.256 16.766-42.585 27.017-69.267 27.017-26.692 0-51.03-10.259-69.288-27.037 13.061-27.761 39.528-45.385 69.068-45.469.074.001.146.006.22.006zm0-132.5c56.519 0 102.5 45.981 102.5 102.5 0 22.147-7.062 42.674-19.05 59.452-11.196-19.567-28.092-34.391-47.942-42.498 11.911-10.097 19.492-25.153 19.492-41.954 0-30.327-24.673-55-55-55s-55 24.673-55 55c0 16.797 7.577 31.851 19.484 41.948-19.853 8.102-36.751 22.921-47.951 42.482-11.978-16.774-19.033-37.293-19.033-59.43 0-56.519 45.981-102.5 102.5-102.5zm0 472c-56.519 0-102.5-45.981-102.5-102.5s45.981-102.5 102.5-102.5 102.5 45.981 102.5 102.5-45.981 102.5-102.5 102.5zm197.712-27.037c13.091-27.821 39.651-45.463 69.278-45.463 29.628 0 56.19 17.65 69.277 45.482-18.255 16.767-42.585 27.018-69.267 27.018-26.692 0-51.03-10.259-69.288-27.037zm69.288-65.463c-19.299 0-35-15.701-35-35s15.701-35 35-35 35 15.701 35 35-15.701 35-35 35zm83.45 49.453c-11.196-19.566-28.095-34.388-47.948-42.493 11.915-10.097 19.498-25.156 19.498-41.96 0-30.327-24.673-55-55-55s-55 24.673-55 55c0 16.801 7.58 31.856 19.49 41.953-19.856 8.1-36.757 22.917-47.957 42.477-11.978-16.774-19.033-37.293-19.033-59.43 0-56.519 45.981-102.5 102.5-102.5s102.5 45.981 102.5 102.5c0 22.147-7.062 42.675-19.05 59.453z" fill="#f8a23d" data-original="#000000" style="" class=""/><path d="m175.547 336.18c-4.595-3.063-10.803-1.822-13.867 2.773l-52.304 78.456-26.482-34.048c-3.392-4.36-9.674-5.145-14.033-1.754-4.36 3.391-5.145 9.673-1.754 14.033l35 45c1.898 2.441 4.814 3.861 7.893 3.861.122 0 .244-.002.366-.007 3.212-.117 6.172-1.771 7.955-4.446l60-90c3.063-4.596 1.821-10.805-2.774-13.868z" fill="#f8a23d" data-original="#000000" style="" class=""/><circle cx="471.321" cy="45.29" r="10" fill="#f8a23d" data-original="#000000" style="" class=""/></g></g></svg>
