<?xml version="1.0"?>
<svg xmlns="http://www.w3.org/2000/svg" xmlns:xlink="http://www.w3.org/1999/xlink" xmlns:svgjs="http://svgjs.com/svgjs" version="1.1" width="512" height="512" x="0" y="0" viewBox="0 0 512 512" style="enable-background:new 0 0 512 512" xml:space="preserve" class=""><g>
<g xmlns="http://www.w3.org/2000/svg">
	<g>
		<path d="M224,0H74.667C33.493,0,0,33.493,0,74.667v362.667C0,478.507,33.493,512,74.667,512H96    c5.888,0,10.667-4.779,10.667-10.667c0-5.888-4.779-10.667-10.667-10.667H74.667c-29.397,0-53.333-23.936-53.333-53.333V74.667    c0-29.397,23.936-53.333,53.333-53.333H224c29.397,0,53.333,23.936,53.333,53.333v106.667c0,5.888,4.779,10.667,10.667,10.667    s10.667-4.779,10.667-10.667V74.667C298.667,33.493,265.173,0,224,0z" fill="#f8a23d" data-original="#000000" style="" class=""/>
	</g>
</g>
<g xmlns="http://www.w3.org/2000/svg">
	<g>
		<path d="M288,85.333H10.667C4.779,85.333,0,90.112,0,96s4.779,10.667,10.667,10.667H288c5.888,0,10.667-4.779,10.667-10.667    S293.888,85.333,288,85.333z" fill="#f8a23d" data-original="#000000" style="" class=""/>
	</g>
</g>
<g xmlns="http://www.w3.org/2000/svg">
	<g>
		<path d="M192,384H10.667C4.779,384,0,388.779,0,394.667s4.779,10.667,10.667,10.667H192c5.888,0,10.667-4.779,10.667-10.667    S197.888,384,192,384z" fill="#f8a23d" data-original="#000000" style="" class=""/>
	</g>
</g>
<g xmlns="http://www.w3.org/2000/svg">
	<g>
		<path d="M181.333,42.667h-64c-5.888,0-10.667,4.779-10.667,10.667S111.445,64,117.333,64h64C187.221,64,192,59.221,192,53.333    S187.221,42.667,181.333,42.667z" fill="#f8a23d" data-original="#000000" style="" class=""/>
	</g>
</g>
<g xmlns="http://www.w3.org/2000/svg">
	<g>
		<path d="M224.427,42.667h-0.213c-5.888,0-10.56,4.779-10.56,10.667S218.539,64,224.427,64c5.888,0,10.667-4.779,10.667-10.667    S230.315,42.667,224.427,42.667z" fill="#f8a23d" data-original="#000000" style="" class=""/>
	</g>
</g>
<g xmlns="http://www.w3.org/2000/svg">
	<g>
		<path d="M481.493,282.347l-80.213-88.149c-15.872-15.872-41.728-15.893-57.749,0.128c-5.077,5.077-8.533,11.157-10.325,17.643    c-15.957-12.203-38.976-11.008-53.675,3.691c-5.056,5.077-8.512,11.157-10.347,17.621c-15.957-12.203-38.976-11.008-53.653,3.712    c-4.971,4.971-8.384,10.923-10.24,17.216l-37.803-37.803c-15.872-15.872-41.728-15.893-57.749,0.128    c-15.893,15.872-15.893,41.728,0,57.621l145.237,145.237l-86.144,13.525C145.557,436.245,128,456.469,128,480    c0,17.643,14.357,32,32,32h201.152c31.339,0,60.8-12.203,82.965-34.368l33.557-33.557C499.819,421.952,512,392.512,512,361.216    C512,331.989,501.163,303.979,481.493,282.347z M462.592,428.992l-33.557,33.557c-18.133,18.133-42.24,28.117-67.883,28.117H160    c-5.888,0-10.667-4.779-10.667-10.667c0-12.971,9.685-24.128,22.656-26.005l106.987-16.811c3.968-0.619,7.232-3.413,8.491-7.232    c1.237-3.797,0.235-8-2.603-10.837L124.8,259.051c-7.573-7.573-7.573-19.883,0.128-27.584c3.797-3.776,8.768-5.675,13.739-5.675    c4.971,0,9.941,1.899,13.739,5.696l106.731,106.731c4.16,4.16,10.923,4.16,15.083,0c2.069-2.091,3.115-4.821,3.115-7.552    c0-2.731-1.045-5.461-3.115-7.531l-43.584-43.584c-7.573-7.573-7.573-19.883,0.128-27.584c7.552-7.552,19.904-7.552,27.456,0    l43.584,43.584c4.16,4.16,10.923,4.16,15.083,0c2.069-2.091,3.115-4.821,3.115-7.552s-1.045-5.461-3.029-7.445l-22.251-22.251    c-7.573-7.573-7.573-19.883,0.128-27.584c7.552-7.552,19.904-7.552,27.456,0l22.251,22.251c0.021,0.021,0.021,0.021,0.021,0.021    l0.021,0.021c0.021,0.021,0.021,0.021,0.021,0.021c0.021,0.021,0.021,0.021,0.021,0.021h0.021c0.021,0,0.021,0.021,0.021,0.021    c4.181,3.947,10.773,3.883,14.869-0.213c4.16-4.16,4.16-10.923,0-15.083l-0.917-0.917c-3.669-3.669-5.696-8.555-5.696-13.739    c0-5.184,2.005-10.048,5.803-13.845c7.573-7.552,19.883-7.531,27.115-0.363l79.872,87.787    c16.064,17.685,24.939,40.597,24.939,64.512C490.667,386.816,480.704,410.88,462.592,428.992z" fill="#f8a23d" data-original="#000000" style="" class=""/>
	</g>
</g>
<g xmlns="http://www.w3.org/2000/svg">
</g>
<g xmlns="http://www.w3.org/2000/svg">
</g>
<g xmlns="http://www.w3.org/2000/svg">
</g>
<g xmlns="http://www.w3.org/2000/svg">
</g>
<g xmlns="http://www.w3.org/2000/svg">
</g>
<g xmlns="http://www.w3.org/2000/svg">
</g>
<g xmlns="http://www.w3.org/2000/svg">
</g>
<g xmlns="http://www.w3.org/2000/svg">
</g>
<g xmlns="http://www.w3.org/2000/svg">
</g>
<g xmlns="http://www.w3.org/2000/svg">
</g>
<g xmlns="http://www.w3.org/2000/svg">
</g>
<g xmlns="http://www.w3.org/2000/svg">
</g>
<g xmlns="http://www.w3.org/2000/svg">
</g>
<g xmlns="http://www.w3.org/2000/svg">
</g>
<g xmlns="http://www.w3.org/2000/svg">
</g>
</g></svg>
