<svg width="78" height="78" viewBox="0 0 78 78" fill="none" xmlns="http://www.w3.org/2000/svg">
<g clip-path="url(#clip0)">
<path fill-rule="evenodd" clip-rule="evenodd" d="M70.6875 14.625H7.3125C6.66603 14.625 6.04605 14.8818 5.58893 15.3389C5.13181 15.796 4.875 16.416 4.875 17.0625V60.9375C4.875 61.584 5.13181 62.204 5.58893 62.6611C6.04605 63.1182 6.66603 63.375 7.3125 63.375H70.6875C71.334 63.375 71.954 63.1182 72.4111 62.6611C72.8682 62.204 73.125 61.584 73.125 60.9375V17.0625C73.125 16.416 72.8682 15.796 72.4111 15.3389C71.954 14.8818 71.334 14.625 70.6875 14.625ZM7.3125 9.75C5.3731 9.75 3.51314 10.5204 2.14178 11.8918C0.770422 13.2631 0 15.1231 0 17.0625L0 60.9375C0 62.8769 0.770422 64.7369 2.14178 66.1082C3.51314 67.4796 5.3731 68.25 7.3125 68.25H70.6875C72.6269 68.25 74.4869 67.4796 75.8582 66.1082C77.2296 64.7369 78 62.8769 78 60.9375V17.0625C78 15.1231 77.2296 13.2631 75.8582 11.8918C74.4869 10.5204 72.6269 9.75 70.6875 9.75H7.3125Z" fill="#F8A23D"/>
<path fill-rule="evenodd" clip-rule="evenodd" d="M24.375 39C24.375 38.3535 24.6318 37.7335 25.0889 37.2764C25.546 36.8193 26.166 36.5625 26.8125 36.5625H60.9375C61.584 36.5625 62.204 36.8193 62.6611 37.2764C63.1182 37.7335 63.375 38.3535 63.375 39C63.375 39.6465 63.1182 40.2665 62.6611 40.7236C62.204 41.1807 61.584 41.4375 60.9375 41.4375H26.8125C26.166 41.4375 25.546 41.1807 25.0889 40.7236C24.6318 40.2665 24.375 39.6465 24.375 39ZM24.375 26.8125C24.375 26.166 24.6318 25.546 25.0889 25.0889C25.546 24.6318 26.166 24.375 26.8125 24.375H60.9375C61.584 24.375 62.204 24.6318 62.6611 25.0889C63.1182 25.546 63.375 26.166 63.375 26.8125C63.375 27.459 63.1182 28.079 62.6611 28.5361C62.204 28.9932 61.584 29.25 60.9375 29.25H26.8125C26.166 29.25 25.546 28.9932 25.0889 28.5361C24.6318 28.079 24.375 27.459 24.375 26.8125ZM24.375 51.1875C24.375 50.541 24.6318 49.921 25.0889 49.4639C25.546 49.0068 26.166 48.75 26.8125 48.75H60.9375C61.584 48.75 62.204 49.0068 62.6611 49.4639C63.1182 49.921 63.375 50.541 63.375 51.1875C63.375 51.834 63.1182 52.454 62.6611 52.9111C62.204 53.3682 61.584 53.625 60.9375 53.625H26.8125C26.166 53.625 25.546 53.3682 25.0889 52.9111C24.6318 52.454 24.375 51.834 24.375 51.1875Z" fill="#F8A23D"/>
<path d="M17.0625 29.25C18.4087 29.25 19.5 28.1587 19.5 26.8125C19.5 25.4663 18.4087 24.375 17.0625 24.375C15.7163 24.375 14.625 25.4663 14.625 26.8125C14.625 28.1587 15.7163 29.25 17.0625 29.25Z" fill="#F8A23D"/>
<path d="M17.0625 41.4375C18.4087 41.4375 19.5 40.3462 19.5 39C19.5 37.6538 18.4087 36.5625 17.0625 36.5625C15.7163 36.5625 14.625 37.6538 14.625 39C14.625 40.3462 15.7163 41.4375 17.0625 41.4375Z" fill="#F8A23D"/>
<path d="M17.0625 53.625C18.4087 53.625 19.5 52.5337 19.5 51.1875C19.5 49.8413 18.4087 48.75 17.0625 48.75C15.7163 48.75 14.625 49.8413 14.625 51.1875C14.625 52.5337 15.7163 53.625 17.0625 53.625Z" fill="#F8A23D"/>
</g>
<defs>
<clipPath id="clip0">
<rect width="78" height="78" fill="white"/>
</clipPath>
</defs>
</svg>
