<svg width="80" height="78" viewBox="0 0 80 78" fill="none" xmlns="http://www.w3.org/2000/svg">
<path d="M40 6.5C30.81 6.5 23.3333 13.7898 23.3333 22.75C23.3333 31.7103 30.81 39 40 39C49.19 39 56.6667 31.7103 56.6667 22.75C56.6667 13.7898 49.19 6.5 40 6.5ZM40 32.5C34.4867 32.5 30 28.1255 30 22.75C30 17.3745 34.4867 13 40 13C45.5133 13 50 17.3745 50 22.75C50 28.1255 45.5133 32.5 40 32.5ZM70 68.25V65C70 52.4583 59.53 42.25 46.6667 42.25H33.3333C20.4667 42.25 10 52.4583 10 65V68.25H16.6667V65C16.6667 56.0397 24.1433 48.75 33.3333 48.75H46.6667C55.8567 48.75 63.3333 56.0397 63.3333 65V68.25H70Z" fill="#F8A23D"/>
</svg>
