<svg width="76" height="76" viewBox="0 0 76 76" fill="none" xmlns="http://www.w3.org/2000/svg">
<path d="M45.125 57H54.625V66.5H45.125V57Z" fill="#F8A23D"/>
<path d="M61.75 57H71.25V66.5H61.75V57Z" fill="#F8A23D"/>
<path d="M45.125 40.375H54.625V49.875H45.125V40.375Z" fill="#F8A23D"/>
<path d="M61.75 40.375H71.25V49.875H61.75V40.375Z" fill="#F8A23D"/>
<path d="M40.375 57H9.5V23.75H66.5V35.625H71.25V23.75C71.2487 22.4906 70.7479 21.2832 69.8574 20.3926C68.9668 19.5021 67.7594 19.0013 66.5 19H52.25V9.5C52.2487 8.24061 51.7479 7.03316 50.8574 6.14263C49.9668 5.25211 48.7594 4.75126 47.5 4.75H28.5C27.2406 4.75126 26.0332 5.25211 25.1426 6.14263C24.2521 7.03316 23.7513 8.24061 23.75 9.5V19H9.5C8.24061 19.0013 7.03316 19.5021 6.14263 20.3926C5.25211 21.2832 4.75126 22.4906 4.75 23.75V57C4.75126 58.2594 5.25211 59.4668 6.14263 60.3574C7.03316 61.2479 8.24061 61.7487 9.5 61.75H40.375V57ZM28.5 9.5H47.5V19H28.5V9.5Z" fill="#F8A23D"/>
</svg>
