<svg width="63" height="63" viewBox="0 0 63 63" fill="none" xmlns="http://www.w3.org/2000/svg">
<path d="M61.8064 23.4773C62.2863 23.0959 63 23.4527 63 24.0557V49.2188C63 52.4795 60.3545 55.125 57.0938 55.125H5.90625C2.64551 55.125 0 52.4795 0 49.2188V24.068C0 23.4527 0.701367 23.1082 1.19355 23.4896C3.9498 25.6307 7.6043 28.35 20.1551 37.4678C22.7514 39.3627 27.1318 43.3494 31.5 43.3248C35.8928 43.3617 40.3594 39.2889 42.8572 37.4678C55.408 28.35 59.0502 25.6184 61.8064 23.4773ZM31.5 39.375C34.3547 39.4242 38.4645 35.782 40.5316 34.2809C56.86 22.4314 58.1027 21.3979 61.868 18.4447C62.5816 17.891 63 17.0297 63 16.1191V13.7812C63 10.5205 60.3545 7.875 57.0938 7.875H5.90625C2.64551 7.875 0 10.5205 0 13.7812V16.1191C0 17.0297 0.418359 17.8787 1.13203 18.4447C4.89727 21.3855 6.14004 22.4314 22.4684 34.2809C24.5355 35.782 28.6453 39.4242 31.5 39.375Z" fill="#F8A23D"/>
</svg>
