<svg width="77" height="60" viewBox="0 0 77 60" fill="none" xmlns="http://www.w3.org/2000/svg">
<path d="M16.5 45V47.7273C16.5 48.0966 16.3639 48.4162 16.0918 48.6861C15.8197 48.956 15.4974 49.0909 15.125 49.0909H12.375C12.0026 49.0909 11.6803 48.956 11.4082 48.6861C11.1361 48.4162 11 48.0966 11 47.7273V45C11 44.6307 11.1361 44.3111 11.4082 44.0412C11.6803 43.7713 12.0026 43.6364 12.375 43.6364H15.125C15.4974 43.6364 15.8197 43.7713 16.0918 44.0412C16.3639 44.3111 16.5 44.6307 16.5 45ZM16.5 34.0909V36.8182C16.5 37.1875 16.3639 37.5071 16.0918 37.777C15.8197 38.0469 15.4974 38.1818 15.125 38.1818H12.375C12.0026 38.1818 11.6803 38.0469 11.4082 37.777C11.1361 37.5071 11 37.1875 11 36.8182V34.0909C11 33.7216 11.1361 33.402 11.4082 33.1321C11.6803 32.8622 12.0026 32.7273 12.375 32.7273H15.125C15.4974 32.7273 15.8197 32.8622 16.0918 33.1321C16.3639 33.402 16.5 33.7216 16.5 34.0909ZM16.5 23.1818V25.9091C16.5 26.2784 16.3639 26.598 16.0918 26.8679C15.8197 27.1378 15.4974 27.2727 15.125 27.2727H12.375C12.0026 27.2727 11.6803 27.1378 11.4082 26.8679C11.1361 26.598 11 26.2784 11 25.9091V23.1818C11 22.8125 11.1361 22.4929 11.4082 22.223C11.6803 21.9531 12.0026 21.8182 12.375 21.8182H15.125C15.4974 21.8182 15.8197 21.9531 16.0918 22.223C16.3639 22.4929 16.5 22.8125 16.5 23.1818ZM66 45V47.7273C66 48.0966 65.8639 48.4162 65.5918 48.6861C65.3197 48.956 64.9974 49.0909 64.625 49.0909H23.375C23.0026 49.0909 22.6803 48.956 22.4082 48.6861C22.1361 48.4162 22 48.0966 22 47.7273V45C22 44.6307 22.1361 44.3111 22.4082 44.0412C22.6803 43.7713 23.0026 43.6364 23.375 43.6364H64.625C64.9974 43.6364 65.3197 43.7713 65.5918 44.0412C65.8639 44.3111 66 44.6307 66 45ZM66 34.0909V36.8182C66 37.1875 65.8639 37.5071 65.5918 37.777C65.3197 38.0469 64.9974 38.1818 64.625 38.1818H23.375C23.0026 38.1818 22.6803 38.0469 22.4082 37.777C22.1361 37.5071 22 37.1875 22 36.8182V34.0909C22 33.7216 22.1361 33.402 22.4082 33.1321C22.6803 32.8622 23.0026 32.7273 23.375 32.7273H64.625C64.9974 32.7273 65.3197 32.8622 65.5918 33.1321C65.8639 33.402 66 33.7216 66 34.0909ZM66 23.1818V25.9091C66 26.2784 65.8639 26.598 65.5918 26.8679C65.3197 27.1378 64.9974 27.2727 64.625 27.2727H23.375C23.0026 27.2727 22.6803 27.1378 22.4082 26.8679C22.1361 26.598 22 26.2784 22 25.9091V23.1818C22 22.8125 22.1361 22.4929 22.4082 22.223C22.6803 21.9531 23.0026 21.8182 23.375 21.8182H64.625C64.9974 21.8182 65.3197 21.9531 65.5918 22.223C65.8639 22.4929 66 22.8125 66 23.1818ZM71.5 53.1818V17.7273C71.5 17.358 71.3639 17.0384 71.0918 16.7685C70.8197 16.4986 70.4974 16.3636 70.125 16.3636H6.875C6.5026 16.3636 6.18034 16.4986 5.9082 16.7685C5.63607 17.0384 5.5 17.358 5.5 17.7273V53.1818C5.5 53.5511 5.63607 53.8707 5.9082 54.1406C6.18034 54.4105 6.5026 54.5455 6.875 54.5455H70.125C70.4974 54.5455 70.8197 54.4105 71.0918 54.1406C71.3639 53.8707 71.5 53.5511 71.5 53.1818ZM77 6.81818V53.1818C77 55.0568 76.3268 56.6619 74.9805 57.9972C73.6341 59.3324 72.0156 60 70.125 60H6.875C4.98438 60 3.36589 59.3324 2.01953 57.9972C0.673177 56.6619 0 55.0568 0 53.1818V6.81818C0 4.94318 0.673177 3.33807 2.01953 2.00284C3.36589 0.667614 4.98438 0 6.875 0H70.125C72.0156 0 73.6341 0.667614 74.9805 2.00284C76.3268 3.33807 77 4.94318 77 6.81818Z" fill="#F8A23D"/>
</svg>
