<svg width="72" height="50" viewBox="0 0 72 50" fill="none" xmlns="http://www.w3.org/2000/svg">
<path d="M36 13.6364H22.5V27.2727H36V13.6364ZM40.5 36.3636V40.9091H18V36.3636H40.5ZM40.5 9.09091V31.8182H18V9.09091H40.5ZM63 36.3636V40.9091H45V36.3636H63ZM63 27.2727V31.8182H45V27.2727H63ZM63 18.1818V22.7273H45V18.1818H63ZM63 9.09091V13.6364H45V9.09091H63ZM9 43.1818V9.09091H4.5V43.1818C4.5 43.7973 4.72266 44.33 5.16797 44.7798C5.61328 45.2296 6.14062 45.4545 6.75 45.4545C7.35938 45.4545 7.88672 45.2296 8.33203 44.7798C8.77734 44.33 9 43.7973 9 43.1818ZM67.5 43.1818V4.54545H13.5V43.1818C13.5 43.9631 13.3711 44.7206 13.1133 45.4545H65.25C65.8594 45.4545 66.3867 45.2296 66.832 44.7798C67.2773 44.33 67.5 43.7973 67.5 43.1818ZM72 0V43.1818C72 45.0758 71.3438 46.6856 70.0312 48.0114C68.7188 49.3371 67.125 50 65.25 50H6.75C4.875 50 3.28125 49.3371 1.96875 48.0114C0.65625 46.6856 0 45.0758 0 43.1818V4.54545H9V0H72Z" fill="#F8A23D"/>
</svg>
