<svg width="45" height="68" viewBox="0 0 45 68" fill="none" xmlns="http://www.w3.org/2000/svg">
<path d="M38.4102 38.9295C47.1966 30.0243 47.1966 15.5858 38.4102 6.67887C29.6229 -2.22629 15.3777 -2.22629 6.59046 6.67887C-2.19682 15.5858 -2.19682 30.0243 6.59046 38.9295C9.73475 42.1254 13.7477 44.2988 18.1166 45.1721V52.2206H13.5613C13.3869 52.2205 13.2142 52.2552 13.053 52.3228C12.8919 52.3904 12.7455 52.4896 12.6222 52.6146C12.4989 52.7397 12.4012 52.8881 12.3346 53.0515C12.268 53.2148 12.2338 53.3899 12.234 53.5667V59.5662C12.234 60.3085 12.8289 60.9105 13.5613 60.9114H18.1166V66.6548C18.1166 67.3108 18.5808 67.8562 19.1946 67.9747V68H25.3642C26.0966 68 26.6915 67.398 26.6915 66.6548L26.6924 60.9114H31.4402C32.1735 60.9114 32.7675 60.3094 32.7675 59.5662V53.5667C32.768 53.3898 32.7341 53.2146 32.6676 53.0511C32.6011 52.8876 32.5034 52.739 32.38 52.6139C32.2567 52.4888 32.1102 52.3896 31.9489 52.3221C31.7876 52.2546 31.6147 52.2201 31.4402 52.2206H26.6932V45.2087C31.1346 44.362 35.2193 42.173 38.4102 38.9295ZM22.5008 36.9177C14.8104 36.9177 8.57538 30.5994 8.57624 22.8051C8.57624 15.0107 14.8104 8.69149 22.5016 8.69149C30.192 8.69149 36.427 15.0099 36.4261 22.8042C36.4253 30.5985 30.1911 36.9177 22.5008 36.9177Z" fill="#F8A23D"/>
</svg>
