<svg width="86" height="94" viewBox="0 0 86 94" fill="none" xmlns="http://www.w3.org/2000/svg">
<path d="M78.2058 59.4408C78.0467 58.0966 77.3475 56.947 76.343 56.4159L63.4233 49.6789L57.9597 46.8307C60.3462 45.1885 62.2838 42.6524 63.5523 39.5974C64.6097 37.0508 65.1569 34.2866 65.157 31.4899C65.157 29.8421 64.9179 28.2789 64.5843 26.7683C62.9589 19.4532 57.7318 14.0642 51.4581 14.0642C45.8732 14.0642 41.1286 18.3478 39.0053 24.4484C38.7825 25.077 38.5902 25.7181 38.4291 26.3688C38.1307 27.5908 37.9019 28.8504 37.8056 30.1617C37.7738 30.5988 37.7566 31.0415 37.7566 31.4899C37.7566 31.88 37.7669 32.2664 37.7875 32.6499C37.9217 35.2197 38.5228 37.7345 39.5557 40.0477C40.8655 42.9814 42.8065 45.401 45.1689 46.9567L39.9367 49.6197L26.5981 56.4093C25.7286 56.8549 25.0836 57.7695 24.8144 58.8721C24.7232 59.2491 24.6772 59.6374 24.6777 60.0274V76.0478C24.6777 78.1948 26.0459 79.9356 27.7367 79.9356H75.1812C76.8711 79.9356 78.2402 78.1948 78.2402 76.0478V60.0274C78.2402 59.829 78.229 59.6326 78.2058 59.4408Z" fill="#F8A23D"/>
<path d="M33.7352 47.3151L36.1862 45.9502C33.4643 41.9965 31.8303 36.9685 31.8303 31.4902C31.8303 27.6916 32.6189 24.1112 34.007 20.9528C32.6602 20.2271 31.2223 19.8135 29.7216 19.8135C22.5277 19.8135 16.6616 28.8488 16.3538 40.1786H16.34V44.9904C16.34 46 17.0891 46.8187 18.0127 46.8187H24.1092C24.1789 46.8667 24.246 46.9203 24.3156 46.9663L9.31035 54.601C8.37553 55.0813 7.75891 56.2357 7.75891 57.5253V70.4701C7.75891 72.2053 8.86745 73.6106 10.2314 73.6106H20.1481V60.0276C20.1481 56.513 21.9265 53.3339 24.6846 51.922L33.7352 47.3151Z" fill="#F8A23D"/>
</svg>
