<svg width="64" height="64" viewBox="0 0 64 64" fill="none" xmlns="http://www.w3.org/2000/svg">
<path d="M52.792 35.7387C47.3573 33.1253 38.6133 31.4613 30.6587 31.4613C25.784 31.4613 22.7893 23.0267 21.9547 17.5013L25.1067 12.1493C25.8133 10.9494 26.821 9.95475 28.03 9.26369C29.239 8.57264 30.6074 8.20914 32 8.20914C33.3925 8.20914 34.761 8.57264 35.97 9.26369C37.179 9.95475 38.1866 10.9494 38.8933 12.1493L52.792 35.7387ZM57.2533 43.3093L57.6267 43.9387C58.3428 45.154 58.7248 46.5371 58.7341 47.9476C58.7433 49.3582 58.3794 50.7462 57.6792 51.9708C56.9791 53.1954 55.9676 54.213 54.7473 54.9207C53.527 55.6283 52.1413 56.0006 50.7307 56H13.2667C11.8563 56.0002 10.4709 55.6275 9.25097 54.9197C8.03104 54.2119 7.01992 53.1941 6.32009 51.9696C5.62025 50.7451 5.25657 49.3573 5.26592 47.947C5.27527 46.5366 5.65731 45.1538 6.37332 43.9387L18.4187 23.5013C19.5307 30.8613 24.136 36.7947 30.6587 36.7947C37.984 36.7947 48.552 38.224 57.2533 43.3093Z" fill="#F8A23D"/>
</svg>
