<svg width="55" height="54" viewBox="0 0 55 54" fill="none" xmlns="http://www.w3.org/2000/svg">
<path d="M5.44363e-07 8.1L19.25 0L35.75 8.1L53.0832 0.8073C53.2925 0.719236 53.5207 0.683557 53.7475 0.703464C53.9742 0.723372 54.1924 0.798245 54.3824 0.921361C54.5724 1.04448 54.7283 1.21199 54.8361 1.40885C54.9439 1.60572 55.0002 1.82579 55 2.0493V45.9L35.75 54L19.25 45.9L1.91675 53.1927C1.70751 53.2808 1.47928 53.3164 1.25253 53.2965C1.02578 53.2766 0.807618 53.2018 0.617615 53.0786C0.427611 52.9555 0.271716 52.788 0.163919 52.5911C0.0561225 52.3943 -0.000202005 52.1742 5.44363e-07 51.9507V8.1ZM11 24.3V29.7H16.5V24.3H11ZM22 24.3V29.7H27.5V24.3H22ZM38.5 24.138L35.0982 20.7954L32.1805 23.6574L35.5822 27L32.1805 30.3399L35.0955 33.2046L38.5 29.8647L41.9017 33.2046L44.8195 30.3426L41.4178 27L44.8195 23.6601L41.9045 20.7954L38.5 24.1353V24.138Z" fill="#F8A23D"/>
</svg>
