<svg width="70" height="70" viewBox="0 0 70 70" fill="none" xmlns="http://www.w3.org/2000/svg">
<path d="M69.999 1.64907L70 1.6438C70 0.745554 69.2773 0.0179005 68.385 0.0168475V0H46.6024V0.0179019C46.1763 0.0217871 45.7689 0.194655 45.4688 0.498923C45.1687 0.80319 45.0003 1.21426 45 1.64275V8.87821C45 9.77014 45.7164 10.4936 46.6024 10.502V10.5031H51.9973L42.8718 19.6782C38.32 16.5427 32.9296 14.8684 27.412 14.8763C12.2727 14.8763 0 27.2159 0 42.4376C0 57.6594 12.2727 70 27.412 70C42.5513 70 54.824 57.6594 54.824 42.4376C54.8321 36.9939 53.2287 31.6709 50.2178 27.1464L59.5507 17.7627V23.526C59.5507 24.4243 60.2744 25.1519 61.1678 25.1519H68.3808C69.2731 25.1519 69.9979 24.4243 69.9979 23.526L69.9969 23.5208V1.64907H69.999ZM27.412 59.4959C18.0425 59.4959 10.4472 51.8592 10.4472 42.4376C10.4472 33.0171 18.0425 25.3794 27.412 25.3794C36.7815 25.3794 44.3779 33.0171 44.3779 42.4376C44.3779 51.8592 36.7815 59.4959 27.412 59.4959Z" fill="#F8A23D"/>
</svg>
