<svg width="73" height="65" viewBox="0 0 73 65" fill="none" xmlns="http://www.w3.org/2000/svg">
<path d="M12.1667 16.25C13.7709 16.25 15.3391 15.7735 16.673 14.8807C18.0068 13.9879 19.0464 12.719 19.6604 11.2343C20.2743 9.74966 20.4349 8.11599 20.1219 6.5399C19.809 4.9638 19.0364 3.51606 17.9021 2.37976C16.7677 1.24346 15.3225 0.469628 13.7491 0.156123C12.1757 -0.157382 10.5448 0.00352041 9.06268 0.618482C7.58057 1.23344 6.31378 2.27485 5.42252 3.611C4.53126 4.94714 4.05556 6.51803 4.05556 8.125C4.05556 10.2799 4.91012 12.3465 6.43124 13.8702C7.95237 15.394 10.0155 16.25 12.1667 16.25ZM12.1667 38.6039C12.1649 37.8447 12.3172 37.0931 12.6143 36.3948C12.9115 35.6964 13.3473 35.0658 13.8953 34.5414L23.0368 25.8984C23.2459 25.7017 23.5146 25.6052 23.7478 25.4452C23.1514 23.9327 22.115 22.6347 20.7731 21.7195C19.4312 20.8042 17.8456 20.314 16.2222 20.3125H8.11111C5.95991 20.3125 3.89682 21.1685 2.37569 22.6923C0.854561 24.216 0 26.2826 0 28.4375L0 40.625C0 41.7024 0.427281 42.7358 1.18784 43.4976C1.94841 44.2595 2.97996 44.6875 4.05556 44.6875V60.9375C4.05556 62.0149 4.48284 63.0483 5.2434 63.8101C6.00396 64.572 7.03551 65 8.11111 65H16.2222C17.2978 65 18.3294 64.572 19.0899 63.8101C19.8505 63.0483 20.2778 62.0149 20.2778 60.9375V48.7005L13.8953 42.6664C13.3472 42.1421 12.9112 41.5116 12.614 40.8132C12.3168 40.1148 12.1646 39.3631 12.1667 38.6039ZM60.8333 16.25C62.4376 16.25 64.0058 15.7735 65.3396 14.8807C66.6735 13.9879 67.7131 12.719 68.327 11.2343C68.9409 9.74966 69.1016 8.11599 68.7886 6.5399C68.4756 4.9638 67.7031 3.51606 66.5687 2.37976C65.4344 1.24346 63.9891 0.469628 62.4157 0.156123C60.8423 -0.157382 59.2115 0.00352041 57.7293 0.618482C56.2472 1.23344 54.9804 2.27485 54.0892 3.611C53.1979 4.94714 52.7222 6.51803 52.7222 8.125C52.7222 10.2799 53.5768 12.3465 55.0979 13.8702C56.619 15.394 58.6821 16.25 60.8333 16.25ZM64.8889 20.3125H56.7778C55.1545 20.3139 53.5691 20.8039 52.2272 21.7189C50.8853 22.6339 49.8488 23.9317 49.2522 25.4439C49.4854 25.6052 49.7591 25.6979 49.9644 25.8997L59.1046 34.5401C59.651 35.0658 60.0857 35.6966 60.3826 36.3947C60.6795 37.0928 60.8326 37.8438 60.8326 38.6026C60.8326 39.3615 60.6795 40.1125 60.3826 40.8106C60.0857 41.5087 59.651 42.1395 59.1046 42.6651L52.7222 48.7018V60.9375C52.7222 62.0149 53.1495 63.0483 53.9101 63.8101C54.6706 64.572 55.7022 65 56.7778 65H64.8889C65.9645 65 66.996 64.572 67.7566 63.8101C68.5172 63.0483 68.9444 62.0149 68.9444 60.9375V44.6875C70.02 44.6875 71.0516 44.2595 71.8122 43.4976C72.5727 42.7358 73 41.7024 73 40.625V28.4375C73 26.2826 72.1454 24.216 70.6243 22.6923C69.1032 21.1685 67.0401 20.3125 64.8889 20.3125ZM56.3215 37.4943L47.1813 28.8539C46.9656 28.6479 46.6941 28.5099 46.4008 28.4571C46.1074 28.4044 45.805 28.4391 45.5312 28.557C45.2574 28.675 45.0242 28.8709 44.8606 29.1205C44.697 29.3701 44.6103 29.6624 44.6111 29.9609V34.5313H28.3889V29.9609C28.39 29.6623 28.3034 29.3698 28.1399 29.12C27.9765 28.8703 27.7433 28.6741 27.4694 28.556C27.1955 28.4379 26.893 28.4031 26.5995 28.4558C26.306 28.5085 26.0345 28.6465 25.8187 28.8526L16.6785 37.4943C16.3863 37.7892 16.2224 38.1878 16.2224 38.6033C16.2224 39.0187 16.3863 39.4173 16.6785 39.7122L25.8187 48.3539C26.0346 48.5601 26.3062 48.6981 26.5998 48.7508C26.8935 48.8035 27.1961 48.7685 27.47 48.6503C27.7439 48.532 27.9771 48.3357 28.1405 48.0857C28.3038 47.8357 28.3902 47.5431 28.3889 47.2443V42.6563H44.6111V47.2443C44.6098 47.5431 44.6961 47.8357 44.8595 48.0857C45.0229 48.3357 45.2561 48.532 45.53 48.6503C45.8039 48.7685 46.1065 48.8035 46.4002 48.7508C46.6938 48.6981 46.9654 48.5601 47.1813 48.3539L56.3215 39.7122C56.6137 39.4173 56.7776 39.0187 56.7776 38.6033C56.7776 38.1878 56.6137 37.7892 56.3215 37.4943Z" fill="#F8A23D"/>
</svg>
