<svg width="69" height="69" viewBox="0 0 69 69" fill="none" xmlns="http://www.w3.org/2000/svg">
<path d="M34.5 31.625C38.3125 31.625 41.9688 33.1395 44.6647 35.8353C47.3605 38.5312 48.875 42.1875 48.875 46V63.25H20.125V46C20.125 42.1875 21.6395 38.5312 24.3353 35.8353C27.0312 33.1395 30.6875 31.625 34.5 31.625ZM15.203 40.2673C14.7455 41.8105 14.4752 43.4032 14.398 45.011L14.375 46V63.25H5.75V50.3125C5.74943 47.833 6.66433 45.4406 8.3192 43.5942C9.97407 41.7478 12.2524 40.5774 14.7171 40.3075L15.2059 40.2673H15.203ZM53.797 40.2673C56.3555 40.4232 58.7581 41.5494 60.5147 43.416C62.2713 45.2827 63.2496 47.7493 63.25 50.3125V63.25H54.625V46C54.625 44.0076 54.3375 42.0842 53.797 40.2673ZM15.8125 23C17.7187 23 19.5469 23.7573 20.8948 25.1052C22.2427 26.4531 23 28.2813 23 30.1875C23 32.0937 22.2427 33.9219 20.8948 35.2698C19.5469 36.6177 17.7187 37.375 15.8125 37.375C13.9063 37.375 12.0781 36.6177 10.7302 35.2698C9.38225 33.9219 8.625 32.0937 8.625 30.1875C8.625 28.2813 9.38225 26.4531 10.7302 25.1052C12.0781 23.7573 13.9063 23 15.8125 23ZM53.1875 23C55.0937 23 56.9219 23.7573 58.2698 25.1052C59.6177 26.4531 60.375 28.2813 60.375 30.1875C60.375 32.0937 59.6177 33.9219 58.2698 35.2698C56.9219 36.6177 55.0937 37.375 53.1875 37.375C51.2813 37.375 49.4531 36.6177 48.1052 35.2698C46.7573 33.9219 46 32.0937 46 30.1875C46 28.2813 46.7573 26.4531 48.1052 25.1052C49.4531 23.7573 51.2813 23 53.1875 23ZM34.5 5.75C37.55 5.75 40.4751 6.9616 42.6317 9.11827C44.7884 11.2749 46 14.2 46 17.25C46 20.3 44.7884 23.2251 42.6317 25.3817C40.4751 27.5384 37.55 28.75 34.5 28.75C31.45 28.75 28.5249 27.5384 26.3683 25.3817C24.2116 23.2251 23 20.3 23 17.25C23 14.2 24.2116 11.2749 26.3683 9.11827C28.5249 6.9616 31.45 5.75 34.5 5.75Z" fill="#F8A23D"/>
</svg>
