<?xml version="1.0" encoding="utf-8"?>
<!-- Generator: Adobe Illustrator 23.0.6, SVG Export Plug-In . SVG Version: 6.00 Build 0)  -->
<svg version="1.1" id="Layer_5" xmlns="http://www.w3.org/2000/svg" xmlns:xlink="http://www.w3.org/1999/xlink" x="0px" y="0px"
	 viewBox="0 0 512 512" style="enable-background:new 0 0 512 512;" xml:space="preserve">
<style type="text/css">
	.st0{fill:#B4DD7F;}
	.st1{fill:#E6E9ED;}
	.st2{fill:#FCD770;}
	.st3{fill:#B27946;}
	.st4{fill:#018577;}
	.st5{fill:#017564;}
	.st6{fill:#D3A06C;}
	.st7{fill:#CCD1D9;}
	.st8{fill:#AAB2BD;}
	.st9{fill:#F0D0B4;}
</style>
<g>
	<g>
		<g>
			<path class="st0" d="M240,80V32c0-8.8,7.2-16,16-16h192c8.8,0,16,7.2,16,16v48H240z"/>
		</g>
		<g>
			<path class="st1" d="M464,80v80c0,8.8-7.2,16-16,16H328v20.7c0,6.2-5,11.3-11.3,11.3c-3,0-5.9-1.2-8-3.3L280,176h-24
				c-8.8,0-16-7.2-16-16V80H464z"/>
		</g>
		<g>
			<path class="st2" d="M272,112h48v32h-48V112z"/>
		</g>
		<g>
			<path class="st3" d="M100.5,48H176c8.8,0,16.8,3.6,22.6,9.4c5.8,5.8,9.4,13.8,9.4,22.6c0,11.8-6.4,22.2-16,27.7
				c-4.7,2.7-10.2,4.3-16,4.3h-41.4c-6.2,0-11.9-2.6-16-6.6l-5.7-9.6l-1,0.2h-8c-13.3,0-24,10.7-24,24v8l-4.7,4.7
				c-7.2,7.2-11.3,17-11.3,27.3s4.1,20.1,11.3,27.3L80,192v24c-37.6-9.4-64-43.2-64-82v-1.5C16,85.8,53.8,48,100.5,48z"/>
		</g>
		<g>
			<path class="st4" d="M112,280l24,32l20.3-60.9l3.2,0.8c9.8,2.4,18.6,7,26,13.4c-5.8,5.8-9.5,13.8-9.5,22.7v96
				c0,17.7,14.3,32,32,32h16v48h-41.4c0.9-2.5,1.4-5.2,1.4-8c0-6.6-2.7-12.6-7-17s-10.3-7-17-7v-7c0-9.4-7.6-17-17-17
				c-4.5,0-8.8,1.8-12,5l-11,11h-1.4c-14.5,0-28.4-5.8-38.6-16c-8.6-8.6-14.2-20-15.6-32.1L64,376H16.2c-0.1-1.8-0.2-3.5-0.2-5.3
				V314c0-29.4,20-55,48.5-62.1l3.2-0.8L88,312L112,280z"/>
		</g>
		<g>
			<path class="st5" d="M156.3,251.1L136,312l-24-32l32-32L156.3,251.1z"/>
		</g>
		<g>
			<path class="st5" d="M112,280l-24,32l-20.3-60.9L80,248L112,280z"/>
		</g>
		<g>
			<path class="st6" d="M496,496H96c0-6.9,2.2-13.3,5.9-18.6c1-1.4,2.2-2.8,3.4-4.1c5.8-5.8,13.8-9.4,22.6-9.4h54.6H224h32h80h128
				C481.7,464,496,478.3,496,496L496,496z"/>
		</g>
		<g>
			<path class="st7" d="M416,288v96c0,17.7-14.3,32-32,32h-48v-16c0-8.8-7.2-16-16-16h-48c-8.8,0-16,7.2-16,16v16h-32h-16
				c-17.7,0-32-14.3-32-32v-96c0-8.9,3.7-17,9.5-22.7s13.8-9.3,22.5-9.3h176C401.7,256,416,270.3,416,288z"/>
		</g>
		<g>
			<path class="st8" d="M336,416v48h-80v-48v-16c0-8.8,7.2-16,16-16h48c8.8,0,16,7.2,16,16V416z"/>
		</g>
		<g>
			<path class="st9" d="M184,456c0,2.8-0.5,5.5-1.4,8H128c-8.8,0-16.8,3.6-22.6,9.4c-1.3,1.3-2.4,2.6-3.4,4.1
				C81.7,473,62.9,462.9,48,448c-19.2-19.2-30.6-44.9-31.8-72H64l0.4-0.1c1.4,12.1,7,23.4,15.6,32.1c10.2,10.2,24.2,16,38.6,16h1.4
				l11-11c3.2-3.2,7.5-5,12-5c9.4,0,17,7.6,17,17v7c6.6,0,12.6,2.7,17,7S184,449.4,184,456L184,456z"/>
		</g>
		<g>
			<path class="st9" d="M134.6,112H176c5.8,0,11.3-1.6,16-4.3V176c0,10.4-3.4,20.5-9.6,28.8c-4.5,6.1-10.3,10.9-17,14.2
				c-6.6,3.3-13.9,5-21.4,5v24l-32,32l-32-32v-32v-24l-4.7-4.7c-7.2-7.2-11.3-17-11.3-27.3s4.1-20.1,11.3-27.3L80,128v-8
				c0-13.3,10.7-24,24-24h8l1-0.2l5.7,9.6C122.7,109.4,128.4,112,134.6,112z"/>
		</g>
	</g>
	<g>
		<circle cx="120" cy="144" r="8"/>
		<circle cx="168" cy="144" r="8"/>
		<path d="M160,174.1c-3,6.1-9.2,9.9-16,9.9s-13-3.8-16-9.9l-0.8-1.7l-14.3,7.2l0.8,1.7c5.8,11.6,17.4,18.7,30.3,18.7
			s24.5-7.2,30.3-18.7l0.8-1.7l-14.3-7.2L160,174.1z"/>
		<path d="M464,456H344v-32h40c22.1,0,40-17.9,40-40v-96c0-22.1-17.9-40-40-40H208c-8.4,0-16.2,2.6-22.7,7.1
			c-7.2-5-15.3-8.8-23.9-11l-9.5-2.4v-10.4c14.5-2.1,27.9-9.9,36.8-21.8C196,200,200,188,200,176v-64.2c9.7-7.3,16-18.8,16-31.8
			c0-22.1-17.9-40-40-40h-75.5C49.5,40,8,81.5,8,132.5v1.5c0,40.4,26,75.7,64,87.9v19.8l-9.5,2.4C30.4,252.2,8,280.9,8,314v56.8
			c0,31.3,12.2,60.8,34.3,82.9c13.5,13.5,30,23.4,48.1,29C89,486.9,88,491.3,88,496v8h416v-8C504,473.9,486.1,456,464,456z M264,456
			v-56c0-4.4,3.6-8,8-8h48c4.4,0,8,3.6,8,8v56H264z M248,424v32h-16v-32H248z M208,264h176c13.2,0,24,10.8,24,24v96
			c0,13.2-10.8,24-24,24h-40v-8c0-13.2-10.8-24-24-24h-48c-13.2,0-24,10.8-24,24v8h-40c-13.2,0-24-10.8-24-24v-96
			C184,274.8,194.8,264,208,264z M145.7,257.6L133.2,295l-10.7-14.2L145.7,257.6z M184,176c0,8.6-2.8,17.1-8,24
			c-7.5,10-19.5,16-32,16h-14.1c-8,0-15.2-4.4-18.7-11.6l-14.3,7.2c6.3,12.6,19,20.4,33,20.4h6.1v12.7l-24,24l-24-24v-56l-7-7
			c-5.8-5.8-9-13.5-9-21.7s3.2-15.9,9-21.7l7-7V120c0-8.8,7.2-16,16-16h3.9c5.2,9.5,15.2,16,26.7,16H176c2.7,0,5.4-0.3,8-0.8V176z
			 M101.4,280.8L90.8,295l-12.4-37.4L101.4,280.8z M24,134v-1.5C24,90.3,58.3,56,100.5,56H176c13.2,0,24,10.8,24,24s-10.8,24-24,24
			h-41.4c-8.1,0-14.6-6.6-14.6-14.6c0-3.9,1.5-7.6,4.3-10.3l1.4-1.4l-11.3-11.3l-1.4,1.4c-5.4,5.5-8.5,12.6-8.8,20.3H104
			c-17.6,0-32,14.4-32,32v4.7l-2.3,2.3c-8.8,8.8-13.7,20.5-13.7,33s4.8,24.2,13.7,33l2.3,2.3v9.6C43.3,193.5,24,165.7,24,134z
			 M62.6,261L85.2,329l26.8-35.7l26.8,35.7l22.7-68.2c4.5,1.5,8.8,3.5,12.7,6c-3.9,6.2-6.2,13.4-6.2,21.1v96c0,22.1,17.9,40,40,40h8
			v32h-24c0-14.9-10.2-27.4-24-31v0c0-13.8-11.2-25-25-25c-6.6,0-13,2.7-17.7,7.3l-8.6,8.6c-11.7-0.5-22.7-5.3-31.1-13.6
			c-8.8-8.8-13.7-20.5-13.7-33V304H56v64H24v-54C24,289.6,39.7,268.5,62.6,261L62.6,261z M53.7,442.3c-16-16-25.8-36.3-28.7-58.3
			h32.8c2.7,11.1,8.3,21.4,16.6,29.7c11.8,11.8,27.5,18.3,44.3,18.3h4.7l13.4-13.4c1.7-1.7,4-2.6,6.3-2.6c4.9,0,9,4,9,9v15h8
			c8.8,0,16,7.2,16,16h-48c-11.4,0-21.6,4.8-28.9,12.5C81.9,463.9,66.3,455,53.7,442.3z M105.4,488c3.3-9.3,12.2-16,22.6-16h336
			c10.4,0,19.3,6.7,22.6,16H105.4z"/>
		<path d="M264,40h16v16h-16V40z"/>
		<path d="M296,40h16v16h-16V40z"/>
		<path d="M328,40h16v16h-16V40z"/>
		<path d="M264,152h64v-48h-64V152z M280,120h32v16h-32V120z"/>
		<path d="M344,104h16v16h-16V104z"/>
		<path d="M376,104h64v16h-64V104z"/>
		<path d="M344,136h96v16h-96V136z"/>
		<path d="M256,184h20.7l26.3,26.3c3.6,3.6,8.6,5.7,13.7,5.7c10.6,0,19.3-8.7,19.3-19.3V184h112c13.2,0,24-10.8,24-24V32
			c0-13.2-10.8-24-24-24H256c-13.2,0-24,10.8-24,24v128C232,173.2,242.8,184,256,184z M448,168H320v28.7c0,2.7-3.7,4.2-5.7,2.3
			l-31-31H256c-4.4,0-8-3.6-8-8V88h208v72C456,164.4,452.4,168,448,168z M256,24h192c4.4,0,8,3.6,8,8v40H248V32
			C248,27.6,251.6,24,256,24z"/>
		<path d="M104,344h16v16h-16V344z"/>
		<path d="M104,312h16v16h-16V312z"/>
		<path d="M104,376h16v16h-16V376z"/>
	</g>
</g>
</svg>
