<svg id="Capa_1" enable-background="new 0 0 511.038 511.038" height="512" viewBox="0 0 511.038 511.038" width="512" xmlns="http://www.w3.org/2000/svg"><g><g><g><path d="m373.541 248.213v10.34c0 14.81-4.64 29.24-13.27 41.27l-21.58 30.12v158.797c0 8.175-6.627 14.803-14.803 14.803h-153.874c-8.175 0-14.803-6.627-14.803-14.803v-107.067-243.215h218.33z" fill="#fed2a4"/></g><g><path d="m373.541 148.897v-10.439h-202.17-16.16v243.215 107.067c0 8.175 6.627 14.802 14.803 14.802h57.822c-.425-1.379-.656-2.844-.656-4.363v-100.536c17.936-10.859 29.951-30.561 29.951-53.019v-29.802c0-25.018-9.738-48.534-27.429-66.225-.825-.824-1.669-1.627-2.522-2.418v-98.282z" fill="#ffbd86"/><path d="m477.867 23.89c6.055 0 10.965 4.909 10.965 10.965v201.36c0 6.055-4.909 10.964-10.965 10.964h-444.697c-6.055 0-10.964-4.909-10.964-10.964v-201.36c0-6.056 4.909-10.965 10.964-10.965z" fill="#97da7b"/><path d="m124.083 236.215v-201.36c0-6.056 4.909-10.965 10.964-10.965h-101.877c-6.055 0-10.964 4.909-10.964 10.965v201.36c0 6.055 4.909 10.964 10.964 10.964h101.877c-6.055 0-10.964-4.909-10.964-10.964z" fill="#80d261"/><path d="m172.696 139.723c-10.188-10.208-23.746-15.83-38.176-15.83-.367 0-.738.004-1.109.011-29.147.593-52.86 25.059-52.86 54.538v68.738h146.629c-10.437-9.673-22.947-16.832-36.448-20.948-1.323-.403-2.241-1.604-2.241-2.987v-45.382c0-14.428-5.621-27.986-15.795-38.14z" fill="#80d261"/><path d="m436.869 53.891c0 12.13 9.833 21.963 21.963 21.963v119.363c-12.13 0-21.963 9.833-21.963 21.963h-362.7c0-12.13-9.833-21.963-21.963-21.963v-119.363c12.13 0 21.963-9.833 21.963-21.963z" fill="#dbf1d0"/><path d="m172.696 139.723c-10.188-10.208-23.746-15.83-38.176-15.83-.367 0-.738.004-1.109.011-.032.001-.064.001-.096.002-5.042.112-9.233-3.833-9.233-8.877v-61.138h-49.913c0 12.13-9.833 21.963-21.963 21.963v119.363c12.13 0 21.963 9.833 21.963 21.963h114.322v-39.317c0-14.428-5.621-27.986-15.795-38.14z" fill="#d5efc8"/><g><circle cx="255.581" cy="130.805" fill="#97da7b" r="58.465"/><g id="XMLID_480_"><g fill="#fed2a4"><path d="m345.351 24.533v29.35c0 13.88-11.26 25.13-25.14 25.13s-25.13-11.25-25.13-25.13v-29.35c0-9.41 7.63-17.03 17.04-17.03h16.19c9.41 0 17.04 7.62 17.04 17.03z"/><path d="m295.081 53.883v10.4c0 13.88-11.25 25.13-25.13 25.13s-25.13-11.25-25.13-25.13v-39.75c0-9.41 7.62-17.03 17.03-17.03h16.2c9.41 0 17.03 7.62 17.03 17.03z"/><path d="m244.821 64.283v8.47c0 13.88-11.26 25.13-25.14 25.13s-25.13-11.25-25.13-25.13v-8.47-39.75c0-9.41 7.63-17.03 17.04-17.03h16.19c9.41 0 17.04 7.62 17.04 17.03z"/><path d="m194.551 24.533v39.75c0 13.88-11.25 25.13-25.13 25.13s-25.13-11.25-25.13-25.13v-39.75c0-9.41 7.62-17.03 17.03-17.03h16.2c9.41 0 17.03 7.62 17.03 17.03z"/></g></g><g id="XMLID_482_"><g fill="#ffbd86"><path d="m319.271 53.883v-29.35c0-8.03 5.604-14.748 13.081-16.549-1.285-.31-2.661-.481-4.041-.481h-16.19c-9.41 0-17.04 7.62-17.04 17.03v29.35c0 13.88 11.25 25.13 25.13 25.13 4.385 0 8.507-1.125 12.096-3.099-7.77-4.274-13.036-12.536-13.036-22.031z"/><path d="m269.011 64.283v-39.75c0-8.031 5.598-14.751 13.075-16.55-1.283-.309-2.656-.48-4.035-.48h-16.2c-9.41 0-17.03 7.62-17.03 17.03v39.75c0 13.88 11.25 25.13 25.13 25.13 4.385 0 8.506-1.125 12.095-3.1-7.769-4.274-13.035-12.536-13.035-22.03z"/><path d="m218.741 72.753v-8.47-39.75c0-8.03 5.617-14.745 13.094-16.545-1.285-.31-2.674-.485-4.054-.485h-16.19c-9.41 0-17.04 7.62-17.04 17.03v39.75 8.47c0 13.88 11.25 25.13 25.13 25.13 4.385 0 8.507-1.125 12.096-3.099-7.77-4.274-13.036-12.536-13.036-22.031z"/><path d="m168.481 64.283v-39.75c0-8.031 5.601-14.75 13.078-16.549-1.283-.309-2.659-.481-4.038-.481h-16.2c-9.41 0-17.03 7.62-17.03 17.03v39.75c0 13.88 11.25 25.13 25.13 25.13 4.385 0 8.507-1.125 12.095-3.1-7.769-4.274-13.035-12.536-13.035-22.03z"/></g></g></g></g><g id="XMLID_477_"><g><path d="m232.131 345.624c0 20.716-17.038 37.38-37.749 36.919l-39.171-.871-34.31-34.31c-9.83-9.83-15.35-23.16-15.35-37.05v-131.87c0-15.862 12.509-29.221 28.368-29.543 8.238-.167 15.711 3.102 21.082 8.484 5.25 5.24 8.49 12.48 8.49 20.48v61.764c0 4.092 3.1 7.504 7.171 7.926 16.088 1.67 30.528 8.897 41.369 19.73 12.42 12.42 20.1 29.58 20.1 48.54z" fill="#fed2a4"/></g></g><g><path d="m189.709 377.448.009-.009-30.077-30.077c-9.83-9.83-15.35-23.16-15.35-37.05v-131.87c0-8.66 3.734-16.568 9.701-22.022-5.279-4.805-12.338-7.678-20.073-7.521-15.859.322-28.368 13.681-28.368 29.543v131.871c0 13.89 5.52 27.22 15.35 37.05l34.31 34.31 39.171.871c.141.003.28-.004.42-.002z" fill="#ffbd86"/></g></g><g><path d="m477.867 16.391h-32.794c-4.143 0-7.5 3.357-7.5 7.5s3.357 7.5 7.5 7.5h32.794c1.91 0 3.465 1.554 3.465 3.464v201.36c0 1.91-1.555 3.464-3.465 3.464h-306.879v-14.999h202.549c4.143 0 7.5-3.357 7.5-7.5s-3.357-7.5-7.5-7.5h-202.549v-31.815c0-20.107-16.359-36.467-36.468-36.467-20.107 0-36.467 16.359-36.467 36.467v31.815h-17.351c-2.695-10.229-10.767-18.301-20.996-20.996v-53.289c0-4.143-3.357-7.5-7.5-7.5s-7.5 3.357-7.5 7.5v59.822c0 4.143 3.357 7.5 7.5 7.5 7.975 0 14.463 6.488 14.463 14.463 0 4.143 3.357 7.5 7.5 7.5h23.885v14.999h-64.884c-1.91 0-3.464-1.554-3.464-3.464v-201.361c0-1.91 1.554-3.464 3.464-3.464h103.617v15h-62.618c-4.143 0-7.5 3.357-7.5 7.5 0 7.975-6.488 14.463-14.463 14.463-4.143 0-7.5 3.357-7.5 7.5v27.578c0 4.143 3.357 7.5 7.5 7.5s7.5-3.357 7.5-7.5v-21.044c10.229-2.695 18.301-10.767 20.996-20.996h56.085v2.891c0 17.993 14.639 32.632 32.633 32.632 8.347 0 15.968-3.153 21.745-8.327 5.58 10.01 16.27 16.799 28.521 16.799 12.25 0 22.941-6.789 28.52-16.799 5.777 5.173 13.398 8.327 21.745 8.327 12.782 0 23.865-7.391 29.217-18.12 5.687 4.813 13.032 7.724 21.048 7.724 15.41 0 28.351-10.74 31.751-25.126h78.37c2.695 10.229 10.767 18.301 20.996 20.996v106.297c-10.229 2.695-18.301 10.767-20.996 20.996h-24.837c-4.143 0-7.5 3.357-7.5 7.5s3.357 7.5 7.5 7.5h31.37c4.143 0 7.5-3.357 7.5-7.5 0-7.975 6.488-14.463 14.463-14.463 4.143 0 7.5-3.357 7.5-7.5v-119.364c0-4.143-3.357-7.5-7.5-7.5-7.975 0-14.463-6.488-14.463-14.463 0-4.143-3.357-7.5-7.5-7.5h-84.021v-15h60.263c4.143 0 7.5-3.357 7.5-7.5s-3.357-7.5-7.5-7.5h-61.658c-3.368-9.537-12.466-16.391-23.141-16.391h-16.197c-6.612 0-12.617 2.634-17.033 6.902-4.416-4.268-10.422-6.902-17.034-6.902h-16.197c-6.612 0-12.618 2.634-17.034 6.902-4.417-4.268-10.422-6.902-17.035-6.902h-16.196c-6.612 0-12.618 2.634-17.034 6.902-4.417-4.268-10.422-6.902-17.034-6.902h-16.197c-10.674 0-19.773 6.854-23.139 16.391h-105.013c-10.181 0-18.464 8.283-18.464 18.464v201.36c0 10.181 8.283 18.464 18.464 18.464h64.884v55.629c0 16 6.23 31.042 17.543 42.355l32.115 32.114v118.761c0 4.143 3.357 7.5 7.5 7.5s7.5-3.357 7.5-7.5v-121.867c0-1.989-.79-3.896-2.196-5.304l-34.312-34.312c-8.48-8.479-13.15-19.755-13.15-31.748v-132.443c0-11.837 9.63-21.467 21.467-21.467s21.468 9.63 21.468 21.467v69.315c0 4.143 3.357 7.5 7.5 7.5 33.717 0 61.147 27.431 61.147 61.147v4.805c0 4.143 3.357 7.5 7.5 7.5s7.5-3.357 7.5-7.5v-4.805c0-25.027-12.145-47.26-30.841-61.148h157.242v3.875c0 13.316-4.101 26.077-11.858 36.9l-21.588 30.12c-.913 1.273-1.404 2.802-1.404 4.369v173.595c0 4.143 3.357 7.5 7.5 7.5s7.5-3.357 7.5-7.5v-171.183l20.184-28.161c9.596-13.387 14.667-29.168 14.667-45.639v-3.875h96.83c10.182 0 18.465-8.283 18.465-18.464v-201.361c-.001-10.18-8.284-18.463-18.466-18.463zm-165.751-1.391h16.197c5.257 0 9.534 4.277 9.534 9.534v29.35c0 9.723-7.91 17.633-17.633 17.633s-17.632-7.91-17.632-17.633v-29.35c.001-5.257 4.277-9.534 9.534-9.534zm-50.264 0h16.197c5.257 0 9.534 4.277 9.534 9.534v39.747c0 9.723-7.91 17.632-17.633 17.632s-17.633-7.909-17.633-17.632v-39.747c0-5.257 4.278-9.534 9.535-9.534zm-50.265 0h16.196c5.257 0 9.534 4.277 9.534 9.534v48.22c0 9.723-7.909 17.632-17.632 17.632h-.001c-9.723 0-17.632-7.909-17.632-17.632v-48.22c.001-5.257 4.278-9.534 9.535-9.534zm-59.8 9.534c0-5.257 4.277-9.534 9.534-9.534h16.197c5.257 0 9.534 4.277 9.534 9.534v39.747c0 9.723-7.91 17.632-17.633 17.632s-17.633-7.909-17.633-17.632v-39.747z"/><path d="m198.939 114.432c-4.084-.63-7.923 2.179-8.553 6.273-.511 3.325-.771 6.724-.771 10.101 0 36.373 29.592 65.965 65.965 65.965s65.965-29.592 65.965-65.965c0-6.168-.869-12.313-2.583-18.268-1.146-3.982-5.311-6.283-9.281-5.133-3.98 1.146-6.279 5.301-5.133 9.281 1.325 4.605 1.997 9.355 1.997 14.119 0 28.103-22.862 50.965-50.965 50.965s-50.965-22.862-50.965-50.965c0-2.616.2-5.247.597-7.821.631-4.093-2.178-7.922-6.273-8.552z"/></g></g></svg>