<svg xmlns="http://www.w3.org/2000/svg" viewBox="0 0 800.91 800.91"><defs><style>.cls-1{fill:#fff}.cls-2{fill:#b4dd7f}.cls-3{fill:#e6e9ed}.cls-4{fill:#fcd770}.cls-5{fill:#b27946}.cls-6{fill:#018577}.cls-7{fill:#017564}.cls-8{fill:#d3a06c}.cls-9{fill:#ccd1d9}.cls-10{fill:#aab2bd}.cls-11{fill:#f0d0b4}</style></defs><title>administrasi_umum_card</title><g id="Layer_2" data-name="Layer 2"><g id="Layer_1-2" data-name="Layer 1"><circle cx="400.46" cy="400.46" r="400.46" class="cls-1"/><path d="M384.46,224.46v-48a16,16,0,0,1,16-16h192a16,16,0,0,1,16,16v48Z" class="cls-2"/><path d="M608.46,224.46v80a16,16,0,0,1-16,16h-120v20.7a11.31,11.31,0,0,1-19.3,8l-28.7-28.7h-24a16,16,0,0,1-16-16v-80Z" class="cls-3"/><path d="M416.46,256.46h48v32h-48Z" class="cls-4"/><path d="M245,192.46h75.5a32,32,0,0,1,0,64h-41.4a23,23,0,0,1-16-6.6l-5.7-9.6-1,.2h-8a23.94,23.94,0,0,0-24,24v8l-4.7,4.7a38.63,38.63,0,0,0,0,54.6l4.8,4.7v24a84.51,84.51,0,0,1-64-82V277A84.46,84.46,0,0,1,245,192.46Z" class="cls-5"/><path d="M256.46,424.46l24,32,20.3-60.9,3.2.8a62.13,62.13,0,0,1,26,13.4,32,32,0,0,0-9.5,22.7v96a32,32,0,0,0,32,32h16v48h-41.4a23.61,23.61,0,0,0,1.4-8,24.3,24.3,0,0,0-7-17,23.54,23.54,0,0,0-17-7v-7a17,17,0,0,0-29-12l-11,11h-1.4a54.61,54.61,0,0,1-54.2-48.1l-.4.1h-47.8c-.1-1.8-.2-3.5-.2-5.3v-56.7a64,64,0,0,1,48.5-62.1l3.2-.8,20.3,60.9Z" class="cls-6"/><path d="M300.76,395.56l-20.3,60.9-24-32,32-32Z" class="cls-7"/><path d="M256.46,424.46l-24,32-20.3-60.9,12.3-3.1Z" class="cls-7"/><path d="M640.46,640.46h-400a32.39,32.39,0,0,1,5.9-18.6,43.46,43.46,0,0,1,3.4-4.1,31.9,31.9,0,0,1,22.6-9.4h336.1a32.12,32.12,0,0,1,32,32.1Z" class="cls-8"/><path d="M560.46,432.46v96a32,32,0,0,1-32,32h-48v-16a16,16,0,0,0-16-16h-48a16,16,0,0,0-16,16v16h-48a32,32,0,0,1-32-32v-96a32.09,32.09,0,0,1,32-32h176A32,32,0,0,1,560.46,432.46Z" class="cls-9"/><path d="M480.46,560.46v48h-80v-64a16,16,0,0,1,16-16h48a16,16,0,0,1,16,16Z" class="cls-10"/><path d="M328.46,600.46a23.61,23.61,0,0,1-1.4,8h-54.6a31.9,31.9,0,0,0-22.6,9.4,26.44,26.44,0,0,0-3.4,4.1,109.92,109.92,0,0,1-54-29.5,108.74,108.74,0,0,1-31.8-72h47.8l.4-.1a54.61,54.61,0,0,0,54.2,48.1h1.4l11-11a17,17,0,0,1,29,12v7a24.3,24.3,0,0,1,17,7,23.71,23.71,0,0,1,7,17Z" class="cls-11"/><path d="M279.06,256.46h41.4a32.16,32.16,0,0,0,16-4.3v68.3a48.16,48.16,0,0,1-9.6,28.8,46.62,46.62,0,0,1-17,14.2,47.74,47.74,0,0,1-21.4,5v24l-32,32-32-32v-56l-4.7-4.7a38.63,38.63,0,0,1,0-54.6l4.7-4.7v-8a23.94,23.94,0,0,1,24-24h8l1-.2,5.7,9.6A22.61,22.61,0,0,0,279.06,256.46Z" class="cls-11"/><circle cx="264.46" cy="288.46" r="8"/><circle cx="312.46" cy="288.46" r="8"/><path d="M304.46,318.56a17.88,17.88,0,0,1-32,0l-.8-1.7-14.3,7.2.8,1.7a33.9,33.9,0,0,0,60.6,0l.8-1.7-14.3-7.2Z"/><path d="M608.46,600.46h-120v-32h40a40,40,0,0,0,40-40v-96a40,40,0,0,0-40-40h-176a39.69,39.69,0,0,0-22.7,7.1,74.33,74.33,0,0,0-23.9-11l-9.5-2.4v-10.4a56.15,56.15,0,0,0,36.8-21.8,55.44,55.44,0,0,0,11.3-33.5v-64.2a39.87,39.87,0,0,0-24-71.8H245a92.61,92.61,0,0,0-92.5,92.5v1.5a92.15,92.15,0,0,0,64,87.9v19.8l-9.5,2.4a72,72,0,0,0-54.5,69.9v56.8a117,117,0,0,0,82.4,111.9,41.78,41.78,0,0,0-2.4,13.3v8h416v-8A40,40,0,0,0,608.46,600.46Zm-200,0v-56a8,8,0,0,1,8-8h48a8,8,0,0,1,8,8v56Zm-16-32v32h-16v-32Zm-40-160h176a24.07,24.07,0,0,1,24,24v96a24.07,24.07,0,0,1-24,24h-40v-8a24.07,24.07,0,0,0-24-24h-48a24.07,24.07,0,0,0-24,24v8h-40a24.07,24.07,0,0,1-24-24v-96A24.07,24.07,0,0,1,352.46,408.46Zm-62.3-6.4-12.5,37.4L267,425.26Zm38.3-81.6a40,40,0,0,1-40,40h-14.1a20.6,20.6,0,0,1-18.7-11.6l-14.3,7.2a36.75,36.75,0,0,0,33,20.4h6.1v12.7l-24,24-24-24v-56l-7-7a30.66,30.66,0,0,1,0-43.4l7-7v-11.3a16,16,0,0,1,16-16h3.9a30.49,30.49,0,0,0,26.7,16h41.4a42.55,42.55,0,0,0,8-.8Zm-82.6,104.8-10.6,14.2-12.4-37.4Zm-77.4-146.8V277a76.56,76.56,0,0,1,76.5-76.5h75.5a24,24,0,0,1,0,48h-41.4a14.62,14.62,0,0,1-14.6-14.6,14.2,14.2,0,0,1,4.3-10.3l1.4-1.4-11.3-11.3-1.4,1.4a30.42,30.42,0,0,0-8.8,20.3h-.2a32.09,32.09,0,0,0-32,32v4.7l-2.3,2.3a46.59,46.59,0,0,0,0,66l2.3,2.3v9.6A76.35,76.35,0,0,1,168.46,278.46Zm38.6,127,22.6,68,26.8-35.7,26.8,35.7,22.7-68.2a56.88,56.88,0,0,1,12.7,6,39.49,39.49,0,0,0-6.2,21.1v96a40,40,0,0,0,40,40h8v32h-24a32.08,32.08,0,0,0-24-31h0a25,25,0,0,0-25-25,25.49,25.49,0,0,0-17.7,7.3l-8.6,8.6a46.94,46.94,0,0,1-31.1-13.6,46.37,46.37,0,0,1-13.7-33v-65.2h-15.9v64h-32v-54a55.69,55.69,0,0,1,38.6-53Zm-8.9,181.3a100.42,100.42,0,0,1-28.7-58.3h32.8a62.87,62.87,0,0,0,16.6,29.7,62.16,62.16,0,0,0,44.3,18.3h4.7l13.4-13.4a9,9,0,0,1,15.3,6.4v15h8a16,16,0,0,1,16,16h-48a39.63,39.63,0,0,0-28.9,12.5A99.88,99.88,0,0,1,198.16,586.76Zm51.7,45.7a24,24,0,0,1,22.6-16h336a24,24,0,0,1,22.6,16Z"/><path d="M408.46,184.46h16v16h-16Z"/><path d="M440.46,184.46h16v16h-16Z"/><path d="M472.46,184.46h16v16h-16Z"/><path d="M408.46,296.46h64v-48h-64Zm16-32h32v16h-32Z"/><path d="M488.46,248.46h16v16h-16Z"/><path d="M520.46,248.46h64v16h-64Z"/><path d="M488.46,280.46h96v16h-96Z"/><path d="M400.46,328.46h20.7l26.3,26.3a19.3,19.3,0,0,0,33-13.6v-12.7h112a24.07,24.07,0,0,0,24-24v-128a24.07,24.07,0,0,0-24-24h-192a24.07,24.07,0,0,0-24,24v128A24.07,24.07,0,0,0,400.46,328.46Zm192-16h-128v28.7c0,2.7-3.7,4.2-5.7,2.3l-31-31h-27.3a8,8,0,0,1-8-8v-72h208v72A8,8,0,0,1,592.46,312.46Zm-192-144h192a8,8,0,0,1,8,8v40h-208v-40A8,8,0,0,1,400.46,168.46Z"/><path d="M248.46,488.46h16v16h-16Z"/><path d="M248.46,456.46h16v16h-16Z"/><path d="M248.46,520.46h16v16h-16Z"/></g></g></svg>