<?xml version="1.0" encoding="iso-8859-1"?>
<!-- Generator: Adobe Illustrator 19.0.0, SVG Export Plug-In . SVG Version: 6.00 Build 0)  -->
<svg version="1.1" id="Capa_1" xmlns="http://www.w3.org/2000/svg" xmlns:xlink="http://www.w3.org/1999/xlink" x="0px" y="0px"
	 viewBox="0 0 512 512" style="enable-background:new 0 0 512 512;" xml:space="preserve">
<path style="fill:#FFECA1;" d="M279.297,83.7V26.914c0-10.722,8.692-19.414,19.414-19.414h87.363
	c10.722,0,19.414,8.692,19.414,19.414V83.7c0,10.722-8.692,19.414-19.414,19.414h-87.363
	C287.989,103.114,279.297,94.422,279.297,83.7z M386.074,408.886h-87.363c-10.722,0-19.414,8.692-19.414,19.414v56.786
	c0,10.722,8.692,19.414,19.414,19.414h87.363c10.722,0,19.414-8.692,19.414-19.414V428.3
	C405.488,417.578,396.796,408.886,386.074,408.886z M485.086,208.193h-87.363c-10.722,0-19.414,8.692-19.414,19.414v56.786
	c0,10.722,8.692,19.414,19.414,19.414h87.363c10.722,0,19.414-8.692,19.414-19.414v-56.786
	C504.5,216.885,495.808,208.193,485.086,208.193z"/>
<path style="fill:#FFD178;" d="M405.488,26.914V83.7c0,10.722-8.692,19.414-19.414,19.414h-3.665
	c2.303-3.84,3.665-8.552,3.665-13.649V21.149c0-5.097-1.361-9.809-3.664-13.649h3.664C396.796,7.5,405.488,16.192,405.488,26.914z
	 M485.086,208.193h-3.664c2.303,3.84,3.664,8.552,3.664,13.649v68.316c0,5.097-1.361,9.809-3.665,13.649h3.665
	c10.722,0,19.414-8.692,19.414-19.414v-56.786C504.5,216.885,495.808,208.193,485.086,208.193z M386.074,408.886h-3.664
	c2.303,3.84,3.664,8.552,3.664,13.649v68.316c0,5.097-1.361,9.809-3.665,13.649h3.665c10.722,0,19.414-8.692,19.414-19.414V428.3
	C405.488,417.578,396.796,408.886,386.074,408.886z"/>
<path style="fill:#FFB05F;" d="M27.5,173.976h202.676c11.046,0,20,8.954,20,20v124.049c0,11.046-8.954,20-20,20H27.5
	c-11.046,0-20-8.954-20-20V193.976C7.5,182.93,16.454,173.976,27.5,173.976z"/>
<path style="fill:#FF904E;" d="M250.176,193.39v125.22c0,10.722-8.692,19.414-19.414,19.414h-24.271
	c10.722,0,19.414-8.692,19.414-19.414V193.39c0-10.722-8.692-19.414-19.414-19.414h24.271
	C241.484,173.976,250.176,182.667,250.176,193.39z"/>
<path d="M63.096,226.879c0-4.143,3.358-7.5,7.5-7.5H187.08c4.142,0,7.5,3.357,7.5,7.5s-3.358,7.5-7.5,7.5H70.596
	C66.454,234.379,63.096,231.021,63.096,226.879z M172.843,330.524H26.914C20.345,330.524,15,325.18,15,318.61V193.39
	c0-6.569,5.345-11.914,11.914-11.914h19.415c4.142,0,7.5-3.357,7.5-7.5s-3.358-7.5-7.5-7.5H26.914
	C12.074,166.476,0,178.549,0,193.39v125.22c0,14.841,12.074,26.914,26.914,26.914h145.929c4.142,0,7.5-3.357,7.5-7.5
	S176.985,330.524,172.843,330.524z M367.146,47.808h-0.971c-4.142,0-7.5,3.357-7.5,7.5s3.358,7.5,7.5,7.5h0.971
	c4.142,0,7.5-3.357,7.5-7.5S371.288,47.808,367.146,47.808z M343.363,47.808h-0.971c-4.142,0-7.5,3.357-7.5,7.5s3.358,7.5,7.5,7.5
	h0.971c4.142,0,7.5-3.357,7.5-7.5S347.505,47.808,343.363,47.808z M152.135,292.621c4.142,0,7.5-3.357,7.5-7.5s-3.358-7.5-7.5-7.5
	H70.596c-4.142,0-7.5,3.357-7.5,7.5s3.358,7.5,7.5,7.5H152.135z M318.61,47.808h-0.971c-4.142,0-7.5,3.357-7.5,7.5
	s3.358,7.5,7.5,7.5h0.971c4.142,0,7.5-3.357,7.5-7.5S322.752,47.808,318.61,47.808z M187.08,248.5H70.596
	c-4.142,0-7.5,3.357-7.5,7.5s3.358,7.5,7.5,7.5H187.08c4.142,0,7.5-3.357,7.5-7.5S191.222,248.5,187.08,248.5z M342.393,464.192
	h0.971c4.142,0,7.5-3.357,7.5-7.5s-3.358-7.5-7.5-7.5h-0.971c-4.142,0-7.5,3.357-7.5,7.5S338.25,464.192,342.393,464.192z
	 M466.157,248.5h-0.971c-4.142,0-7.5,3.357-7.5,7.5s3.358,7.5,7.5,7.5h0.971c4.142,0,7.5-3.357,7.5-7.5S470.299,248.5,466.157,248.5
	z M442.375,248.5h-0.971c-4.142,0-7.5,3.357-7.5,7.5s3.358,7.5,7.5,7.5h0.971c4.142,0,7.5-3.357,7.5-7.5
	S446.517,248.5,442.375,248.5z M512,228.193v55.614c0,15.163-12.336,27.5-27.5,27.5h-86.191c-15.164,0-27.5-12.337-27.5-27.5V263.5
	H257.676v29.652h26.472c36.25,0,65.742,29.492,65.742,65.742v42.491h35.599c15.164,0,27.5,12.337,27.5,27.5V484.5
	c0,15.163-12.336,27.5-27.5,27.5h-86.191c-15.164,0-27.5-12.337-27.5-27.5v-55.614c0-15.163,12.336-27.5,27.5-27.5h35.593v-42.491
	c0-27.979-22.763-50.742-50.742-50.742h-26.472v10.458c0,14.841-12.074,26.914-26.914,26.914h-29.768c-4.142,0-7.5-3.357-7.5-7.5
	s3.358-7.5,7.5-7.5h29.768c6.569,0,11.914-5.345,11.914-11.914V193.39c0-6.569-5.345-11.914-11.914-11.914H75.772
	c-4.142,0-7.5-3.357-7.5-7.5s3.358-7.5,7.5-7.5h154.989c14.84,0,26.914,12.073,26.914,26.914v10.458h26.472
	c27.979,0,50.742-22.763,50.742-50.742v-42.491h-35.593c-15.164,0-27.5-12.337-27.5-27.5V27.5c0-15.163,12.336-27.5,27.5-27.5
	h86.191c15.164,0,27.5,12.337,27.5,27.5v55.614c0,15.163-12.336,27.5-27.5,27.5H349.89v42.491c0,36.25-29.492,65.742-65.742,65.742
	h-26.472V248.5h113.133v-20.307c0-15.163,12.336-27.5,27.5-27.5H484.5C499.664,200.693,512,213.03,512,228.193z M385.488,95.614
	c6.893,0,12.5-5.607,12.5-12.5V27.5c0-6.893-5.607-12.5-12.5-12.5h-86.191c-6.893,0-12.5,5.607-12.5,12.5v55.614
	c0,6.893,5.607,12.5,12.5,12.5H385.488z M299.297,416.386c-6.893,0-12.5,5.607-12.5,12.5V484.5c0,6.893,5.607,12.5,12.5,12.5h86.191
	c6.893,0,12.5-5.607,12.5-12.5v-55.614c0-6.893-5.607-12.5-12.5-12.5H299.297z M497,228.193c0-6.893-5.607-12.5-12.5-12.5h-86.191
	c-6.893,0-12.5,5.607-12.5,12.5v55.614c0,6.893,5.607,12.5,12.5,12.5H484.5c6.893,0,12.5-5.607,12.5-12.5V228.193z M366.175,464.192
	h0.971c4.142,0,7.5-3.357,7.5-7.5s-3.358-7.5-7.5-7.5h-0.971c-4.142,0-7.5,3.357-7.5,7.5S362.033,464.192,366.175,464.192z
	 M417.622,248.5h-0.971c-4.142,0-7.5,3.357-7.5,7.5s3.358,7.5,7.5,7.5h0.971c4.142,0,7.5-3.357,7.5-7.5S421.764,248.5,417.622,248.5
	z M317.64,464.192h0.971c4.142,0,7.5-3.357,7.5-7.5s-3.358-7.5-7.5-7.5h-0.971c-4.142,0-7.5,3.357-7.5,7.5
	S313.498,464.192,317.64,464.192z"/>
<g>
</g>
<g>
</g>
<g>
</g>
<g>
</g>
<g>
</g>
<g>
</g>
<g>
</g>
<g>
</g>
<g>
</g>
<g>
</g>
<g>
</g>
<g>
</g>
<g>
</g>
<g>
</g>
<g>
</g>
</svg>
