<svg id="Capa_1" enable-background="new 0 0 511.877 511.877" height="512" viewBox="0 0 511.877 511.877" width="512" xmlns="http://www.w3.org/2000/svg"><g><g><g><path d="m374.959 504.377h-238.041c-13.226 0-23.948-10.722-23.948-23.948v-448.981c0-13.226 10.722-23.948 23.948-23.948h238.041c13.226 0 23.948 10.722 23.948 23.948v448.98c0 13.227-10.722 23.949-23.948 23.949z" fill="#dff6fd"/></g><g><path d="m398.907 31.448v448.98c0 13.23-10.72 23.95-23.95 23.95h-21.67c13.23 0 23.95-10.72 23.95-23.95v-448.98c0-13.23-10.72-23.95-23.95-23.95h21.67c13.23.001 23.95 10.721 23.95 23.95z" fill="#c8effe"/></g><g><path d="m374.959 504.377h-238.041c-13.226 0-23.948-10.722-23.948-23.948v-41.49h285.938v41.49c-.001 13.226-10.723 23.948-23.949 23.948z" fill="#596c76"/></g><g><path d="m374.959 7.5h-238.041c-13.226 0-23.948 10.722-23.948 23.948v41.49h285.938v-41.49c-.001-13.226-10.723-23.948-23.949-23.948z" fill="#596c76"/></g><g><path d="m398.909 438.938v41.49c0 13.23-10.72 23.95-23.95 23.95h-21.02c13.23 0 23.95-10.72 23.95-23.95v-41.49z" fill="#465a61"/></g><g><path d="m398.909 31.448v41.49h-21.02v-41.49c0-13.23-10.72-23.95-23.95-23.95h21.02c13.229.001 23.95 10.721 23.95 23.95z" fill="#465a61"/></g><g><path d="" style="fill:none;stroke:#000;stroke-width:15;stroke-linecap:round;stroke-linejoin:round;stroke-miterlimit:10"/></g></g><g><g><path d="m299.359 225.075h-86.842c-7.227 0-13.086-5.859-13.086-13.086v-9.841c0-31.208 25.299-56.507 56.507-56.507 31.208 0 56.507 25.299 56.507 56.507v9.841c.001 7.227-5.858 13.086-13.086 13.086z" fill="#97d729"/></g><g><path d="m312.448 202.152v9.84c0 7.22-5.86 13.08-13.09 13.08h-20.22c7.23 0 13.09-5.86 13.09-13.08v-9.84c0-15.61-6.33-29.73-16.55-39.96-7.97-7.97-18.3-13.56-29.85-15.65 3.28-.59 6.66-.9 10.11-.9 15.6 0 29.73 6.32 39.96 16.55 10.22 10.23 16.55 24.35 16.55 39.96z" fill="#8bc727"/></g><g><path d="m300.922 324.182h-89.967c-6.364 0-11.524-5.159-11.524-11.524v-52.697c0-6.364 5.159-11.524 11.524-11.524h89.967c6.364 0 11.524 5.159 11.524 11.524v52.697c0 6.364-5.16 11.524-11.524 11.524z" fill="#97d729"/></g><g><path d="m291.938 248.436h8.98c6.37 0 11.53 5.16 11.53 11.52v52.698c0 6.37-5.16 11.53-11.53 11.53h-8.98z" fill="#8bc727"/></g><g><path d="m228.07 374.642c-7.561 0-13.69-6.129-13.69-13.69v-36.77h27.381v36.77c-.001 7.561-6.13 13.69-13.691 13.69z" fill="#97d729"/></g><g><path d="m283.807 374.642c-7.561 0-13.69-6.129-13.69-13.69v-36.77h27.381v36.77c-.001 7.561-6.13 13.69-13.691 13.69z" fill="#97d729"/></g><g><path d="m241.758 324.184v36.77c0 7.56-6.13 13.69-13.69 13.69-2.36 0-4.58-.6-6.52-1.65 4.27-2.32 7.17-6.84 7.17-12.04v-36.77z" fill="#8bc727"/></g><g><path d="m297.498 324.184v36.77c0 7.56-6.13 13.69-13.69 13.69-2.36 0-4.58-.6-6.52-1.65 4.27-2.32 7.16-6.84 7.16-12.04v-36.77z" fill="#8bc727"/></g><g><g><g><path d="m351.231 303.927c-7.561 0-13.69-6.129-13.69-13.69v-28.107c0-7.561 6.129-13.69 13.69-13.69 7.561 0 13.69 6.129 13.69 13.69v28.106c.001 7.561-6.129 13.691-13.69 13.691z" fill="#97d729"/></g><g><path d="m160.646 303.927c-7.561 0-13.69-6.129-13.69-13.69v-28.107c0-7.561 6.129-13.69 13.69-13.69 7.561 0 13.69 6.129 13.69 13.69v28.106c0 7.561-6.129 13.691-13.69 13.691z" fill="#97d729"/></g></g><g><g><path d="m364.919 262.127v28.11c0 7.56-6.13 13.69-13.69 13.69-2.59 0-5.01-.72-7.08-1.97 3.96-2.41 6.6-6.75 6.6-11.72v-28.11c0-3.78-1.53-7.2-4.01-9.68-.78-.78-1.65-1.46-2.59-2.04 2.07-1.25 4.49-1.97 7.08-1.97 3.78 0 7.2 1.53 9.68 4.01 2.479 2.48 4.01 5.9 4.01 9.68z" fill="#8bc727"/></g><g><path d="m174.339 262.127v28.11c0 7.56-6.13 13.69-13.69 13.69-2.59 0-5.02-.72-7.09-1.97 3.96-2.41 6.6-6.75 6.6-11.72v-28.11c0-3.78-1.53-7.2-4.01-9.68-.78-.78-1.65-1.46-2.59-2.04 2.07-1.25 4.5-1.97 7.09-1.97 3.78 0 7.2 1.53 9.68 4.01s4.01 5.9 4.01 9.68z" fill="#8bc727"/></g></g></g></g><g><path d="m212.518 232.575h86.842c11.352 0 20.586-9.235 20.586-20.586v-9.841c0-22.696-11.884-42.655-29.745-54.023l3.953-7.333c1.966-3.646.604-8.195-3.042-10.161s-8.196-.605-10.161 3.042l-4.277 7.934c-6.508-2.235-13.478-3.466-20.735-3.466s-14.227 1.231-20.735 3.466l-4.277-7.934c-1.966-3.646-6.515-5.008-10.161-3.042-3.646 1.965-5.008 6.515-3.042 10.161l3.953 7.333c-17.862 11.368-29.745 31.328-29.745 54.023v9.841c-.001 11.351 9.234 20.586 20.586 20.586zm-5.587-30.427c0-27.022 21.984-49.007 49.007-49.007s49.007 21.984 49.007 49.007v9.841c0 3.081-2.506 5.586-5.586 5.586h-86.842c-3.081 0-5.586-2.506-5.586-5.586z"/><path d="m234.269 202.78c4.142 0 7.5-3.358 7.5-7.5v-7.205c0-4.142-3.358-7.5-7.5-7.5s-7.5 3.358-7.5 7.5v7.205c0 4.142 3.358 7.5 7.5 7.5z"/><path d="m277.608 202.78c4.142 0 7.5-3.358 7.5-7.5v-7.205c0-4.142-3.358-7.5-7.5-7.5s-7.5 3.358-7.5 7.5v7.205c0 4.142 3.358 7.5 7.5 7.5z"/><path d="m206.879 331.231v29.721c0 11.685 9.506 21.19 21.19 21.19s21.19-9.506 21.19-21.19v-29.271h13.356v29.271c0 11.685 9.506 21.19 21.19 21.19s21.19-9.506 21.19-21.19v-29.721c8.536-1.873 14.948-9.483 14.948-18.573v-2.219c0-4.142-3.358-7.5-7.5-7.5s-7.5 3.358-7.5 7.5v2.219c0 2.219-1.805 4.024-4.024 4.024h-3.424-83.118-3.424c-2.219 0-4.024-1.805-4.024-4.024v-52.697c0-2.219 1.805-4.024 4.024-4.024h89.967c2.219 0 4.024 1.805 4.024 4.024v15.478c0 4.142 3.358 7.5 7.5 7.5s7.5-3.358 7.5-7.5v-15.478c0-10.49-8.534-19.024-19.024-19.024h-89.967c-10.49 0-19.024 8.534-19.024 19.024v52.697c.002 9.09 6.414 16.7 14.95 18.573zm70.738.451h12.381v29.271c0 3.414-2.777 6.19-6.19 6.19s-6.19-2.777-6.19-6.19v-29.271zm-55.738 0h12.381v29.271c0 3.414-2.777 6.19-6.19 6.19s-6.19-2.777-6.19-6.19v-29.271z"/><path d="m330.041 290.236c0 11.685 9.506 21.19 21.19 21.19s21.19-9.506 21.19-21.19v-28.106c0-11.685-9.506-21.19-21.19-21.19s-21.19 9.506-21.19 21.19zm15-28.106c0-3.414 2.777-6.19 6.19-6.19s6.19 2.777 6.19 6.19v28.106c0 3.414-2.777 6.19-6.19 6.19s-6.19-2.777-6.19-6.19z"/><path d="m160.646 311.427c11.685 0 21.19-9.506 21.19-21.19v-28.107c0-11.685-9.506-21.19-21.19-21.19s-21.19 9.506-21.19 21.19v28.106c-.001 11.685 9.505 21.191 21.19 21.191zm-6.191-49.297c0-3.414 2.777-6.19 6.19-6.19s6.19 2.777 6.19 6.19v28.106c0 3.414-2.777 6.19-6.19 6.19s-6.19-2.777-6.19-6.19z"/><path d="m374.959 0h-172.854c-4.142 0-7.5 3.358-7.5 7.5s3.358 7.5 7.5 7.5h172.854c9.069 0 16.448 7.378 16.448 16.448v33.99h-270.937v-33.99c0-9.07 7.379-16.448 16.448-16.448h30.521c4.142 0 7.5-3.358 7.5-7.5s-3.358-7.5-7.5-7.5h-30.521c-17.341 0-31.448 14.107-31.448 31.448v448.98c0 17.341 14.107 31.448 31.448 31.448h238.041c17.341 0 31.448-14.107 31.448-31.448v-448.98c0-17.341-14.107-31.448-31.448-31.448zm16.448 480.429c0 9.07-7.379 16.448-16.448 16.448h-238.041c-9.069 0-16.448-7.378-16.448-16.448v-33.99h270.938v33.99zm0-48.991h-270.937v-351h270.938v351z"/><path d="m243.85 479.158h24.178c4.142 0 7.5-3.358 7.5-7.5s-3.358-7.5-7.5-7.5h-24.178c-4.142 0-7.5 3.358-7.5 7.5s3.358 7.5 7.5 7.5z"/><circle cx="224.324" cy="40.219" r="9.945"/><path d="m297.498 47.719c4.142 0 7.5-3.358 7.5-7.5s-3.358-7.5-7.5-7.5h-41.559c-4.142 0-7.5 3.358-7.5 7.5s3.358 7.5 7.5 7.5z"/><path d="m327.147 119.706c4.142 0 7.5-3.358 7.5-7.5v-4.583c0-4.142-3.358-7.5-7.5-7.5s-7.5 3.358-7.5 7.5v4.583c0 4.142 3.358 7.5 7.5 7.5z"/><path d="m350.165 119.706c4.142 0 7.5-3.358 7.5-7.5v-9.167c0-4.142-3.358-7.5-7.5-7.5s-7.5 3.358-7.5 7.5v9.167c0 4.142 3.358 7.5 7.5 7.5z"/><path d="m373.183 119.706c4.142 0 7.5-3.358 7.5-7.5v-13.75c0-4.142-3.358-7.5-7.5-7.5s-7.5 3.358-7.5 7.5v13.75c0 4.142 3.358 7.5 7.5 7.5z"/></g></g></svg>