<svg xmlns="http://www.w3.org/2000/svg" viewBox="0 0 648.66 648.66"><defs><style>.cls-1{fill:#fff;}.cls-2{fill:#dad8db;}.cls-3{fill:#c8c5c9;}.cls-4{fill:#bed8fb;}.cls-5{fill:#eceaec;}.cls-6{fill:#a3caf7;}.cls-7{fill:#434d59;}.cls-8{fill:#327a6d;}.cls-9{fill:#2c685d;}.cls-10{fill:#edc963;}.cls-11{fill:#e7b93e;}.cls-12{fill:#ad2e28;}.cls-13{fill:#d8ba3d;}.cls-14{fill:#0aa200;}</style></defs><title>fiturlain_webdesa</title><g id="Layer_2" data-name="Layer 2"><g id="Layer_1-2" data-name="Layer 1"><circle class="cls-1" cx="324.33" cy="324.33" r="324.33"/><path class="cls-2" d="M363.29,481.38H285.36L292.23,429h64.2Z"/><path class="cls-3" d="M358.13,442l-1.7-13h-64.2l-1.7,13Z"/><path class="cls-4" d="M481.42,429H167.24a21.61,21.61,0,0,1-21.62-21.61V188.89a21.62,21.62,0,0,1,21.62-21.62H481.42A21.62,21.62,0,0,1,503,188.89V407.42A21.61,21.61,0,0,1,481.42,429Z"/><path class="cls-5" d="M145.62,383.45v24A21.61,21.61,0,0,0,167.24,429H481.42A21.61,21.61,0,0,0,503,407.42v-24Z"/><path class="cls-6" d="M145.62,370.48H503v13H145.62Z"/><path class="cls-2" d="M481.42,416.06H167.24a21.61,21.61,0,0,1-21.62-21.61v13A21.61,21.61,0,0,0,167.24,429H481.42A21.61,21.61,0,0,0,503,407.42v-13A21.61,21.61,0,0,1,481.42,416.06Z"/><path class="cls-5" d="M182.34,244h284V383.45h-284Z"/><path class="cls-2" d="M182.34,370.48h284v13h-284Z"/><path class="cls-7" d="M455.51,201.21H193.15A10.81,10.81,0,0,0,182.34,212v32h284V212A10.81,10.81,0,0,0,455.51,201.21Z"/><path class="cls-8" d="M219.42,271.72h209.8V330H219.42Z"/><path class="cls-9" d="M219.42,317h209.8v13H219.42Z"/><path class="cls-10" d="M219.42,354h92v29.5h-92Z"/><path class="cls-10" d="M337.27,354h92v29.5h-92Z"/><path class="cls-11" d="M219.42,370.48h92v13h-92Z"/><path class="cls-11" d="M337.27,370.48h92v13h-92Z"/><path d="M481.73,161.55h-118a5.42,5.42,0,1,0,0,10.83h118A16.27,16.27,0,0,1,498,188.63V378.15H472V211.8a16.27,16.27,0,0,0-16.25-16.25H192.89a16.26,16.26,0,0,0-16.24,16.25V378.15h-26V188.62a16.27,16.27,0,0,1,16.25-16.24H342.06a5.42,5.42,0,1,0,0-10.83H166.93a27.11,27.11,0,0,0-27.08,27.07v219a27.1,27.1,0,0,0,27.08,27.07H286l-5.46,41.63H261.3a5.42,5.42,0,1,0,0,10.83H387.36a5.42,5.42,0,1,0,0-10.83H368.12l-5.46-41.63H420a5.42,5.42,0,1,0,0-10.83H166.93a16.26,16.26,0,0,1-16.25-16.24V389H498v18.6a16.26,16.26,0,0,1-16.24,16.24h-40a5.42,5.42,0,0,0,0,10.83h40a27.1,27.1,0,0,0,27.07-27.07v-219a27.1,27.1,0,0,0-27.07-27.07ZM357.2,476.28H291.46l5.46-41.63h54.82ZM187.48,211.8a5.42,5.42,0,0,1,5.41-5.42H455.77a5.42,5.42,0,0,1,5.41,5.42v26.65H187.48Zm0,37.48h273.7V378.15H434.85V354a5.42,5.42,0,0,0-5.41-5.42H337.29a5.42,5.42,0,0,0-5.41,5.42v24.14h-15.1V354a5.42,5.42,0,0,0-5.42-5.42H219.22A5.42,5.42,0,0,0,213.8,354v24.14H187.48ZM424,378.15H342.71V359.42H424Zm-118.07,0H224.63V359.42H306Z"/><path class="cls-12" d="M208.13,213.68a8.32,8.32,0,1,0,8.32,8.32A8.33,8.33,0,0,0,208.13,213.68Z"/><path class="cls-13" d="M234.82,213.68a8.32,8.32,0,1,0,8.32,8.32,8.32,8.32,0,0,0-8.32-8.32Z"/><path class="cls-14" d="M261.52,213.68a8.32,8.32,0,1,0,8.31,8.32,8.33,8.33,0,0,0-8.31-8.32Z"/><path d="M219.22,335.38h39.39a5.42,5.42,0,1,0,0-10.83h-34V277H424v47.52H280.27a5.42,5.42,0,0,0,0,10.83H429.43a5.42,5.42,0,0,0,5.41-5.42V271.62a5.42,5.42,0,0,0-5.41-5.42H219.22a5.42,5.42,0,0,0-5.42,5.42V330a5.42,5.42,0,0,0,5.42,5.42Z"/></g></g></svg>