<svg id="Capa_1" enable-background="new 0 0 256 256" height="512" viewBox="0 0 256 256" width="512" xmlns="http://www.w3.org/2000/svg"><g id="Layer_70"><g><g><g><path d="m36.5 43.25v185.18c0 2.938 2.382 5.32 5.32 5.32h172.36c2.938 0 5.32-2.382 5.32-5.32v-185.18z" fill="#edf4fc"/></g></g><g><g><path d="m95 43.25h-58.5v185.18c0 2.938 2.382 5.32 5.32 5.32h53.18z" fill="#70d6f9"/></g></g><g><g><path d="m214.181 236.25h-172.362c-4.312 0-7.819-3.508-7.819-7.819v-185.181c0-1.381 1.119-2.5 2.5-2.5s2.5 1.119 2.5 2.5v185.181c0 1.555 1.265 2.819 2.819 2.819h172.361c1.555 0 2.819-1.265 2.819-2.819v-185.181c0-1.381 1.119-2.5 2.5-2.5s2.5 1.119 2.5 2.5v185.181c.001 4.311-3.507 7.819-7.818 7.819z"/></g></g><g><g><path d="m195.931 119.5h-78.884c-1.329 0-2.406 1.077-2.406 2.406v12.688c0 1.329 1.077 2.406 2.406 2.406h78.884c1.329 0 2.406-1.077 2.406-2.406v-12.688c0-1.329-1.077-2.406-2.406-2.406z" fill="#70d6f9"/></g></g><g><g><path d="m195.931 173.5h-78.884c-1.329 0-2.406 1.077-2.406 2.406v12.688c0 1.329 1.077 2.406 2.406 2.406h78.884c1.329 0 2.406-1.077 2.406-2.406v-12.688c0-1.329-1.077-2.406-2.406-2.406z" fill="#87d147"/></g></g><g><g><path d="m208.31 66.73c0 1.01-1.442 1.78-1.738 2.692-.307.945.397 2.414-.176 3.2-.578.794-2.196.576-2.991 1.154-.786.572-1.076 2.182-2.021 2.489-.912.296-2.088-.826-3.098-.826s-2.186 1.122-3.098.826c-.945-.307-1.234-1.916-2.021-2.489-.794-.578-2.413-.36-2.991-1.154-.572-.786.131-2.255-.176-3.2-.296-.912-1.738-1.682-1.738-2.692s1.442-1.78 1.738-2.692c.307-.945-.397-2.414.176-3.2.578-.794 2.196-.576 2.991-1.154.786-.572 1.076-2.182 2.021-2.489.912-.296 2.088.826 3.098.826s2.186-1.122 3.098-.826c.945.307 1.234 1.916 2.021 2.489.794.578 2.413.36 2.991 1.154.572.786-.131 2.255.176 3.2.296.912 1.738 1.682 1.738 2.692z" fill="#fc657e"/></g></g><g><g><path d="m198.287 75.439c-1.01 0-2.187 1.123-3.098.826-.945-.307-1.234-1.916-2.021-2.489-.794-.578-2.413-.36-2.991-1.154-.573-.786.131-2.255-.176-3.2-.296-.912-1.739-1.682-1.739-2.692 0-.079.023-.154.039-.23h-71.255c-1.329 0-2.406 1.077-2.406 2.406v12.688c0 1.329 1.077 2.406 2.406 2.406h78.884c1.329 0 2.406-1.077 2.406-2.406v-6.149c-.016 0-.033-.006-.049-.006z" fill="#fcdd86"/></g></g><g><g><path d="m214.18 22.25h-172.36c-2.938 0-5.32 2.382-5.32 5.32v15.68h183v-15.68c0-2.938-2.382-5.32-5.32-5.32z" fill="#5290db"/></g></g><g><g><path d="m59 22.25h-17.18c-2.938 0-5.32 2.382-5.32 5.32v15.68h22.5z" fill="#fc657e"/></g></g><g><g><circle cx="233.384" cy="76.627" fill="#87d147" r="3.377"/></g></g><g><g><path d="m146.952 249.159c-3.464.645-6.194 3.319-6.852 6.713-.033.17-.271.17-.304 0-.659-3.393-3.388-6.068-6.852-6.713-.174-.032-.174-.265 0-.298 3.464-.645 6.194-3.32 6.852-6.713.033-.17.271-.17.304 0 .658 3.393 3.388 6.068 6.852 6.713.174.033.174.266 0 .298z" fill="#fc657e"/></g></g><g><g><path d="m120.089 9.242h-1.824v1.824c0 1.366-1.107 2.473-2.473 2.473s-2.473-1.107-2.473-2.473v-1.824h-1.824c-1.366 0-2.473-1.107-2.473-2.473s1.107-2.473 2.473-2.473h1.824v-1.823c0-1.366 1.107-2.473 2.473-2.473s2.473 1.107 2.473 2.473v1.824h1.824c1.366 0 2.473 1.107 2.473 2.473s-1.108 2.472-2.473 2.472z" fill="#f5c84c"/></g></g><g><g><circle cx="147" cy="8.373" fill="#70d6f9" r="3.377"/></g></g><g><g><path d="m219.5 45.75h-183c-1.381 0-2.5-1.119-2.5-2.5v-15.681c0-4.312 3.508-7.819 7.819-7.819h172.361c4.312 0 7.819 3.508 7.819 7.819v15.681c.001 1.381-1.118 2.5-2.499 2.5zm-180.5-5h178v-13.181c0-1.555-1.265-2.819-2.819-2.819h-172.362c-1.555 0-2.819 1.265-2.819 2.819z"/></g></g><g><g><path d="m184 35.25h-111c-1.381 0-2.5-1.119-2.5-2.5s1.119-2.5 2.5-2.5h111c1.381 0 2.5 1.119 2.5 2.5s-1.119 2.5-2.5 2.5z"/></g></g><g><g><path d="m207.788 35.25h-10.885c-1.381 0-2.5-1.119-2.5-2.5s1.119-2.5 2.5-2.5h10.885c1.381 0 2.5 1.119 2.5 2.5s-1.119 2.5-2.5 2.5z"/></g></g><g><g><path d="m59 45.142c-1.381 0-2.5-1.119-2.5-2.5v-19.6c0-1.381 1.119-2.5 2.5-2.5s2.5 1.119 2.5 2.5v19.6c0 1.38-1.119 2.5-2.5 2.5z"/></g></g><g><g><path d="m195.931 139.5h-78.884c-2.705 0-4.905-2.201-4.905-4.906v-12.688c0-2.705 2.2-4.906 4.905-4.906h78.884c2.705 0 4.906 2.201 4.906 4.906v12.688c0 2.705-2.201 4.906-4.906 4.906zm-78.789-5h78.695v-12.5h-78.695zm78.789-12.5h.01z"/></g></g><g><g><path d="m196.816 151.005h-80.654c-1.381 0-2.5-1.119-2.5-2.5s1.119-2.5 2.5-2.5h80.654c1.381 0 2.5 1.119 2.5 2.5s-1.119 2.5-2.5 2.5z"/></g></g><g><g><path d="m160.489 161.605h-44.327c-1.381 0-2.5-1.119-2.5-2.5s1.119-2.5 2.5-2.5h44.327c1.381 0 2.5 1.119 2.5 2.5s-1.119 2.5-2.5 2.5z"/></g></g><g><g><path d="m196.816 98.005h-80.654c-1.381 0-2.5-1.119-2.5-2.5s1.119-2.5 2.5-2.5h80.654c1.381 0 2.5 1.119 2.5 2.5s-1.119 2.5-2.5 2.5z"/></g></g><g><g><path d="m160.489 108.605h-44.327c-1.381 0-2.5-1.119-2.5-2.5s1.119-2.5 2.5-2.5h44.327c1.381 0 2.5 1.119 2.5 2.5s-1.119 2.5-2.5 2.5z"/></g></g><g><g><path d="m195.931 193.5h-78.884c-2.705 0-4.905-2.201-4.905-4.906v-12.688c0-2.705 2.2-4.906 4.905-4.906h78.884c2.705 0 4.906 2.201 4.906 4.906v12.688c0 2.705-2.201 4.906-4.906 4.906zm-78.789-5h78.695v-12.5h-78.695zm78.789-12.5h.01z"/></g></g><g><g><path d="m196.816 205.005h-80.654c-1.381 0-2.5-1.119-2.5-2.5s1.119-2.5 2.5-2.5h80.654c1.381 0 2.5 1.119 2.5 2.5s-1.119 2.5-2.5 2.5z"/></g></g><g><g><path d="m160.489 215.605h-44.327c-1.381 0-2.5-1.119-2.5-2.5s1.119-2.5 2.5-2.5h44.327c1.381 0 2.5 1.119 2.5 2.5s-1.119 2.5-2.5 2.5z"/></g></g><g><g><path d="m95 235.875c-1.381 0-2.5-1.119-2.5-2.5v-189.437c0-1.381 1.119-2.5 2.5-2.5s2.5 1.119 2.5 2.5v189.437c0 1.381-1.119 2.5-2.5 2.5z"/></g></g><g><g><path d="m82.328 66.143h-23.484c-1.381 0-2.5-1.119-2.5-2.5s1.119-2.5 2.5-2.5h23.484c1.381 0 2.5 1.119 2.5 2.5s-1.119 2.5-2.5 2.5z"/></g></g><g><g><path d="m82.328 84.538h-23.484c-1.381 0-2.5-1.119-2.5-2.5s1.119-2.5 2.5-2.5h23.484c1.381 0 2.5 1.119 2.5 2.5s-1.119 2.5-2.5 2.5z"/></g></g><g><g><path d="m82.328 102.935h-23.484c-1.381 0-2.5-1.119-2.5-2.5s1.119-2.5 2.5-2.5h23.484c1.381 0 2.5 1.119 2.5 2.5s-1.119 2.5-2.5 2.5z"/></g></g><g><g><path d="m82.328 121.331h-23.484c-1.381 0-2.5-1.119-2.5-2.5s1.119-2.5 2.5-2.5h23.484c1.381 0 2.5 1.119 2.5 2.5s-1.119 2.5-2.5 2.5z"/></g></g><g><g><path d="m82.328 139.728h-23.484c-1.381 0-2.5-1.119-2.5-2.5s1.119-2.5 2.5-2.5h23.484c1.381 0 2.5 1.119 2.5 2.5s-1.119 2.5-2.5 2.5z"/></g></g><g><g><path d="m49.818 66.143h-2.308c-1.381 0-2.5-1.119-2.5-2.5s1.119-2.5 2.5-2.5h2.309c1.381 0 2.5 1.119 2.5 2.5s-1.12 2.5-2.501 2.5z"/></g></g><g><g><path d="m49.818 84.538h-2.308c-1.381 0-2.5-1.119-2.5-2.5s1.119-2.5 2.5-2.5h2.309c1.381 0 2.5 1.119 2.5 2.5s-1.12 2.5-2.501 2.5z"/></g></g><g><g><path d="m49.818 102.935h-2.308c-1.381 0-2.5-1.119-2.5-2.5s1.119-2.5 2.5-2.5h2.309c1.381 0 2.5 1.119 2.5 2.5s-1.12 2.5-2.501 2.5z"/></g></g><g><g><path d="m49.818 121.331h-2.308c-1.381 0-2.5-1.119-2.5-2.5s1.119-2.5 2.5-2.5h2.309c1.381 0 2.5 1.119 2.5 2.5s-1.12 2.5-2.501 2.5z"/></g></g><g><g><path d="m49.818 139.728h-2.308c-1.381 0-2.5-1.119-2.5-2.5s1.119-2.5 2.5-2.5h2.309c1.381 0 2.5 1.119 2.5 2.5s-1.12 2.5-2.501 2.5z"/></g></g><g><g><path d="m195.517 78.817c-.35 0-.718-.05-1.1-.174-1.469-.477-2.146-1.696-2.593-2.504-.048-.087-.11-.198-.166-.294-.111-.025-.241-.051-.343-.07-.899-.177-2.259-.444-3.159-1.681-.896-1.233-.733-2.604-.625-3.51.012-.105.028-.241.039-.357-.071-.08-.154-.169-.219-.238-.595-.637-1.589-1.702-1.589-3.259 0-1.558.995-2.623 1.589-3.26.065-.069.147-.158.219-.237-.011-.117-.027-.253-.039-.358-.108-.906-.271-2.277.624-3.509.9-1.237 2.261-1.504 3.161-1.681.101-.021.23-.046.342-.07.056-.096.118-.207.166-.295.447-.807 1.123-2.025 2.591-2.503 1.438-.468 2.684.108 3.507.489.107.05.248.115.364.164.116-.049.258-.114.365-.164.824-.38 2.068-.957 3.505-.49 1.47.479 2.146 1.697 2.593 2.504.048.088.11.199.166.295.111.024.241.05.342.07.9.177 2.261.443 3.161 1.682.896 1.231.732 2.603.624 3.51-.013.105-.028.24-.039.356.07.079.153.167.218.236.595.637 1.59 1.703 1.59 3.261 0 1.557-.995 2.623-1.589 3.26-.065.069-.147.157-.219.237.011.116.026.251.039.355.108.907.272 2.278-.623 3.51-.902 1.238-2.262 1.506-3.161 1.683-.102.02-.231.045-.343.07-.056.096-.118.207-.166.294-.447.808-1.124 2.027-2.593 2.504-1.438.467-2.681-.108-3.504-.489-.108-.05-.249-.115-.366-.165-.116.05-.257.114-.364.164-.606.281-1.438.664-2.405.664zm2.769-5.878c.87 0 1.623.295 2.211.56.313-.554.74-1.235 1.437-1.743.702-.511 1.486-.709 2.113-.838-.07-.637-.121-1.442.146-2.268.271-.831.799-1.451 1.231-1.92-.433-.469-.961-1.089-1.23-1.919-.269-.826-.218-1.632-.147-2.27-.627-.128-1.41-.326-2.112-.837-.697-.508-1.125-1.189-1.438-1.744-.587.266-1.34.561-2.21.561s-1.622-.295-2.21-.56c-.313.554-.74 1.235-1.437 1.743-.703.511-1.486.709-2.114.838.07.637.121 1.443-.147 2.269-.269.829-.797 1.449-1.229 1.919.433.469.961 1.09 1.23 1.921.269.823.217 1.629.146 2.267.628.129 1.411.327 2.113.838.697.508 1.125 1.189 1.438 1.743.587-.265 1.339-.56 2.209-.56z"/></g></g><g><g><path d="m195.931 86.5h-78.884c-2.705 0-4.905-2.201-4.905-4.906v-12.688c0-2.705 2.2-4.906 4.905-4.906h71.048c1.381 0 2.5 1.119 2.5 2.5s-1.119 2.5-2.5 2.5h-70.953v12.5h78.695v-5.708c0-1.381 1.119-2.5 2.5-2.5s2.5 1.119 2.5 2.5v5.802c0 2.705-2.201 4.906-4.906 4.906z"/></g></g><g><g><path d="m29.332 178.883c-2.473-.46-4.421-2.37-4.891-4.792-.024-.122-.193-.122-.217 0-.47 2.422-2.419 4.331-4.892 4.792-.124.023-.124.189 0 .213 2.473.461 4.421 2.37 4.892 4.792.024.122.193.122.217 0 .47-2.422 2.419-4.331 4.891-4.792.124-.023.124-.19 0-.213z" fill="#f5c84c"/></g></g></g></g></svg>