<svg xmlns="http://www.w3.org/2000/svg" viewBox="0 0 648.66 648.66"><defs><style>.cls-1{fill:#fff;}.cls-2{fill:#dff6fd;}.cls-3{fill:#c8effe;}.cls-4{fill:#596c76;}.cls-5{fill:#465a61;}.cls-6{fill:#97d729;}.cls-7{fill:#8bc727;}</style></defs><title>fiturlain_androidapp</title><g id="Layer_2" data-name="Layer 2"><g id="Layer_1-2" data-name="Layer 1"><circle class="cls-1" cx="324.33" cy="324.33" r="324.33"/><path class="cls-2" d="M419.93,523.88H228.73a19.25,19.25,0,0,1-19.24-19.24V144a19.24,19.24,0,0,1,19.24-19.24h191.2A19.23,19.23,0,0,1,439.16,144V504.64a19.24,19.24,0,0,1-19.23,19.24Z"/><path class="cls-3" d="M439.16,144V504.64a19.23,19.23,0,0,1-19.23,19.24H402.52a19.23,19.23,0,0,0,19.24-19.24V144a19.23,19.23,0,0,0-19.24-19.24h17.41A19.23,19.23,0,0,1,439.16,144Z"/><path class="cls-4" d="M419.93,523.88H228.73a19.25,19.25,0,0,1-19.24-19.24V471.32H439.16v33.32A19.24,19.24,0,0,1,419.93,523.88Z"/><path class="cls-4" d="M419.93,124.78H228.73A19.24,19.24,0,0,0,209.49,144v33.32H439.16V144A19.23,19.23,0,0,0,419.93,124.78Z"/><path class="cls-5" d="M439.16,471.32v33.32a19.23,19.23,0,0,1-19.23,19.24H403a19.23,19.23,0,0,0,19.24-19.24V471.32Z"/><path class="cls-5" d="M439.16,144v33.32H422.28V144A19.23,19.23,0,0,0,403,124.78h16.89A19.23,19.23,0,0,1,439.16,144Z"/><path class="cls-6" d="M359.2,299.54H289.45A10.52,10.52,0,0,1,278.94,289v-7.91a45.39,45.39,0,0,1,90.77,0V289A10.5,10.5,0,0,1,359.2,299.54Z"/><path class="cls-7" d="M369.72,281.13V289a10.52,10.52,0,0,1-10.52,10.51H343A10.52,10.52,0,0,0,353.48,289v-7.9a45.42,45.42,0,0,0-37.27-44.67,46.18,46.18,0,0,1,8.12-.72,45.39,45.39,0,0,1,45.39,45.39Z"/><path class="cls-6" d="M360.46,379.14H288.2a9.26,9.26,0,0,1-9.26-9.25V327.56a9.26,9.26,0,0,1,9.26-9.26h72.26a9.27,9.27,0,0,1,9.26,9.26v42.33A9.26,9.26,0,0,1,360.46,379.14Z"/><path class="cls-7" d="M353.24,318.3h7.22a9.27,9.27,0,0,1,9.26,9.26v42.32a9.26,9.26,0,0,1-9.26,9.26h-7.22Z"/><path class="cls-6" d="M301.94,419.67a11,11,0,0,1-11-11V379.14h22v29.54A11,11,0,0,1,301.94,419.67Z"/><path class="cls-6" d="M346.71,419.67a11,11,0,0,1-11-11V379.14h22v29.54A11,11,0,0,1,346.71,419.67Z"/><path class="cls-7" d="M312.94,379.14v29.54a11,11,0,0,1-16.23,9.67,11,11,0,0,0,5.75-9.67V379.14Z"/><path class="cls-7" d="M357.71,379.14v29.54a11,11,0,0,1-16.23,9.67,11,11,0,0,0,5.75-9.67V379.14Z"/><path class="cls-6" d="M400.87,362.87a11,11,0,0,1-11-11V329.3a11,11,0,0,1,22,0v22.58A11,11,0,0,1,400.87,362.87Z"/><path class="cls-6" d="M247.79,362.87a11,11,0,0,1-11-11V329.3a11,11,0,0,1,22,0v22.58A11,11,0,0,1,247.79,362.87Z"/><path class="cls-7" d="M411.86,329.3v22.58a11,11,0,0,1-16.68,9.41,11,11,0,0,0,5.3-9.41V329.3a11,11,0,0,0-3.22-7.78,11.68,11.68,0,0,0-2.08-1.63,11,11,0,0,1,16.68,9.41Z"/><path class="cls-7" d="M258.79,329.3v22.58a11,11,0,0,1-16.69,9.41,11,11,0,0,0,5.3-9.41V329.3a11,11,0,0,0-3.22-7.78,11.68,11.68,0,0,0-2.08-1.63,11,11,0,0,1,16.69,9.41Z"/><path d="M289.45,305.56H359.2A16.55,16.55,0,0,0,375.74,289v-7.91a51.41,51.41,0,0,0-23.89-43.39l3.17-5.89a6,6,0,1,0-10.6-5.72L341,232.5a51.11,51.11,0,0,0-33.31,0l-3.43-6.38a6,6,0,0,0-10.61,5.72l3.18,5.89a51.39,51.39,0,0,0-23.89,43.39V289a16.54,16.54,0,0,0,16.53,16.53ZM285,281.12a39.36,39.36,0,0,1,78.72,0V289a4.49,4.49,0,0,1-4.49,4.48H289.45A4.49,4.49,0,0,1,285,289Z"/><path d="M306.92,281.63a6,6,0,0,0,6-6v-5.79a6,6,0,0,0-12.05,0v5.79A6,6,0,0,0,306.92,281.63Z"/><path d="M341.73,281.63a6,6,0,0,0,6-6v-5.79a6,6,0,0,0-12.05,0v5.79A6,6,0,0,0,341.73,281.63Z"/><path d="M284.92,384.8v23.88a17,17,0,0,0,34,0V385.17h10.73v23.51a17,17,0,0,0,34,0V384.8a15.29,15.29,0,0,0,12-14.91V368.1a6,6,0,0,0-12.05,0v1.79a3.23,3.23,0,0,1-3.23,3.23H288.2a3.24,3.24,0,0,1-3.24-3.23V327.56a3.24,3.24,0,0,1,3.24-3.23h72.26a3.23,3.23,0,0,1,3.23,3.23V340a6,6,0,1,0,12.05,0V327.56a15.3,15.3,0,0,0-15.28-15.28H288.2a15.29,15.29,0,0,0-15.28,15.28v42.33A15.29,15.29,0,0,0,284.92,384.8Zm56.82.37h9.95v23.51a5,5,0,0,1-9.95,0V385.17Zm-44.77,0h9.95v23.51a5,5,0,0,1-9.95,0V385.17Z"/><path d="M383.85,351.88a17,17,0,0,0,34,0V329.3a17,17,0,1,0-34,0Zm12-22.58a5,5,0,1,1,9.94,0v22.58a5,5,0,0,1-9.94,0Z"/><path d="M247.79,368.9a17,17,0,0,0,17-17V329.3a17,17,0,0,0-34,0v22.58A17,17,0,0,0,247.79,368.9Zm-5-39.6a5,5,0,1,1,9.94,0v22.58a5,5,0,1,1-9.94,0Z"/><path d="M419.93,118.76H281.09a6,6,0,1,0,0,12H419.93A13.23,13.23,0,0,1,433.14,144v27.3H215.52V144a13.23,13.23,0,0,1,13.21-13.22h24.51a6,6,0,1,0,0-12H228.73A25.29,25.29,0,0,0,203.47,144V504.64a25.29,25.29,0,0,0,25.26,25.26h191.2a25.29,25.29,0,0,0,25.26-25.26V144a25.29,25.29,0,0,0-25.26-25.26Zm13.21,385.88a13.22,13.22,0,0,1-13.21,13.21H228.73a13.22,13.22,0,0,1-13.21-13.21v-27.3H433.14v27.3Zm0-39.35H215.52V183.37H433.14V465.29Z"/><path d="M314.62,503.62H334a6,6,0,0,0,0-12.05H314.62a6,6,0,1,0,0,12.05Z"/><circle cx="298.94" cy="151.06" r="7.99"/><path d="M357.71,157.08a6,6,0,1,0,0-12H324.33a6,6,0,1,0,0,12Z"/><path d="M381.52,214.91a6,6,0,0,0,6-6V205.2a6,6,0,0,0-12.05,0v3.68A6,6,0,0,0,381.52,214.91Z"/><path d="M400,214.91a6,6,0,0,0,6-6v-7.36a6,6,0,1,0-12.05,0v7.36A6,6,0,0,0,400,214.91Z"/><path d="M418.5,214.91a6,6,0,0,0,6-6v-11a6,6,0,1,0-12,0v11A6,6,0,0,0,418.5,214.91Z"/></g></g></svg>