<svg id="Capa_1" enable-background="new 0 0 512 512" height="512" viewBox="0 0 512 512" width="512" xmlns="http://www.w3.org/2000/svg"><g><path d="m359.5 27.5v167h-352v-163c0-15.05 8.95-24 20-24h312c11.05 0 20 8.95 20 20z" fill="#50758d"/><path d="m359.5 194.5v248c0 11.05-8.95 20-20 20h-312c-11.05 0-20-8.95-20-16v-252z" fill="#50758d"/><path d="m57.5 140.5v-79c0-7.732 6.268-14 14-14h244c7.732 0 14 6.268 14 14v79c0 7.732-6.268 14-14 14h-244c-7.732 0-14-6.268-14-14z" fill="#2edffc"/><path d="m91.5 154.5h-20c-7.73 0-14-6.27-14-14v-79c0-7.73 6.27-14 14-14h20c-7.73 0-14 6.27-14 14v79c0 7.73 6.27 14 14 14z" fill="#27bdf3"/><path d="m328.5 248.5v80h-135.5v-94h121.5c7.73 0 14 6.27 14 14z" fill="#f5f5f5"/><path d="m193 234.5v94h-135.5v-78c0-9.73 6.27-16 14-16z" fill="#f5f5f5"/><path d="m193 328.5v94h-121.5c-7.73 0-14-6.27-14-12v-82z" fill="#f5f5f5"/><path d="m328.5 328.5v80c0 7.73-6.27 14-14 14h-121.5v-94z" fill="#f5f5f5"/><path d="m314.5 227h-121.5-121.5c-12.257 0-21.5 10.103-21.5 23.5v78 82c0 10.388 10.047 19.5 21.5 19.5h121.5 121.5c11.855 0 21.5-9.645 21.5-21.5v-80-80c0-11.855-9.645-21.5-21.5-21.5zm6.5 21.5v72.5h-120.5v-79h114c3.584 0 6.5 2.916 6.5 6.5zm-256 2c0-5.084 2.612-8.5 6.5-8.5h114v79h-120.5zm0 160v-74.5h120.5v79h-114c-3.755 0-6.5-3.158-6.5-4.5zm256-2c0 3.584-2.916 6.5-6.5 6.5h-114v-79h120.5z" fill="#e6e6e6"/><g fill="#2b597f"><path d="m157.5 383h-54c-4.143 0-7.5-3.357-7.5-7.5s3.357-7.5 7.5-7.5h54c4.143 0 7.5 3.357 7.5 7.5s-3.357 7.5-7.5 7.5z"/><path d="m152.5 274h-14.5v-14.5c0-4.143-3.357-7.5-7.5-7.5s-7.5 3.357-7.5 7.5v14.5h-14.5c-4.143 0-7.5 3.357-7.5 7.5s3.357 7.5 7.5 7.5h14.5v14.5c0 4.143 3.357 7.5 7.5 7.5s7.5-3.357 7.5-7.5v-14.5h14.5c4.143 0 7.5-3.357 7.5-7.5s-3.357-7.5-7.5-7.5z"/><path d="m266.607 281.5 10.253-10.253c2.929-2.93 2.929-7.678 0-10.607-2.93-2.928-7.678-2.928-10.607 0l-10.253 10.253-10.253-10.253c-2.93-2.928-7.678-2.928-10.607 0-2.929 2.93-2.929 7.678 0 10.607l10.253 10.253-10.253 10.253c-2.929 2.93-2.929 7.678 0 10.607 1.465 1.464 3.385 2.196 5.304 2.196s3.839-.732 5.304-2.196l10.252-10.253 10.253 10.253c1.465 1.464 3.385 2.196 5.304 2.196s3.839-.732 5.304-2.196c2.929-2.93 2.929-7.678 0-10.607z"/><path d="m290.5 133h-14c-9.649 0-17.5-7.851-17.5-17.5v-29c0-9.649 7.851-17.5 17.5-17.5h14c9.649 0 17.5 7.851 17.5 17.5v29c0 9.649-7.851 17.5-17.5 17.5zm-14-49c-1.379 0-2.5 1.121-2.5 2.5v29c0 1.379 1.121 2.5 2.5 2.5h14c1.379 0 2.5-1.121 2.5-2.5v-29c0-1.379-1.121-2.5-2.5-2.5z"/><path d="m359.5 194.5v-22.5h-317c-5.523 0-10-4.477-10-10v-130.5c0-15.05 8.95-24 20-24h-25c-11.05 0-20 8.95-20 24v140.5 22.5 252c0 7.05 8.95 16 20 16h25c-11.05 0-20-8.95-20-16v-242c0-5.523 4.477-10 10-10z"/></g><ellipse cx="401.5" cy="292.5" fill="#fad207" rx="103" ry="23"/><path d="m504.5 434.25v47.25c0 15-46.11 23-103 23s-103-8-103-23v-47.25c0 15 46.11 23 103 23s103-8 103-23z" fill="#fad207"/><path d="m504.5 387v47.25c0 15-46.11 23-103 23s-103-8-103-23v-47.25c0 15 46.11 23 103 23s103-8 103-23z" fill="#faa515"/><path d="m504.5 339.75v47.25c0 15-46.11 23-103 23s-103-8-103-23v-47.25c0 15 46.11 23 103 23s103-8 103-23z" fill="#fad207"/><path d="m504.5 292.5v47.25c0 15-46.11 23-103 23s-103-8-103-23v-47.25c0 15 46.11 23 103 23s103-8 103-23z" fill="#faa515"/><path d="m239.146 400.146c-1.919 0-3.839-.732-5.304-2.196-2.929-2.93-2.929-7.678 0-10.607l34-34c2.93-2.928 7.678-2.928 10.607 0 2.929 2.93 2.929 7.678 0 10.607l-34 34c-1.464 1.464-3.384 2.196-5.303 2.196z" fill="#2b597f"/><circle cx="241.5" cy="356.5" fill="#2b597f" r="7.5"/><circle cx="271.5" cy="394.5" fill="#2b597f" r="7.5"/></g><g><path d="m475.858 268.032c-18.981-3.946-44.694-6.032-74.358-6.032-12.243 0-23.799.361-34.5 1.056v-235.556c0-15.163-12.337-27.5-27.5-27.5h-312c-15.935 0-27.5 13.248-27.5 31.5v415c0 10.867 12.013 23.5 27.5 23.5h263.5v11.5c0 16.954 27.202 22.609 36.142 24.468 18.981 3.946 44.694 6.032 74.358 6.032s55.377-2.086 74.358-6.032c8.94-1.859 36.142-7.514 36.142-24.468v-189c0-16.954-27.202-22.609-36.142-24.468zm21.142 118.92c-.155.322-3.276 5.834-26.702 10.332-17.779 3.413-41.569 5.217-68.798 5.217s-51.019-1.804-68.798-5.217c-24.002-4.608-26.689-10.284-26.702-10.284v-29.227c7.85 3.677 16.724 5.526 21.142 6.444 18.981 3.946 44.694 6.032 74.358 6.032s55.377-2.086 74.358-6.032c4.417-.918 13.292-2.767 21.142-6.444zm-304 1.548c-4.143 0-7.5 3.357-7.5 7.5v19h-114c-3.909 0-6.5-3.202-6.5-4.5v-74.5h120.5v25c0 4.143 3.357 7.5 7.5 7.5s7.5-3.357 7.5-7.5v-25h90.5v79h-90.5v-19c0-4.143-3.357-7.5-7.5-7.5zm128-119.098c-11.5 2.82-30 9.114-30 23.098v28.5h-90.5v-79h114c3.584 0 6.5 2.916 6.5 6.5zm-135.5 51.598h-120.5v-70.5c0-5.084 2.612-8.5 6.5-8.5h114zm311.5 18.702c-.155.322-3.276 5.834-26.702 10.332-17.779 3.413-41.569 5.217-68.798 5.217s-51.019-1.804-68.798-5.217c-24.002-4.608-26.689-10.284-26.702-10.284v-29.227c7.85 3.677 16.724 5.526 21.142 6.444 18.981 3.947 44.694 6.033 74.358 6.033s55.377-2.086 74.358-6.032c4.417-.918 13.292-2.767 21.142-6.444zm-26.702-57.485c22.622 4.343 26.31 9.635 26.677 10.283-.367.648-4.055 5.94-26.677 10.283-17.779 3.413-41.569 5.217-68.798 5.217s-51.019-1.804-68.798-5.217c-22.622-4.343-26.31-9.635-26.677-10.283.367-.648 4.055-5.94 26.677-10.283 17.779-3.413 41.569-5.217 68.798-5.217s51.019 1.804 68.798 5.217zm-442.798 172.783c-7.222 0-12.5-5.965-12.5-8.5v-244.5h247c4.143 0 7.5-3.357 7.5-7.5s-3.357-7.5-7.5-7.5h-247v-155.5c0-10.023 4.906-16.5 12.5-16.5h312c6.893 0 12.5 5.607 12.5 12.5v159.5h-55c-4.143 0-7.5 3.357-7.5 7.5s3.357 7.5 7.5 7.5h55v62.308c-5.67.591-11.011 1.294-16 2.103v-17.911c0-11.855-9.645-21.5-21.5-21.5h-243c-12.257 0-21.5 10.103-21.5 23.5v160c0 10.388 10.047 19.5 21.5 19.5h219.5v25zm442.798 36.783c-17.779 3.413-41.569 5.217-68.798 5.217s-51.019-1.804-68.798-5.217c-24.002-4.607-26.689-10.283-26.702-10.283v-29.227c7.85 3.677 16.724 5.526 21.142 6.444 18.981 3.946 44.694 6.032 74.358 6.032 14.293 0 27.832-.495 40.24-1.473 4.129-.325 7.213-3.936 6.888-8.065s-3.946-7.214-8.065-6.888c-12.018.946-25.16 1.426-39.063 1.426-27.229 0-51.019-1.804-68.798-5.217-24.002-4.606-26.689-10.282-26.702-10.282v-29.227c7.85 3.677 16.724 5.526 21.142 6.444 18.981 3.946 44.694 6.032 74.358 6.032s55.377-2.086 74.358-6.032c4.417-.918 13.292-2.767 21.142-6.444v29.178c-.154.32-2.916 5.202-22.767 9.527-4.047.882-6.613 4.878-5.731 8.925.864 4.076 4.981 6.624 8.925 5.731 4.104-.894 12.229-2.67 19.573-6.105v29.172c-.155.323-3.276 5.834-26.702 10.332z"/><path d="m337 140.5v-79c0-11.855-9.645-21.5-21.5-21.5h-165.5c-4.143 0-7.5 3.357-7.5 7.5s3.357 7.5 7.5 7.5h165.5c3.584 0 6.5 2.916 6.5 6.5v79c0 3.584-2.916 6.5-6.5 6.5h-244c-3.584 0-6.5-2.916-6.5-6.5v-79c0-3.584 2.916-6.5 6.5-6.5h43.5c4.143 0 7.5-3.357 7.5-7.5s-3.357-7.5-7.5-7.5h-43.5c-11.855 0-21.5 9.645-21.5 21.5v79c0 11.855 9.645 21.5 21.5 21.5h244c11.855 0 21.5-9.645 21.5-21.5z"/><path d="m157.5 368h-54c-4.143 0-7.5 3.357-7.5 7.5s3.357 7.5 7.5 7.5h54c4.143 0 7.5-3.357 7.5-7.5s-3.357-7.5-7.5-7.5z"/><path d="m108.5 289h14.5v14.5c0 4.143 3.357 7.5 7.5 7.5s7.5-3.357 7.5-7.5v-14.5h14.5c4.143 0 7.5-3.357 7.5-7.5s-3.357-7.5-7.5-7.5h-14.5v-14.5c0-4.143-3.357-7.5-7.5-7.5s-7.5 3.357-7.5 7.5v14.5h-14.5c-4.143 0-7.5 3.357-7.5 7.5s3.357 7.5 7.5 7.5z"/><path d="m276.86 260.64c-2.93-2.928-7.678-2.928-10.607 0l-10.253 10.253-10.253-10.253c-2.93-2.928-7.678-2.928-10.607 0-2.929 2.93-2.929 7.678 0 10.607l10.253 10.253-10.253 10.253c-2.929 2.93-2.929 7.678 0 10.607 2.93 2.928 7.677 2.928 10.607 0l10.253-10.253 10.253 10.253c2.93 2.928 7.677 2.928 10.607 0 2.929-2.93 2.929-7.678 0-10.607l-10.253-10.253 10.253-10.253c2.929-2.93 2.929-7.678 0-10.607z"/><path d="m239.146 400.146c1.919 0 3.839-.732 5.304-2.196l34-34c2.929-2.93 2.929-7.678 0-10.607-2.93-2.928-7.678-2.928-10.607 0l-34 34c-2.929 2.93-2.929 7.678 0 10.607 1.465 1.464 3.385 2.196 5.303 2.196z"/><g><circle cx="241.5" cy="356.5" r="7.5"/><circle cx="271.5" cy="394.5" r="7.5"/></g><path d="m290.5 133c9.649 0 17.5-7.851 17.5-17.5v-29c0-9.649-7.851-17.5-17.5-17.5h-14c-9.649 0-17.5 7.851-17.5 17.5v29c0 9.649 7.851 17.5 17.5 17.5zm-16.5-17.5v-29c0-1.379 1.121-2.5 2.5-2.5h14c1.379 0 2.5 1.121 2.5 2.5v29c0 1.379-1.121 2.5-2.5 2.5h-14c-1.379 0-2.5-1.121-2.5-2.5z"/></g></svg>