<svg xmlns="http://www.w3.org/2000/svg" viewBox="0 0 800.91 800.91"><defs><style>.cls-1{fill:#fff}.cls-2{fill:#e6e9ed}.cls-3{fill:#018577}.cls-4{fill:#036d5e}.cls-5{fill:#aab2bd}.cls-6{fill:#fcd770}.cls-7{fill:#f0d0b4}.cls-8{fill:#b27946}</style></defs><title>pelayanan_desa_card</title><g id="Layer_2" data-name="Layer 2"><g id="Layer_1-2" data-name="Layer 1"><circle cx="400.46" cy="400.46" r="400.46" class="cls-1"/><path d="M298,211.36l-15.76,15.76H164.09V510.76H636.83V211.36Z" class="cls-2"/><path d="M591.13,513.42l-9.36-2.66h-.1l-39.88-11.42-7.39,66.57-20.19-15.16-11.33-8.47-31.51,23.63L464,499.34l-39.89,11.42H424l-9.35,2.66A63.08,63.08,0,0,0,368.94,574v62.84H636.83V574a63.18,63.18,0,0,0-45.7-60.57Z" class="cls-3"/><path d="M541.79,499.34l-7.39,66.57-20.19-15.16-11.33-8.47L526.52,495Z" class="cls-4"/><path d="M479.25,495l23.63,47.28-31.51,23.63L464,499.34Z" class="cls-4"/><path d="M384.7,298v43.14A154.24,154.24,0,0,1,305.22,476a36.27,36.27,0,0,1-15.07,3.34A34.78,34.78,0,0,1,275.08,476,154.11,154.11,0,0,1,195.6,341.27V298h12.61A72.48,72.48,0,0,0,264.54,271a32.78,32.78,0,0,1,51.22,0,73.29,73.29,0,0,0,25.11,19.89A72.19,72.19,0,0,0,372.09,298Z" class="cls-5"/><path d="M164.09,227.12V179.84a15.8,15.8,0,0,1,15.75-15.75H621.07a15.81,15.81,0,0,1,15.76,15.75v31.52H298l-15.76,15.76Z" class="cls-6"/><path d="M526.52,472.35V495l-23.64,47.28L479.25,495V472.35l23.63,14.77A89.2,89.2,0,0,0,526.52,472.35Z" class="cls-7"/><path d="M565.91,384.7a24,24,0,0,1,16.75,6.89,23.21,23.21,0,0,1,6.89,16.74,23.8,23.8,0,0,1-6.89,16.75A23.21,23.21,0,0,1,565.91,432h-12.5A89.53,89.53,0,0,0,558,403.41V384A42,42,0,0,0,565.91,384.7Z" class="cls-7"/><path d="M553.41,432a90.52,90.52,0,0,1-26.89,40.38,91.83,91.83,0,0,1-23.64,14.77l-23.63-14.77L462.8,453.54a91.51,91.51,0,0,1-15.07-50.13V384.7h13.89a80.4,80.4,0,0,0,57-23.64l6.89,6.9A56.2,56.2,0,0,0,558,384v19.4A89.53,89.53,0,0,1,553.41,432Z" class="cls-7"/><path d="M452.36,432H439.85a23.58,23.58,0,0,1-23.64-23.64,23.92,23.92,0,0,1,6.9-16.74,23.17,23.17,0,0,1,16.74-6.89h7.88v18.71A89.53,89.53,0,0,0,452.36,432Z" class="cls-7"/><path d="M589.55,354.17v54.16a24,24,0,0,0-6.89-16.74,23.21,23.21,0,0,0-16.75-6.89,52.55,52.55,0,0,1-7.87-.59,56.75,56.75,0,0,1-32.51-16.06l-6.89-6.89a80.57,80.57,0,0,1-57,23.64H439.85a23.94,23.94,0,0,0-16.74,6.89,23.16,23.16,0,0,0-6.9,16.74V361.16a78.73,78.73,0,0,1,114.05-70.42A76.68,76.68,0,0,1,558,313.89a41.74,41.74,0,0,1,22.65,14.77,40.72,40.72,0,0,1,8.86,25.51Z" class="cls-8"/><path d="M187.72,187.72h15.76v15.76H187.72Z"/><path d="M219.24,187.72H235v15.76H219.24Z"/><path d="M250.76,187.72h15.75v15.76H250.76Z"/><path d="M235,341.07v-6.9a110.18,110.18,0,0,0,44.12-22.25L269.07,299.8a95.4,95.4,0,0,1-43.43,20.29l-6.5,1.18v19.9a130.79,130.79,0,0,0,3.45,29.64L238,367.27a118.13,118.13,0,0,1-2.95-26.2Z"/><path d="M321.86,266a40.57,40.57,0,0,0-31.71-15.26A40.12,40.12,0,0,0,258.44,266a63.92,63.92,0,0,1-50.23,24.13H187.72v50.92a162.18,162.18,0,0,0,84.11,142,43.33,43.33,0,0,0,37.13-.3,162,162,0,0,0,83.62-141.72V290.15H372.09A64.07,64.07,0,0,1,321.86,266Zm55,75.05a146,146,0,0,1-74.95,127.64,29.08,29.08,0,0,1-22.95.29,146.29,146.29,0,0,1-75.44-127.93V305.91h4.73a79.7,79.7,0,0,0,62.54-30,24.8,24.8,0,0,1,19.4-9.36,25.15,25.15,0,0,1,19.5,9.36,79.56,79.56,0,0,0,62.54,30h4.73v35.16Z"/><path d="M274.39,413l-25.9-25.9-11.13,11.13,37.13,37.13L366.77,343l-11.13-11.13Z"/><path d="M644.7,495V179.84a23.69,23.69,0,0,0-23.63-23.63H179.84a23.69,23.69,0,0,0-23.63,23.63V495a23.7,23.7,0,0,0,23.63,23.64h208a71.06,71.06,0,0,0-26.79,55.45V644.7H644.7V574.09a71.39,71.39,0,0,0-26.78-55.45h3.15A23.7,23.7,0,0,0,644.7,495ZM179.84,172H621.07a7.9,7.9,0,0,1,7.88,7.87v23.64H294.78L279,219.24H172v-39.4a7.89,7.89,0,0,1,7.87-7.87ZM172,495V235H285.52l15.76-15.76H629V495a7.9,7.9,0,0,1-7.88,7.88H582.76L534.4,489.09V475.9A99.51,99.51,0,0,0,559,440h6.89a31.61,31.61,0,0,0,31.52-31.52V354.27A49.5,49.5,0,0,0,562.66,307a86.67,86.67,0,0,0-154.33,54.17v47.27A31.61,31.61,0,0,0,439.85,440h6.89a98.18,98.18,0,0,0,24.63,35.95v13.19L423,502.88H179.84A7.89,7.89,0,0,1,172,495Zm330.91,29.65-15.76-31.52v-5.32a100.83,100.83,0,0,0,12.61,6.5l3.15,1.38,3.15-1.38a99.72,99.72,0,0,0,12.61-6.5v5.32ZM442,424.09h-2.17a15.76,15.76,0,1,1,0-31.51v10.93A101.94,101.94,0,0,0,442,424.09Zm123.89-20.58V392.58a15.76,15.76,0,1,1,0,31.51h-2.16A101.94,101.94,0,0,0,565.91,403.51Zm15.76-22.36a30.46,30.46,0,0,0-15.76-4.33,49,49,0,0,1-34.76-14.38l-12.51-12.51L513,355.55a72.3,72.3,0,0,1-51.51,21.37H439.85a31.47,31.47,0,0,0-15.76,4.33V361.06a70.91,70.91,0,0,1,127.64-42.55l1.68,2.27,2.75.69a33.6,33.6,0,0,1,25.51,32.7ZM455.61,392.58h6A88.32,88.32,0,0,0,518.44,372l1.58,1.58a64.69,64.69,0,0,0,30.14,17v12.9a82.88,82.88,0,0,1-47.28,74.95,83,83,0,0,1-47.27-74.95V392.58Zm19.5,111.78,17.73,35.55-15.27,11.43-5.12-46.19Zm55.55,0,2.56.79-5.12,46.19-15.27-11.43ZM629,574.09V629H597.43V550.16H581.67V629H424.09V550.16H408.33V629H376.82V574.09a55.3,55.3,0,0,1,40-53l40.38-11.52,7.88,71,37.82-28.46,37.82,28.36,7.88-71L589,521a55.5,55.5,0,0,1,40,53.09Z"/><path d="M495,597.43h15.76v15.76H495Z"/><path d="M495,565.91h15.76v15.76H495Z"/><path d="M534.4,235h78.79v15.76H534.4Z"/><path d="M550.16,266.51h63v15.76h-63Z"/><path d="M187.72,471.37h15.76v15.75H187.72Z"/><path d="M187.72,439.85h15.76v15.76H187.72Z"/></g></g></svg>