<svg xmlns="http://www.w3.org/2000/svg" width="511pt" height="511pt" viewBox="0 -50 511.998 511"><path fill="#ffeea6" d="m27.464844 166.253906v235.542969c0 1.105469.894531 2 2 2h369.347656c1.105469 0 2-.894531 2-2v-235.542969zm0 0"/><path fill="#ddca7c" d="m27.464844 166.253906h373.347656v24.785156h-373.347656zm0 0"/><path fill="#d68376" d="m93.914062 255.4375v148.359375h87.445313v-148.359375c0-1.105469-.898437-2-2-2h-83.445313c-1.105468 0-2 .894531-2 2zm0 0"/><path fill="#f27755" d="m8.066406 156.609375 32.457032-75.8125c3.683593-8.605469 12.144531-14.183594 21.503906-14.183594h304.21875c9.359375 0 17.820312 5.578125 21.503906 14.183594l32.457031 75.8125c1.957031 4.566406-1.390625 9.644531-6.359375 9.644531h-399.421875c-4.964843 0-8.316406-5.078125-6.359375-9.644531zm0 0"/><path fill="#7dcdf9" d="m251.441406 253.4375h84.878906v84.878906h-84.878906zm0 0"/><path fill="#7dcdf9" d="m142.636719 23.710938c-25.992188 0-47.058594 21.070312-47.058594 47.058593v51.199219h94.117187v-51.199219c0-25.988281-21.070312-47.058593-47.058593-47.058593zm0 0"/><path fill="#aabfd5" d="m277.550781 12.371094v93.515625c0 2.417969 1.957031 4.375 4.375 4.375h31.535157c2.417968 0 4.375-1.957031 4.375-4.375v-93.515625c0-2.414063-1.957032-4.371094-4.375-4.371094h-31.535157c-2.417969 0-4.375 1.957031-4.375 4.371094zm0 0"/><path fill="#7d8eb0" d="m313.460938 87.761719h-31.535157c-2.417969 0-4.375-1.957031-4.375-4.375v22.5c0 2.417969 1.957031 4.375 4.375 4.375h31.535157c2.417968 0 4.375-1.957031 4.375-4.375v-22.5c0 2.417969-1.957032 4.375-4.375 4.375zm0 0"/><path fill="#7d8eb0" d="m351.921875 8v4.148438c0 9.6875-7.851563 17.542968-17.542969 17.542968h-16.542968v58.878906h16.542968c9.691406 0 17.542969 7.851563 17.542969 17.542969v4.148438h93.007813c14.011718 0 25.371093 11.359375 25.371093 25.371093v8.515626c0 9.441406 7.65625 17.097656 17.101563 17.097656 9.441406 0 17.097656-7.65625 17.097656-17.097656v-71.984376c0-35.4375-28.726562-64.164062-64.164062-64.164062zm0 0"/><g fill="#516789"><path d="m440.335938 8h-20.144532c35.4375 0 64.164063 28.726562 64.164063 64.164062v71.984376c0 5.675781-2.765625 10.710937-7.027344 13.820312 2.824219 2.0625 6.304687 3.277344 10.070313 3.277344 9.445312 0 17.101562-7.65625 17.101562-17.097656v-71.984376c0-35.4375-28.726562-64.164062-64.164062-64.164062zm0 0"/><path d="m341.835938 28.03125c-2.261719 1.066406-4.789063 1.660156-7.457032 1.660156h-16.542968v58.878906h16.542968c2.667969 0 5.195313.59375 7.457032 1.65625zm0 0"/><path d="m380.765625 110.261719h41.039063v35.441406h-41.039063zm0 0"/></g><path fill="#ea6789" d="m426.605469 145.703125h-50.640625c-3.3125 0-6 2.6875-6 6v151.800781c0 3.316406 2.6875 6 6 6h50.640625c3.3125 0 6-2.683594 6-6v-151.800781c0-3.3125-2.6875-6-6-6zm0 0"/><path fill="#c7416a" d="m426.605469 145.703125h-23.820313c3.3125 0 6 2.6875 6 6v151.800781c0 3.316406-2.6875 6-6 6h23.820313c3.3125 0 6-2.683594 6-6v-151.800781c0-3.3125-2.6875-6-6-6zm0 0"/><path d="m400.8125 332.003906c-4.144531 0-7.5 3.359375-7.5 7.5v56.792969h-204.457031v-140.859375c0-5.238281-4.261719-9.5-9.5-9.5h-83.441407c-5.238281 0-9.5 4.261719-9.5 9.5v140.859375h-51.453124v-222.542969h304.847656c4.144531 0 7.5-3.359375 7.5-7.5 0-4.144531-3.355469-7.5-7.5-7.5h-324.503906l15.113281-35.304687c1.628906-3.804688-.132813-8.214844-3.941407-9.84375-3.808593-1.632813-8.21875.132812-9.847656 3.941406l-15.460937 36.109375c-1.914063 4.46875-1.457031 9.558594 1.21875 13.617188 2.675781 4.054687 7.175781 6.480468 12.035156 6.480468h5.539063v228.042969c0 5.238281 4.261718 9.5 9.5 9.5h369.351562c5.234375 0 9.5-4.261719 9.5-9.5v-62.292969c0-4.140625-3.359375-7.5-7.5-7.5zm-299.398438 64.292969v-135.359375h72.441407v135.359375zm0 0"/><path d="m343.820312 253.4375c0-4.140625-3.355468-7.5-7.5-7.5h-84.878906c-4.140625 0-7.5 3.359375-7.5 7.5v77.382812h-15.105468c-4.140626 0-7.5 3.355469-7.5 7.5 0 4.140626 3.359374 7.5 7.5 7.5h130.089843c4.140625 0 7.5-3.359374 7.5-7.5 0-4.144531-3.359375-7.5-7.5-7.5h-15.105469zm-15 34.941406h-27.4375v-27.441406h27.4375zm-42.4375-27.441406v27.441406h-27.441406v-27.441406zm-27.441406 42.441406h27.441406v27.441406h-27.441406zm42.441406 27.441406v-27.441406h27.4375v27.441406zm0 0"/><path d="m504.328125 39.867188c-1.871094-3.695313-6.382813-5.175782-10.078125-3.308594-3.699219 1.871094-5.179688 6.382812-3.308594 10.078125 4.019532 7.953125 6.058594 16.539062 6.058594 25.523437v71.988282c0 5.292968-4.304688 9.597656-9.597656 9.597656-5.292969 0-9.601563-4.304688-9.601563-9.597656v-8.515626c0-18.128906-14.746093-32.875-32.871093-32.875h-85.730469c-1.644531-12.230468-12.148438-21.691406-24.820313-21.691406h-9.042968v-43.875h9.042968c12.671875 0 23.179688-9.460937 24.820313-21.691406h81.136719c12.160156 0 23.75 3.789062 33.511718 10.964844 3.339844 2.453125 8.035156 1.738281 10.488282-1.601563 2.453124-3.335937 1.734374-8.03125-1.605469-10.484375-12.355469-9.082031-27.015625-13.878906-42.394531-13.878906h-88.414063c-4.140625 0-7.5 3.355469-7.5 7.5v4.148438c0 5.535156-4.503906 10.042968-10.042969 10.042968h-9.042968v-9.820312c0-6.546875-5.328126-11.871094-11.875-11.871094h-31.535157c-6.546875 0-11.875 5.324219-11.875 11.871094v46.738281h-74.109375c-5.355468-24.5-27.222656-42.898437-53.304687-42.898437-26.085938 0-47.949219 18.398437-53.304688 42.898437h-27.304687c-12.382813 0-23.53125 7.355469-28.394532 18.738281l-4.101562 9.566406c-1.628906 3.808594.132812 8.21875 3.941406 9.847657.964844.414062 1.964844.609375 2.949219.609375 2.910156 0 5.679687-1.703125 6.898437-4.550782l4.101563-9.574218c2.503906-5.855469 8.234375-9.636719 14.605469-9.636719h26.046875v47.855469c0 4.144531 3.359375 7.5 7.5 7.5h94.117187c4.140625 0 7.5-3.355469 7.5-7.5v-47.855469h72.859375v31.777344c0 6.546875 5.324219 11.875 11.871094 11.875h31.539063c6.546874 0 11.875-5.328125 11.875-11.875v-9.820313h9.042968c5.535156 0 10.042969 4.507813 10.042969 10.046875v4.148438c0 4.140625 3.359375 7.5 7.5 7.5h21.339844v20.710937c-6.152344 1.253906-10.800781 6.710938-10.800781 13.230469v151.800781c0 7.445313 6.058593 13.5 13.5 13.5h50.640624c7.445313 0 13.5-6.054687 13.5-13.5v-151.800781c0-6.519531-4.644531-11.976563-10.800781-13.230469v-20.710937h15.625c9.855469 0 17.875 8.015625 17.875 17.871093v8.515626c0 13.5625 11.035157 24.597656 24.597657 24.597656s24.597656-11.035156 24.597656-24.597656v-71.984376c.003906-11.359374-2.578125-22.222656-7.667969-32.296874zm-322.136719 30.902343v5.871094h-32.058594v-44.71875c18.359376 3.539063 32.058594 19.71875 32.058594 38.847656zm-47.058594-38.847656v44.71875h-32.058593v-5.871094c0-19.292969 13.863281-35.339843 32.058593-38.847656zm-32.058593 59.71875h32.058593v22.828125h-32.058593zm47.058593 22.824219v-22.824219h32.058594v22.824219zm160.203126-11.703125h-25.285157v-87.261719h25.285157zm114.769531 199.242187h-47.640625v-148.800781h47.640625zm-10.804688-163.800781h-26.035156v-20.441406h26.035156zm0 0"/><path d="m116.910156 316.480469c-4.140625 0-7.5 3.359375-7.5 7.5v9.273437c0 4.144532 3.359375 7.5 7.5 7.5s7.5-3.355468 7.5-7.5v-9.273437c0-4.140625-3.359375-7.5-7.5-7.5zm0 0"/></svg>