<svg xmlns="http://www.w3.org/2000/svg" xmlns:xlink="http://www.w3.org/1999/xlink" id="Layer_5" x="0" y="0" version="1.1" viewBox="0 0 512 512" xml:space="preserve" style="enable-background:new 0 0 512 512"><style type="text/css">.st0{fill:#e6e9ed}.st1{fill:#018577}.st2{fill:#036d5e}.st3{fill:#aab2bd}.st4{fill:#fcd770}.st5{fill:#f0d0b4}.st6{fill:#b27946}</style><path d="M152,64l-16,16H16v64v208v16h16h247.9h0.1h160h0.1H480h16v-16V144V64H152z" class="st0"/><path d="M449.6,370.7l-9.5-2.7H440l-40.5-11.6L392,424l-20.5-15.4L360,400l-32,24l-7.5-67.6L280,368h-0.1l-9.5,2.7	c-27.4,7.8-46.4,33-46.4,61.5V496h48h88h88h48v-63.8C496,403.7,477,378.6,449.6,370.7L449.6,370.7z" class="st1"/><path d="M399.5,356.4L392,424l-20.5-15.4L360,400l24-48L399.5,356.4z" class="st2"/><path d="M336,352l24,48l-32,24l-7.5-67.6L336,352z" class="st2"/><path d="M240,152v43.8c0,56.9-31,109.4-80.7,136.9c-4.8,2.2-10,3.4-15.3,3.4s-10.5-1.1-15.3-3.4	c-24.9-13.8-45-33.8-59-57.4c-13.9-23.7-21.7-51-21.7-79.4V152h12.8c22.2,0,43.3-10.2,57.2-27.5c6.3-7.9,15.9-12.5,26-12.5	s19.7,4.6,26,12.5c7,8.6,15.7,15.5,25.5,20.2c9.8,4.7,20.6,7.3,31.7,7.3L240,152z" class="st3"/><path d="M16,80V32c0-8.8,7.2-16,16-16h448c8.8,0,16,7.2,16,16v32H152l-16,16H16z" class="st4"/><g><path d="M384,329v23l-24,48l-24-48v-23l24,15C368.9,340.2,377,335.1,384,329z" class="st5"/><path d="M424,240c6.6,0,12.6,2.7,17,7s7,10.3,7,17s-2.7,12.6-7,17s-10.3,7-17,7h-12.7c3.1-9.2,4.7-19,4.7-29v-19.6 v-0.1C418.6,239.8,421.3,240,424,240z" class="st5"/><path d="M411.3,288c-5.2,15.8-14.6,30.1-27.3,41c-7,6.1-15.1,11.1-24,15l-24-15l-16.7-19.1 c-4.5-6.8-8.1-14.2-10.6-21.9c-3.1-9.2-4.7-19-4.7-29v-19h14.1c21.7,0,42.6-8.6,57.9-24l7,7c9,9,20.6,14.7,33,16.3v0.1V259 C416,269,414.4,278.8,411.3,288L411.3,288z" class="st5"/><path d="M308.7,288H296c-13.3,0-24-10.7-24-24c0-6.6,2.7-12.6,7-17s10.3-7,17-7h8v19C304,269,305.6,278.8,308.7,288z" class="st5"/></g><path d="M448,209v55c0-6.6-2.7-12.6-7-17s-10.3-7-17-7c-2.7,0-5.4-0.2-8-0.6c-12.4-1.6-24-7.4-33-16.3l-7-7	c-15.4,15.4-36.2,24-57.9,24H304h-8c-6.6,0-12.6,2.7-17,7s-7,10.3-7,17v-48c0-44.2,35.8-80,80-80c12.6,0,24.8,3,35.8,8.5	c11,5.4,20.7,13.4,28.2,23.5c9.4,2.4,17.4,7.8,23,15C444.7,190.2,448,199.3,448,209L448,209z" class="st6"/><path d="M40,40h16v16H40V40z"/><path d="M72,40h16v16H72V40z"/><path d="M104,40h16v16h-16V40z"/><path d="M88,195.7v-7c16.4-4,31.8-11.8,44.8-22.6l-10.2-12.3c-12.7,10.5-27.9,17.6-44.1,20.6l-6.6,1.2v20.2	c0,10.1,1.2,20.2,3.5,30.1l15.6-3.6C89,213.5,88,204.6,88,195.7L88,195.7z"/><path d="M176.2,119.5c-7.9-9.8-19.6-15.5-32.2-15.5s-24.4,5.6-32.2,15.5c-12.5,15.6-31,24.5-51,24.5H40v51.7	c0,59.8,32.5,115,85.4,144.2c5.8,2.7,12.2,4.1,18.6,4.1s12.8-1.4,19.1-4.4c52.4-29,84.9-84.1,84.9-143.9V144h-20.8	C207.3,144,188.7,135.1,176.2,119.5L176.2,119.5z M232,195.7c0,54-29.4,103.8-76.1,129.6c-7.5,3.5-16.8,3.2-23.3,0.3	C85.4,299.5,56,249.7,56,195.7V160h4.8c24.8,0,48-11.1,63.5-30.5c4.8-6,12-9.5,19.7-9.5s14.9,3.5,19.8,9.5	c15.5,19.4,38.6,30.5,63.5,30.5h4.8V195.7z"/><path d="M128,268.7l-26.3-26.3l-11.3,11.3l37.7,37.7l93.7-93.7l-11.3-11.3L128,268.7z"/><path d="M504,352V32c0-13.2-10.8-24-24-24H32C18.8,8,8,18.8,8,32v320c0,13.2,10.8,24,24,24h211.2c-16.8,13.4-27.2,34-27.2,56.3V504	h288v-71.7c0-22.3-10.5-42.9-27.2-56.3h3.2C493.2,376,504,365.2,504,352z M32,24h448c4.4,0,8,3.6,8,8v24H148.7l-16,16H24V32	C24,27.6,27.6,24,32,24L32,24z M24,352V88h115.3l16-16H488v280c0,4.4-3.6,8-8,8h-38.9L392,346v-13.4c10.9-10.2,19.5-22.6,25-36.5h7	c17.6,0,32-14.4,32-32v-55c0-22.1-14.4-41.5-35.3-48c-16.6-20.7-42.1-33-68.7-33c-48.5,0-88,39.5-88,88v48c0,17.6,14.4,32,32,32h7	c5.5,13.9,14,26.3,25,36.5V346l-49.1,14H32C27.6,360,24,356.4,24,352z M360,382.1l-16-32v-5.4c4.1,2.5,8.4,4.7,12.8,6.6l3.2,1.4	l3.2-1.4c4.5-1.9,8.8-4.2,12.8-6.6v5.4L360,382.1z M298.2,280H296c-8.8,0-16-7.2-16-16s7.2-16,16-16v11.1	C296,266.2,296.8,273.2,298.2,280z M424,259.1V248c8.8,0,16,7.2,16,16c0,8.8-7.2,16-16,16h-2.2C423.2,273.2,424,266.2,424,259.1z M440,236.4c-4.7-2.8-10.1-4.4-16-4.4c-13.3,0-25.9-5.2-35.3-14.6L376,204.7l-5.7,5.7c-14,14-32.5,21.7-52.3,21.7H296	c-5.9,0-11.3,1.7-16,4.4V216c0-39.7,32.3-72,72-72c22.5,0,44.1,10.8,57.6,28.8l1.7,2.3l2.8,0.7c15.3,3.8,25.9,17.5,25.9,33.2	L440,236.4z M312,248h6.1c21.3,0,41.5-7.4,57.7-20.9l1.6,1.6c8.6,8.6,19.1,14.4,30.6,17.3v13.1c0,32.6-18.7,62.2-48,76.1	c-29.3-14-48-43.5-48-76.1V248z M331.8,361.5l18,36.1l-15.5,11.6l-5.2-46.9L331.8,361.5z M388.2,361.5l2.6,0.8l-5.2,46.9l-15.5-11.6	L388.2,361.5z M488,432.3V488h-32v-80h-16v80H280v-80h-16v80h-32v-55.7c0-24.9,16.7-47,40.6-53.8l41-11.7l8,72.1L360,410l38.4,28.8	l8-72.1l41,11.7C471.3,385.3,488,407.4,488,432.3L488,432.3z"/><path d="M352,456h16v16h-16V456z"/><path d="M352,424h16v16h-16V424z"/><path d="M392,88h80v16h-80V88z"/><path d="M408,120h64v16h-64V120z"/><path d="M40,328h16v16H40V328z"/><path d="M40,296h16v16H40V296z"/></svg>