<?xml version="1.0" encoding="utf-8"?>
<!-- Generator: Adobe Illustrator 23.0.6, SVG Export Plug-In . SVG Version: 6.00 Build 0)  -->
<svg version="1.1" id="Capa_1" xmlns="http://www.w3.org/2000/svg" xmlns:xlink="http://www.w3.org/1999/xlink" x="0px" y="0px"
	 viewBox="0 0 512 512" style="enable-background:new 0 0 512 512;" xml:space="preserve">
<style type="text/css">
	.st0{fill:#DAD8DB;}
	.st1{fill:#C8C5C9;}
	.st2{fill:#BED8FB;}
	.st3{fill:#ECEAEC;}
	.st4{fill:#A3CAF7;}
	.st5{fill:#434D59;}
	.st6{fill:#327A6D;}
	.st7{fill:#2C685D;}
	.st8{fill:#EDC963;}
	.st9{fill:#E7B93E;}
	.st10{fill:#AD2E28;}
	.st11{fill:#D8BA3D;}
	.st12{fill:#0AA200;}
</style>
<g>
	<g>
		<path class="st0" d="M310.1,474H201.9l9.5-72.6h89.1L310.1,474z"/>
		<path class="st1" d="M302.9,419.3l-2.4-18h-89.1l-2.4,18H302.9z"/>
		<path class="st2" d="M474,401.3H38c-16.6,0-30-13.4-30-30V68c0-16.6,13.4-30,30-30h436c16.6,0,30,13.4,30,30v303.3
			C504,387.9,490.6,401.3,474,401.3z"/>
		<path class="st3" d="M8,338v33.3c0,16.6,13.4,30,30,30h436c16.6,0,30-13.4,30-30V338H8z"/>
		<path class="st4" d="M8,320h496v18H8V320z"/>
		<path class="st0" d="M474,383.3H38c-16.6,0-30-13.4-30-30v18c0,16.6,13.4,30,30,30h436c16.6,0,30-13.4,30-30v-18
			C504,369.9,490.6,383.3,474,383.3z"/>
		<path class="st3" d="M59,144.6H453V338H59L59,144.6z"/>
		<path class="st0" d="M59,320H453v18H59L59,320z"/>
		<path class="st5" d="M438,85.1H74c-8.3,0-15,6.7-15,15v44.4H453v-44.4C453,91.9,446.3,85.1,438,85.1z"/>
		<path class="st6" d="M110.4,183h291.1v80.8H110.4L110.4,183z"/>
		<path class="st7" d="M110.4,245.8h291.1v18H110.4L110.4,245.8z"/>
		<path class="st8" d="M110.4,297.1H238V338H110.4L110.4,297.1z"/>
		<path class="st8" d="M274,297.1h127.6V338H274V297.1z"/>
		<g>
			<path class="st9" d="M110.4,320H238v18H110.4L110.4,320z"/>
			<path class="st9" d="M274,320h127.6v18H274V320z"/>
		</g>
	</g>
	<g>
		<path d="M474.4,30.1H310.7c-4.2,0-7.5,3.4-7.5,7.5s3.4,7.5,7.5,7.5h163.8c12.4,0,22.5,10.1,22.5,22.5v263h-36l0-230.8
			c0-12.4-10.1-22.5-22.5-22.5H73.6c-12.4,0-22.5,10.1-22.5,22.5v230.8H15v-263c0-12.4,10.1-22.5,22.5-22.5h243
			c4.2,0,7.5-3.4,7.5-7.5s-3.4-7.5-7.5-7.5h-243C16.9,30.1,0,47,0,67.7v303.8c0,20.7,16.9,37.6,37.6,37.6h165.2l-7.6,57.8h-26.7
			c-4.2,0-7.5,3.4-7.5,7.5s3.4,7.5,7.5,7.5h174.9c4.2,0,7.5-3.4,7.5-7.5s-3.4-7.5-7.5-7.5h-26.7l-7.6-57.8h79.6
			c4.2,0,7.5-3.4,7.5-7.5s-3.4-7.5-7.5-7.5H37.6C25.1,394.1,15,384,15,371.5v-25.8H497v25.8c0,12.4-10.1,22.5-22.5,22.5h-55.5
			c-4.2,0-7.5,3.4-7.5,7.5s3.4,7.5,7.5,7.5h55.5c20.7,0,37.6-16.9,37.6-37.6V67.7C512,47,495.1,30.1,474.4,30.1L474.4,30.1z
			 M301.6,466.9h-91.2l7.6-57.8H294L301.6,466.9z M66.1,99.8c0-4.1,3.4-7.5,7.5-7.5h364.8c4.1,0,7.5,3.4,7.5,7.5v37H66.1L66.1,99.8z
			 M66.1,151.9h379.8v178.8h-36.5v-33.5c0-4.1-3.4-7.5-7.5-7.5H274c-4.2,0-7.5,3.4-7.5,7.5v33.5h-20.9v-33.5c0-4.1-3.4-7.5-7.5-7.5
			H110.1c-4.2,0-7.5,3.4-7.5,7.5v33.5H66.1L66.1,151.9z M394.3,330.7H281.5v-26h112.8V330.7z M230.5,330.7H117.7v-26h112.8V330.7z"
			/>
		<path class="st10" d="M94.7,102.5c-6.4,0-11.5,5.2-11.5,11.5s5.2,11.5,11.5,11.5s11.5-5.2,11.5-11.5
			C106.3,107.6,101.1,102.5,94.7,102.5z"/>
		<path class="st11" d="M131.8,102.5c-6.4,0-11.5,5.2-11.5,11.5s5.2,11.5,11.5,11.5s11.5-5.2,11.5-11.5S138.2,102.5,131.8,102.5
			L131.8,102.5z"/>
		<path class="st12" d="M168.8,102.5c-6.4,0-11.5,5.2-11.5,11.5s5.2,11.5,11.5,11.5c6.4,0,11.5-5.2,11.5-11.5
			S175.2,102.5,168.8,102.5L168.8,102.5z"/>
		<path d="M110.1,271.3h54.7c4.2,0,7.5-3.4,7.5-7.5s-3.4-7.5-7.5-7.5h-47.2v-65.9h276.7v65.9H194.9c-4.2,0-7.5,3.4-7.5,7.5
			s3.4,7.5,7.5,7.5h207c4.2,0,7.5-3.4,7.5-7.5v-81c0-4.1-3.4-7.5-7.5-7.5H110.1c-4.2,0-7.5,3.4-7.5,7.5v81
			C102.6,268,106,271.3,110.1,271.3L110.1,271.3z"/>
	</g>
</g>
</svg>
