<?xml version="1.0" encoding="UTF-8"?>
<!DOCTYPE svg PUBLIC "-//W3C//DTD SVG 1.1//EN" "http://www.w3.org/Graphics/SVG/1.1/DTD/svg11.dtd">
<!-- Creator: CorelDRAW X7 -->
<svg xmlns="http://www.w3.org/2000/svg" xml:space="preserve" width="72.7278mm" height="72.7278mm" version="1.1" style="shape-rendering:geometricPrecision; text-rendering:geometricPrecision; image-rendering:optimizeQuality; fill-rule:evenodd; clip-rule:evenodd"
viewBox="0 0 1678 1678"
 xmlns:xlink="http://www.w3.org/1999/xlink">
 <defs>
  <style type="text/css">
   <![CDATA[
    .fil1 {fill:none}
    .fil0 {fill:#91E378}
   ]]>
  </style>
   <clipPath id="id0">
    <path d="M0 0l1678 0 0 1678 -1678 0 0 -1678z"/>
   </clipPath>
 </defs>
 <g id="Layer_x0020_1">
  <metadata id="CorelCorpID_0Corel-Layer"/>
  <g>
  </g>
  <g style="clip-path:url(#id0)">
   <g>
    <g id="_1954759239776">
     <path class="fil0" d="M774 135c13,0 24,-11 24,-25 0,-13 -11,-24 -24,-24l-165 0c-13,0 -24,11 -24,24 0,14 11,25 24,25l165 0z"/>
     <path class="fil0" d="M767 1523c0,-42 -34,-75 -76,-75 -41,0 -75,33 -75,75 0,42 34,75 75,75 42,0 76,-33 76,-75zm-76 26c-14,0 -26,-11 -26,-26 0,-15 12,-26 26,-26 15,0 27,11 27,26 0,15 -12,26 -27,26z"/>
     <path class="fil0" d="M765 1139l233 0c14,0 25,-11 25,-24 0,-14 -11,-25 -25,-25l-233 0c-14,0 -25,11 -25,25 0,13 11,24 25,24z"/>
     <path class="fil0" d="M765 834c-14,0 -25,11 -25,25 0,13 11,24 25,24l233 0c14,0 25,-11 25,-24 0,-14 -11,-25 -25,-25l-233 0z"/>
     <path class="fil0" d="M1273 834c-14,0 -25,11 -25,25 0,13 11,24 25,24l49 0c14,0 25,-11 25,-24 0,-14 -11,-25 -25,-25l-49 0z"/>
     <path class="fil0" d="M1465 523c0,-39 -33,-73 -72,-73l-223 0 0 -312c0,-75 -61,-137 -136,-137l-685 0c-75,0 -136,62 -136,137l0 1403c0,75 61,136 136,136l285 0c14,0 25,-11 25,-25 0,-13 -11,-24 -25,-24l-285 0c-48,0 -87,-39 -87,-87l0 -1403c0,-48 39,-87 87,-87l685 0c48,0 87,39 87,87l0 312 -53 0c0,-50 0,-196 0,-245 0,-19 -15,-34 -34,-34 -34,0 -651,0 -685,0 -19,0 -34,15 -34,34l0 1186c0,19 15,35 34,35l685 0c19,0 34,-16 34,-35l0 -124 53 0 0 274c0,48 -39,87 -87,87l-285 0c-14,0 -25,11 -25,24 0,14 11,25 25,25l285 0c75,0 136,-61 136,-136l0 -274 223 0c39,0 72,-33 72,-72l0 -160c0,-18 -7,-35 -18,-48 11,-13 18,-30 18,-48l0 -23c0,-13 -11,-24 -24,-24 -14,0 -25,11 -25,24l0 23c0,12 -11,23 -23,23l-698 0c-5,0 -9,-1 -13,-4 -7,-4 -11,-12 -11,-19l0 -160c0,-13 11,-24 24,-24l698 0c12,0 23,11 23,24l0 23c0,13 11,24 25,24 13,0 24,-11 24,-24l0 -23c0,-18 -7,-35 -18,-48 11,-13 18,-30 18,-49l0 -159 0 0zm-974 -303l528 0 0 78 -528 0 0 -78zm-127 0l78 0 0 78 -78 0 0 -78zm331 791l698 0c12,0 23,12 23,24l0 160c0,12 -11,23 -23,23 -11,0 -688,0 -698,0 -13,0 -24,-11 -24,-23l0 -160c0,-12 11,-24 24,-24l0 0zm-73 -488l0 159c0,18 7,35 19,49 -12,13 -19,30 -19,48l0 160c0,18 7,35 19,48 -12,13 -19,30 -19,48l0 160c0,39 33,72 73,72l324 0 0 110 -655 0 0 -1030 655 0 0 103 -324 0c-40,0 -73,33 -73,73l0 0zm794 159c0,13 -11,24 -23,24l-698 0c-13,0 -24,-11 -24,-24l0 -159c0,-13 11,-24 24,-24l698 0c12,0 23,11 23,24l0 159z"/>
     <path class="fil0" d="M998 578l-233 0c-14,0 -25,11 -25,25 0,13 11,24 25,24l233 0c14,0 25,-11 25,-24 0,-14 -11,-25 -25,-25z"/>
     <path class="fil0" d="M1322 578l-49 0c-14,0 -25,11 -25,25 0,13 11,24 25,24l49 0c14,0 25,-11 25,-24 0,-14 -11,-25 -25,-25z"/>
     <path class="fil0" d="M1273 1139l49 0c14,0 25,-11 25,-24 0,-14 -11,-25 -25,-25l-49 0c-14,0 -25,11 -25,25 0,13 11,24 25,24z"/>
     <path class="fil0" d="M1127 834c-13,0 -24,11 -24,25 0,13 11,24 24,24l50 0c13,0 24,-11 24,-24 0,-14 -11,-25 -24,-25l-50 0z"/>
     <path class="fil0" d="M1177 578l-50 0c-13,0 -24,11 -24,25 0,13 11,24 24,24l50 0c13,0 24,-11 24,-24 0,-14 -11,-25 -24,-25z"/>
     <path class="fil0" d="M1127 1139l50 0c13,0 24,-11 24,-24 0,-14 -11,-25 -24,-25l-50 0c-13,0 -24,11 -24,25 0,13 11,24 24,24z"/>
    </g>
   </g>
  </g>
  <polygon class="fil1" points="0,0 1678,0 1678,1678 0,1678 "/>
 </g>
</svg>
