<?xml version="1.0" encoding="UTF-8"?>
<!DOCTYPE svg PUBLIC "-//W3C//DTD SVG 1.1//EN" "http://www.w3.org/Graphics/SVG/1.1/DTD/svg11.dtd">
<!-- Creator: CorelDRAW X7 -->
<svg xmlns="http://www.w3.org/2000/svg" xml:space="preserve" width="72.7278mm" height="72.7278mm" version="1.1" style="shape-rendering:geometricPrecision; text-rendering:geometricPrecision; image-rendering:optimizeQuality; fill-rule:evenodd; clip-rule:evenodd"
viewBox="0 0 1102 1102"
 xmlns:xlink="http://www.w3.org/1999/xlink">
 <defs>
  <style type="text/css">
   <![CDATA[
    .fil1 {fill:none}
    .fil0 {fill:#91E378}
   ]]>
  </style>
   <clipPath id="id0">
    <path d="M0 0l1102 0 0 1102 -1102 0 0 -1102z"/>
   </clipPath>
 </defs>
 <g id="Layer_x0020_1">
  <metadata id="CorelCorpID_0Corel-Layer"/>
  <g>
  </g>
  <g style="clip-path:url(#id0)">
   <g>
    <g id="_1954762985792">
     <path class="fil0" d="M330 1025l478 0c12,0 22,3 28,9 8,6 11,14 13,26l-561 0c5,-23 13,-35 42,-35zm342 -176l74 0 29 141 -132 0 29 -141zm-349 95c10,4 26,0 45,11 12,7 22,18 23,35l-68 0 0 -46zm283 46l-72 0 0 -35 79 0c-1,11 -6,23 -7,35zm9 -71l-94 0c-34,0 -57,-23 -57,-57l0 -236c0,-35 22,-58 57,-58l377 0c33,0 57,24 57,58l0 236c0,34 -24,57 -57,57 -118,0 -98,8 -104,-23l-17 -82 -136 0 -16 83c-2,9 -2,22 -10,22zm-502 -72c0,33 26,64 58,76 13,5 39,7 56,9 19,3 41,7 61,7l0 51 -114 0c-50,0 -84,-18 -106,-48 -40,-52 -27,-118 2,-177 16,-30 45,-61 75,-79 12,-7 39,-23 55,-23 3,35 35,63 64,63 23,0 39,-2 56,-20 11,-10 19,-25 21,-43 38,3 77,43 87,46 0,52 1,104 0,156 0,50 40,87 71,87l0 38 -71 0c-2,-29 -22,-54 -41,-66 -45,-28 -196,-16 -224,-48 -19,-20 -15,-49 -15,-79l-35 0 0 50zm122 -197c0,-13 6,-17 7,-29l57 0c1,12 7,16 7,29 0,55 -71,55 -71,0zm176 -169l0 -70c44,10 38,45 24,59 -6,6 -14,8 -24,11zm-281 -70l0 70c-44,-11 -38,-46 -24,-60 6,-6 14,-8 24,-10zm134 -71c25,0 40,12 42,35l35 0c0,-25 -3,-16 -7,-35 27,0 42,15 42,42l0 127c0,47 -31,77 -77,77 -54,0 -134,10 -134,-77l0 -107c0,-26 11,-46 28,-56 22,-13 40,6 42,29l36 0c0,-12 -2,-23 -7,-35zm-132 35c-20,0 -19,3 -35,7 0,-11 -2,-10 -2,-18 0,-62 34,-109 88,-135 35,-16 139,-16 173,-1 54,25 90,74 90,134 0,10 -2,9 -2,20 -16,-4 -11,-7 -33,-7 0,-40 -32,-70 -66,-70l-147 0c-14,0 -34,18 -42,26 -9,9 -22,28 -24,44zm51 -184l0 -125c0,-14 6,-24 20,-24l346 0c11,0 20,9 20,20l0 272c0,33 -35,24 -88,24 0,-28 -7,-51 -15,-71 -26,-57 -88,-105 -154,-105 -31,0 -103,-3 -129,9zm-35 18c-9,2 -27,16 -34,23 -28,28 -54,73 -54,117 0,45 7,59 7,62 0,9 -22,48 12,83 13,14 30,22 51,22 0,52 36,92 75,101l0 6c-43,4 -107,46 -136,80 -55,66 -88,175 -37,251 9,13 12,17 23,28 27,26 62,43 106,43 33,0 67,0 101,0 -13,23 -9,40 -9,70l632 0c0,-36 5,-62 -23,-87 -13,-12 -26,-18 -50,-18 -1,-12 -5,-24 -6,-35 35,0 100,4 126,-5 27,-10 58,-40 58,-77l0 -258c0,-41 -41,-82 -81,-82l-399 0c-30,0 -55,21 -67,39 -19,27 -15,48 -15,91 -8,-2 -13,-8 -20,-13 -7,-4 -15,-7 -22,-11 -11,-5 -36,-15 -50,-16l0 -6c39,-9 75,-49 75,-101 40,0 70,-34 70,-64 0,-51 -13,-14 -2,-59 18,0 70,2 85,-1 19,-4 40,-25 40,-47l0 -290c0,-24 -24,-48 -48,-48l-360 0c-17,0 -32,11 -39,22 -12,18 -9,27 -9,54 0,42 0,84 0,126z"/>
     <path class="fil0" d="M674 338l0 -276c0,-11 9,-20 20,-20l342 0c16,0 24,8 24,24l0 272c0,11 -9,20 -20,20l-346 0c-11,0 -20,-9 -20,-20zm-35 -283l0 290c0,24 24,48 48,48l360 0c24,0 48,-24 48,-48l0 -290c0,-24 -24,-48 -48,-48l-360 0c-24,0 -48,24 -48,48z"/>
     <path class="fil0" d="M744 252l70 0 0 35 -70 0 0 -35zm-35 71l140 0 0 -106 -140 0 0 106z"/>
     <polygon class="fil0" points="218,112 534,112 534,77 218,77 "/>
     <polygon class="fil0" points="709,112 1025,112 1025,77 709,77 "/>
     <polygon class="fil0" points="709,182 1025,182 1025,147 709,147 "/>
     <path class="fil0" d="M264 551c23,0 39,-2 56,-20 14,-14 21,-29 21,-50l-35 0c-11,44 -46,38 -60,24 -6,-6 -8,-14 -11,-24l-35 0c0,22 7,36 18,47 9,10 28,23 46,23z"/>
     <polygon class="fil0" points="393,182 534,182 534,147 393,147 "/>
     <polygon class="fil0" points="885,252 1025,252 1025,217 885,217 "/>
     <polygon class="fil0" points="885,323 1025,323 1025,287 885,287 "/>
     <path class="fil0" d="M306 424c0,32 35,25 35,4 0,-25 -35,-21 -35,-4z"/>
     <path class="fil0" d="M200 428c0,24 35,24 35,0 0,-24 -35,-24 -35,0z"/>
    </g>
   </g>
  </g>
  <polygon class="fil1" points="0,0 1102,0 1102,1102 0,1102 "/>
 </g>
</svg>
