<svg xmlns="http://www.w3.org/2000/svg" xmlns:xlink="http://www.w3.org/1999/xlink" width="274.877" height="274.877" version="1.1" viewBox="0 0 1622 1622" xml:space="preserve" style="shape-rendering:geometricPrecision;text-rendering:geometricPrecision;image-rendering:optimizeQuality;fill-rule:evenodd;clip-rule:evenodd"><defs><style type="text/css">.fil1{fill:none}.fil0{fill:#91e378}</style><clipPath id="id0"><path d="M0 0l1622 0 0 1622 -1622 0 0 -1622z"/></clipPath></defs><g id="Layer_x0020_1"><metadata id="CorelCorpID_0Corel-Layer"/><g style="clip-path:url(#id0)"><g><g id="_1954759239584"><path d="M1458 768l-4 -8 140 -141c23,-22 35,-52 35,-84 0,-66 -53,-120 -119,-120 -14,0 -27,3 -39,7l0 -350c0,-44 -36,-79 -79,-79l-823 0c-21,0 -41,8 -56,23l-233 233c-15,15 -23,35 -23,56l0 59c-148,13 -264,137 -264,289l0 844c0,73 59,132 132,132l316 0c73,0 132,-59 132,-132l0 -26 634 0 26 0 375 0 -58 -346c0,-124 -32,-248 -92,-357l0 0zm39 340l-258 70 -62 -50c-31,-25 -49,-62 -49,-103l0 -214 0 -26c29,0 53,23 53,52l0 185 52 0 0 -42 182 -181c51,95 79,201 82,309zm-369 -376c-29,0 -53,24 -53,53l0 26c0,15 -12,26 -26,26 -15,0 -27,-11 -27,-26l0 -26c0,-59 48,-106 106,-106l68 0 -54 54c-5,0 -9,-1 -14,-1l0 0zm-289 450l34 -86 76 75 -87 35c-11,4 -25,-5 -25,-17 0,-2 1,-4 2,-7zm157 -39l-95 -94 160 -160c5,-1 9,-2 14,-4l0 140c0,12 1,24 4,35l-83 83zm-22 -306l-295 0 0 -105 300 0c-6,16 -10,34 -10,53l0 26c0,9 2,18 5,26zm-295 53l306 0 -106 106 -200 0 0 -106zm0 159l156 0 -42 105 -114 0 0 -105zm0 158l108 0c8,30 36,53 68,53 9,0 18,-2 27,-5l61 -25 0 83 -264 0 0 -106zm317 2l15 -6 88 -88c0,2 1,4 2,5l0 193 -105 0 0 -104zm158 -32l53 43 0 93 -53 0 0 -136zm423 -642c0,18 -7,34 -20,47l-324 324 0 -69c0,-33 -15,-62 -39,-81l268 -269c13,-12 30,-19 48,-19 37,0 67,30 67,67l0 0zm-1056 -452l0 147c0,15 -12,27 -27,27l-147 0 174 -174zm-238 332c131,0 238,107 238,238 0,131 -107,237 -238,237 -131,0 -238,-106 -238,-237 0,-131 107,-238 238,-238zm-132 496c40,20 85,32 132,32 48,0 92,-12 132,-32l0 138 -264 0 0 -138zm290 666l-316 0c-44,0 -80,-36 -80,-80l0 -678c16,21 33,41 53,57l0 173c0,29 24,52 53,52l264 0c29,0 53,-23 53,-52l0 -173c20,-16 38,-36 53,-57l0 678c0,44 -36,80 -80,80zm132 -159l0 -765c0,-152 -116,-276 -264,-289l0 -55 185 0c44,0 79,-35 79,-79l0 -185 819 0c14,0 26,12 26,27l0 385 -169 169 -121 0c-47,0 -89,21 -118,53l-384 0 0 686 581 0 0 53 -634 0zm687 0l0 -191 243 -66 42 257 -285 0z" class="fil0"/><path d="M257 781l0 56 52 0 0 -56c31,-10 53,-38 53,-72 0,-28 -16,-54 -41,-67l-52 -26c-8,-4 -12,-11 -12,-20 0,-12 10,-23 22,-23l8 0c12,0 22,11 22,23l0 30 53 0 0 -30c0,-34 -22,-62 -53,-72l0 -56 -52 0 0 56c-31,10 -53,38 -53,72 0,29 16,55 42,67l51 26c8,4 12,12 12,20 0,13 -10,23 -22,23l-8 0c-12,0 -22,-10 -22,-23l0 -30 -53 0 0 30c0,34 22,62 53,72z" class="fil0"/><path d="M415 1154l-264 0c-29,0 -53,24 -53,53l0 264c0,29 24,53 53,53l264 0c29,0 53,-24 53,-53l0 -264c0,-29 -24,-53 -53,-53zm0 106l-53 0 0 -53 53 0 0 53zm-106 211l-52 0 0 -53 52 0 0 53zm0 -106l-52 0 0 -52 52 0 0 52zm-105 0l-53 0 0 -52 53 0 0 52zm53 -105l0 -53 52 0 0 53 -52 0zm-53 -53l0 53 -53 0 0 -53 53 0zm-53 211l53 0 0 53 -53 0 0 -53zm211 53l0 -158 53 0 0 158 -53 0z" class="fil0"/><path d="M1365 98l-739 0 0 159 739 0 0 -159zm-52 106l-634 0 0 -53 634 0 0 53z" class="fil0"/><polygon points="626 309 1365 309 1365 362 626 362" class="fil0"/><polygon points="626 415 1365 415 1365 468 626 468" class="fil0"/><polygon points="626 521 1049 521 1049 573 626 573" class="fil0"/></g></g></g><polygon points="0 0 1622 0 1622 1622 0 1622" class="fil1"/></g></svg>