<svg xmlns="http://www.w3.org/2000/svg" xmlns:xlink="http://www.w3.org/1999/xlink" width="274.877" height="274.877" version="1.1" viewBox="0 0 1096 1096" xml:space="preserve" style="shape-rendering:geometricPrecision;text-rendering:geometricPrecision;image-rendering:optimizeQuality;fill-rule:evenodd;clip-rule:evenodd"><defs><style type="text/css">.fil1{fill:none}.fil0{fill:#91e378}</style><clipPath id="id0"><path d="M0 0l1096 0 0 1096 -1096 0 0 -1096z"/></clipPath></defs><g id="Layer_x0020_1"><metadata id="CorelCorpID_0Corel-Layer"/><g style="clip-path:url(#id0)"><g><g id="_1954759226592"><path d="M548 193c-196,0 -355,159 -355,355 0,196 159,355 355,355 196,0 355,-159 355,-355 0,-196 -159,-355 -355,-355l0 0zm-179 615l0 -124c1,-39 29,-71 67,-76 50,59 137,69 199,23 10,-6 18,-14 25,-23 38,5 67,37 67,76l0 124c-52,35 -113,56 -179,56 -66,0 -126,-21 -179,-56zm398 -32l0 -92c-1,-64 -52,-116 -116,-116 -6,0 -12,3 -16,8 -20,28 -53,44 -87,44 -34,0 -66,-16 -87,-44 -3,-5 -9,-8 -16,-8 -63,0 -115,52 -115,116l0 92c-62,-60 -97,-142 -97,-228 0,-174 141,-315 315,-315 174,0 316,141 316,315 0,86 -35,168 -97,228z" class="fil0"/><path d="M1030 604c5,-44 4,-89 -3,-133l55 -53c6,-6 7,-14 4,-22l-62 -143c-4,-8 -12,-13 -20,-12l-76 6c-28,-36 -60,-67 -97,-92l3 -76c0,-9 -5,-16 -13,-19l-146 -56c-7,-3 -16,-1 -22,5l-49 57c-44,-5 -89,-3 -133,4l-53 -55c-6,-6 -14,-8 -22,-5l-143 63c-8,3 -13,11 -12,20l6 76c-36,27 -67,59 -92,96l-76 -2c-9,-1 -16,5 -19,12l-56 146c-3,8 -1,17 5,22l57 49c-5,45 -3,89 4,133l-55 53c-6,6 -8,15 -5,22l63 143c3,8 11,13 20,12l76 -5c27,35 59,66 96,92l-2 76c-1,8 5,16 12,19l146 56c8,3 17,1 22,-6l49 -57c45,5 89,4 133,-3l53 55c6,6 15,7 22,4l143 -62c8,-4 13,-12 12,-20l-5 -76c35,-28 66,-60 92,-97l76 3c8,0 16,-5 19,-13l56 -146c3,-7 1,-16 -6,-22l-57 -49zm-25 190l-73 -3c-7,0 -13,4 -17,9 -27,40 -60,74 -98,103 -5,4 -8,10 -8,17l6 73 -118 51 -50 -52c-5,-5 -12,-7 -18,-6 -47,8 -95,10 -142,3 -7,0 -13,2 -18,7l-47 55 -119 -46 2 -73c0,-7 -3,-13 -9,-17 -39,-27 -74,-60 -102,-98 -4,-5 -11,-8 -18,-8l-72 6 -52 -118 53 -50c5,-5 7,-12 6,-18 -9,-47 -10,-95 -4,-142 1,-7 -2,-13 -7,-18l-54 -47 46 -119 73 2c6,0 13,-3 17,-9 26,-39 59,-74 97,-102 6,-4 9,-11 8,-18l-5 -72 117 -52 51 53c4,5 11,7 17,6 47,-9 95,-10 142,-4 7,1 14,-2 18,-7l47 -54 120 46 -3 73c0,6 4,13 9,17 40,26 74,59 103,97 4,6 10,9 17,8l73 -5 51 117 -52 51c-5,4 -7,11 -6,17 8,47 10,95 3,142 0,7 2,14 7,18l55 47 -46 120z" class="fil0"/><path d="M548 313c-69,0 -126,56 -126,126 0,69 57,126 126,126 70,0 126,-57 126,-126 0,-70 -56,-126 -126,-126zm0 212c-48,0 -86,-39 -86,-86 0,-48 38,-87 86,-87 48,0 87,39 87,87 0,47 -39,86 -87,86z" class="fil0"/></g></g></g><polygon points="0 0 1096 0 1096 1096 0 1096" class="fil1"/></g></svg>