<?xml version="1.0" encoding="UTF-8"?>
<!DOCTYPE svg PUBLIC "-//W3C//DTD SVG 1.1//EN" "http://www.w3.org/Graphics/SVG/1.1/DTD/svg11.dtd">
<!-- Creator: CorelDRAW X7 -->
<svg xmlns="http://www.w3.org/2000/svg" xml:space="preserve" width="72.7278mm" height="72.7278mm" version="1.1" style="shape-rendering:geometricPrecision; text-rendering:geometricPrecision; image-rendering:optimizeQuality; fill-rule:evenodd; clip-rule:evenodd"
viewBox="0 0 810 810"
 xmlns:xlink="http://www.w3.org/1999/xlink">
 <defs>
  <style type="text/css">
   <![CDATA[
    .fil1 {fill:none}
    .fil0 {fill:#91E378}
   ]]>
  </style>
   <clipPath id="id0">
    <path d="M0 0l810 0 0 810 -810 0 0 -810z"/>
   </clipPath>
 </defs>
 <g id="Layer_x0020_1">
  <metadata id="CorelCorpID_0Corel-Layer"/>
  <g>
  </g>
  <g style="clip-path:url(#id0)">
   <g>
    <g id="_1956337224048">
     <path class="fil0" d="M20 749c0,-45 -7,-36 117,-36 44,0 89,0 133,0 2,6 13,21 17,27 9,14 10,12 31,12 15,0 26,2 42,2 9,-1 11,-2 21,-2 7,0 15,0 22,0 29,0 58,0 87,0 22,0 23,4 33,-11 4,-6 15,-22 17,-28l231 0c23,0 19,14 19,36 0,24 -17,41 -41,41l-688 0c-24,0 -41,-17 -41,-41zm282 -36l206 0c-2,7 -5,7 -7,13l-192 0 -7 -13zm347 -462l39 0 0 385 -39 0 0 -385zm-462 -154l436 0 0 539 -436 0 0 -539zm-65 154l39 0 0 385 -39 0 0 -385zm-25 -13l0 411c0,8 5,13 13,13l591 0c7,0 12,-5 12,-13l0 -414c0,-5 -7,-10 -12,-10l-52 0 0 -26 60 0c19,0 30,11 30,31l0 458 -668 0 0 -458c0,-20 10,-31 30,-31l60 0 0 26 -51 0c-8,0 -13,5 -13,13zm90 -218l436 0 0 51 -436 0 0 -51zm-26 -13l0 167 -68 0c-24,0 -48,23 -48,48l0 466 -16 0c-17,0 -35,17 -35,35l0 34c0,29 30,59 59,59l704 0c29,0 59,-30 59,-59l0 -34c0,-18 -18,-35 -35,-35l-16 0 0 -466c0,-25 -24,-48 -48,-48l-68 0 0 -167c0,-8 -5,-13 -13,-13l-462 0c-8,0 -13,5 -13,13z"/>
     <path class="fil0" d="M400 301c37,0 64,20 72,56 -10,7 -16,10 -29,15 -36,14 -74,6 -105,-15 1,-14 12,-32 20,-39 10,-8 25,-17 42,-17zm-29 -63l0 -6c0,-49 68,-49 68,0 0,59 -68,50 -68,6zm-25 -14c0,37 -2,32 17,61 -16,3 -42,34 -46,51 -15,-10 -28,-50 -28,-71 0,-75 71,-134 150,-111 63,18 100,90 71,157 -3,7 -11,21 -17,25 -4,-17 -30,-48 -46,-51 3,-7 6,-8 10,-15 9,-17 11,-41 6,-59 -22,-68 -117,-46 -117,13zm-82 33c0,64 29,109 79,134 55,28 117,13 162,-26 22,-19 41,-60 41,-92 0,-54 -11,-72 -39,-108 -3,-5 -4,-5 -8,-8 -12,-10 -11,-11 -30,-20 -38,-19 -87,-20 -126,-1 -43,22 -79,69 -79,121z"/>
     <path class="fil0" d="M277 559l256 0 0 26 -256 0 0 -26zm-26 -13l0 52c0,8 5,13 13,13l282 0c8,0 13,-5 13,-13l0 -55c0,-4 -6,-10 -9,-10l-286 0c-8,0 -13,6 -13,13z"/>
     <path class="fil0" d="M277 456l256 0 0 26 -256 0 0 -26zm-26 -12l0 51c0,8 5,13 13,13l282 0c8,0 13,-5 13,-13l0 -51c0,-8 -5,-13 -13,-13l-282 0c-8,0 -13,5 -13,13z"/>
     <path class="fil0" d="M315 45c0,19 26,15 26,3 0,-7 0,-16 -13,-16 -8,0 -13,5 -13,13z"/>
     <path class="fil0" d="M212 45c0,18 26,18 26,0 0,-17 -26,-17 -26,0z"/>
     <path class="fil0" d="M264 45c0,18 25,18 25,0 0,-17 -25,-17 -25,0z"/>
    </g>
   </g>
  </g>
  <polygon class="fil1" points="0,0 810,0 810,810 0,810 "/>
 </g>
</svg>
