<svg xmlns="http://www.w3.org/2000/svg" xmlns:xlink="http://www.w3.org/1999/xlink" width="274.877" height="274.877" version="1.1" viewBox="0 0 808 808" xml:space="preserve" style="shape-rendering:geometricPrecision;text-rendering:geometricPrecision;image-rendering:optimizeQuality;fill-rule:evenodd;clip-rule:evenodd"><defs><style type="text/css">.fil1{fill:none}.fil0{fill:#91e378}</style><clipPath id="id0"><path d="M0 0l808 0 0 808 -808 0 0 -808z"/></clipPath></defs><g id="Layer_x0020_1"><metadata id="CorelCorpID_0Corel-Layer"/><g style="clip-path:url(#id0)"><g><g id="_1954757118624"><path d="M763 721l0 -13c0,-17 -11,-32 -27,-38l0 -15c0,-17 -10,-32 -26,-38l0 -204c16,-6 26,-21 26,-38l0 -23 25 -48 38 -39c5,-5 5,-13 0,-19 -1,0 -2,-1 -3,-2l-385 -235c-4,-2 -10,-2 -14,0l-385 235c-7,4 -9,12 -5,19 1,1 1,1 2,2l39 39 24 48 0 23c0,17 10,32 26,38l0 204c-16,6 -26,21 -26,38l0 15c-16,6 -27,21 -27,38l0 13c-22,0 -40,18 -40,40l0 27c0,7 6,13 14,13 0,0 0,0 0,0l771 0c7,0 13,-6 13,-13 0,0 0,0 0,0l0 -27c0,-22 -18,-40 -40,-40zm-53 -346c0,8 -6,14 -13,14l-80 0c-8,0 -14,-6 -14,-14l0 -13 107 0 0 13 0 0zm-372 242l0 -204c15,-6 26,-21 26,-38l0 -13 80 0 0 13c0,17 11,32 27,38l0 204c-16,6 -27,21 -27,38l0 13 -80 0 0 -13c0,-17 -11,-32 -26,-38zm-226 -228c-8,0 -14,-6 -14,-14l0 -13 107 0 0 13c0,8 -6,14 -14,14l-79 0zm66 26l0 200 -53 0 0 -200 53 0zm27 -2c5,-2 9,-5 13,-8 4,3 8,6 13,8l0 204c-5,2 -9,5 -13,8 -4,-3 -8,-6 -13,-8l0 -204zm26 242c0,-8 6,-14 14,-14l79 0c8,0 14,6 14,14l0 13 -107 0 0 -13zm27 -40l0 -200 53 0 0 200 -53 0zm66 -226l-79 0c-8,0 -14,-6 -14,-14l0 -13 107 0 0 13c0,8 -6,14 -14,14zm147 266c0,-8 5,-14 13,-14l80 0c7,0 13,6 13,14l0 13 -106 0 0 -13zm26 -40l0 -200 53 0 0 200 -53 0zm67 -226l-80 0c-8,0 -13,-6 -13,-14l0 -13 106 0 0 13c0,8 -6,14 -13,14zm13 24c5,-2 9,-5 13,-8 4,3 9,6 13,8l0 204c-4,2 -9,5 -13,8 -4,-3 -8,-6 -13,-8l0 -204zm26 242c0,-8 6,-14 14,-14l80 0c7,0 13,6 13,14l0 13 -107 0 0 -13 0 0zm27 -40l0 -200 53 0 0 200 -53 0zm-570 -336l-20 -21 364 -222 364 222 -20 21 -337 -207c-4,-3 -10,-3 -14,0l-337 207zm643 3l-598 0 299 -183 299 183zm-610 54l-13 -27 648 0 -13 27 -622 0zm5 319c0,-8 6,-14 14,-14l79 0c8,0 14,6 14,14l0 13 -107 0 0 -13zm678 119l-744 0 0 -13c0,-7 6,-13 13,-13l279 0c8,0 14,-6 14,-14 0,-7 -6,-13 -14,-13l-252 0 0 -13c0,-8 6,-14 14,-14l637 0c7,0 13,6 13,14l0 13 -252 0c-8,0 -13,6 -13,13 0,8 5,14 13,14l279 0c7,0 13,6 13,13l0 13z" class="fil0"/><path d="M404 143c-29,0 -53,24 -53,53 0,29 24,53 53,53 29,0 53,-24 53,-53 0,-29 -24,-53 -53,-53zm0 80c-15,0 -27,-12 -27,-27 0,-15 12,-27 27,-27 15,0 27,12 27,27 0,15 -12,27 -27,27z" class="fil0"/></g></g></g><polygon points="0 0 808 0 808 808 0 808" class="fil1"/></g></svg>