<?xml version="1.0" encoding="utf-8"?>
<!-- Generator: Adobe Illustrator 23.0.6, SVG Export Plug-In . SVG Version: 6.00 Build 0)  -->
<svg version="1.1" id="Capa_1" xmlns="http://www.w3.org/2000/svg" xmlns:xlink="http://www.w3.org/1999/xlink" x="0px" y="0px"
	 viewBox="0 0 512 512" style="enable-background:new 0 0 512 512;" xml:space="preserve">
<style type="text/css">
	.st0{fill-rule:evenodd;clip-rule:evenodd;fill:#C6D0DA;}
	.st1{fill-rule:evenodd;clip-rule:evenodd;fill:#FAF8F9;}
	.st2{fill-rule:evenodd;clip-rule:evenodd;fill:#CCF49F;}
	.st3{fill-rule:evenodd;clip-rule:evenodd;fill:#FFBF14;}
	.st4{fill-rule:evenodd;clip-rule:evenodd;fill:#685D68;}
	.st5{fill-rule:evenodd;clip-rule:evenodd;fill:#E5E1E5;}
	.st6{fill-rule:evenodd;clip-rule:evenodd;fill:#EAA200;}
	.st7{fill-rule:evenodd;clip-rule:evenodd;fill:#A0AAB7;}
	.st8{fill-rule:evenodd;clip-rule:evenodd;fill:#95D6A4;}
</style>
<g>
	<g>
		<path class="st0" d="M70.3,18.3v270.1H117L399.9,52.2V18.3c0-5.9-4.9-10.8-10.8-10.8h-308C75.2,7.5,70.3,12.3,70.3,18.3L70.3,18.3
			z"/>
	</g>
	<g>
		<path class="st1" d="M126.3,52.2c-5.1,0-9.3,4.2-9.3,9.2v226.9l157.9,24.1L420.2,227V61.4c0-5.1-4.2-9.2-9.3-9.2h-11.1L126.3,52.2
			z"/>
	</g>
	<g>
		<path class="st2" d="M210.6,105c-11.3,13-25.5,18.9-43.4,20.4c-2,0.2-3.1-0.2-3.3,2.1c-2.3,45.4,18.5,71.4,46.9,90.1
			c0.6,0.4,0.4,0.4,1,0c28.4-18.7,49.2-44.7,46.9-90.1c-0.1-2.3-1.2-2-3.3-2.1c-18-1.6-32.1-7.4-43.4-20.4
			C211.2,104,211.5,104,210.6,105L210.6,105z"/>
	</g>
	<g>
		<path class="st3" d="M247.6,288.4H117H70.3h-4.2c-11.6,0-21.1,9.5-21.1,21.1v145.2c0,11.6,9.5,21.1,21.1,21.1h201.2h157.4h21.1
			c11.6,0,21.1-9.5,21.1-21.1V253.1c0-14.4-11.8-26.1-26.1-26.1l-20.6,0l-20.4,0l-91.9,0.1c-8,0-15,1.6-19.5,15.2l-9.8,29.5
			C276.3,287.7,264.8,288.4,247.6,288.4L247.6,288.4z"/>
	</g>
	<g>
		<path class="st0" d="M277.4,375.1c-6,3.6-10.1,10.2-10.1,17.7v83.1v7.9c0,11.4,9.3,20.7,20.7,20.7H404c11.4,0,20.7-9.3,20.7-20.7
			v-7.9v-83.1c0-11.4-9.3-20.7-20.7-20.7h-4.2H395h-97.8h-9.1C284.2,372.1,280.6,373.2,277.4,375.1L277.4,375.1z M327.9,432.3
			c0-10.1,8.1-18.2,18.2-18.2s18.2,8.2,18.2,18.2c0,10-8.1,18.2-18.2,18.2S327.9,442.3,327.9,432.3z"/>
	</g>
	<g>
		<path class="st4" d="M346.1,414c-10.1,0-18.2,8.2-18.2,18.2c0,10,8.1,18.2,18.2,18.2s18.2-8.2,18.2-18.2
			C364.3,422.2,356.1,414,346.1,414z"/>
	</g>
	<g>
		<path class="st5" d="M399.9,52.2l-54.5,0c32.9,50.7,43.8,115.6,35.3,174.9l19.2,0l20.4,0V61.4c0-5.1-4.2-9.2-9.3-9.2L399.9,52.2z"
			/>
	</g>
	<g>
		<path class="st6" d="M399.9,227l-14.7,0c5.5,0,10.5,1.8,14.7,4.6c1.8,1.3,3.5,2.7,4.9,4.4c4,4.6,6.4,10.6,6.4,17.1v111.7v8.5
			c7.9,2.9,13.6,10.5,13.6,19.4v83.1h21.1c11.6,0,21.1-9.5,21.1-21.1V253.1c0-14.4-11.8-26.1-26.1-26.1l-20.6,0L399.9,227z"/>
	</g>
	<g>
		<path class="st7" d="M399,392.8v83.1v7.9c0,11.4-9.3,20.7-20.7,20.7H404c11.4,0,20.7-9.3,20.7-20.7v-7.9v-83.1
			c0-8.9-5.7-16.5-13.6-19.4c-2.2-0.8-4.6-1.3-7.2-1.3h-4.2H395h-16.7c3.9,0,7.5,1.1,10.6,3C394.9,378.7,399,385.3,399,392.8z"/>
	</g>
	<g>
		<path class="st8" d="M222.6,114.6c0.6,5,0.9,10,0.9,15.1c0,29.4-9.8,56.4-26.3,77.8c2.8,2.4,5.7,4.6,8.7,6.7
			c1.6,1.2,3.3,2.3,5,3.4c0.6,0.4,0.4,0.4,1,0c15.7-10.3,29.1-22.9,37.5-39.8c6.8-13.6,10.4-30,9.4-50.3c-0.1-2.3-1.2-2-3.3-2.1
			C242.7,124.3,231.9,121,222.6,114.6L222.6,114.6z"/>
	</g>
	<g>
		<path d="M256.7,118c-0.2,0-0.4,0-0.6,0c-17.1-1.5-28.9-7-38.4-17.9l-0.2-0.2c-1.7-2.1-3.8-3.1-6.2-3.1c-2.4,0-4.5,1.1-6.2,3.2
			l-0.2,0.2c-9.4,10.8-21.3,16.3-38.4,17.8c-0.2,0-0.4,0-0.6,0c-8.2,0.4-9.4,6.6-9.5,9.2c-2.2,42,13.8,72.8,50.3,96.7
			c1.4,1,3,1.5,4.6,1.5c1.6,0,3.2-0.5,4.6-1.5c36.4-23.9,52.4-54.7,50.3-96.8C266.1,124.5,264.8,118.4,256.7,118L256.7,118z
			 M211.3,208.9c-28.1-19.7-40.6-43.5-40.1-76.4c16.6-2,29.5-7.6,40.1-17.5c10.5,9.9,23.5,15.5,40.1,17.5
			C251.9,165.4,239.4,189.3,211.3,208.9L211.3,208.9z"/>
		<path d="M371.2,97.4h-65c-4.1,0-7.5,3.4-7.5,7.5s3.4,7.5,7.5,7.5h65c4.1,0,7.5-3.4,7.5-7.5S375.4,97.4,371.2,97.4z"/>
		<path d="M371.2,133.8h-65c-4.1,0-7.5,3.4-7.5,7.5s3.4,7.5,7.5,7.5h65c4.1,0,7.5-3.4,7.5-7.5S375.4,133.8,371.2,133.8z"/>
		<path d="M371.2,170.2h-65c-4.1,0-7.5,3.4-7.5,7.5s3.4,7.5,7.5,7.5h65c4.1,0,7.5-3.4,7.5-7.5S375.4,170.2,371.2,170.2z"/>
		<path d="M440.9,219.5l-13.1,0V61.4c0-9.2-7.5-16.7-16.8-16.7h-3.6V18.3c0-10.1-8.2-18.3-18.3-18.3h-308C71,0,62.8,8.2,62.8,18.3
			v262.8c-14.2,1.7-25.3,13.8-25.3,28.4v145.2c0,15.8,12.8,28.6,28.6,28.6h61.5c4.1,0,7.5-3.4,7.5-7.5s-3.4-7.5-7.5-7.5H66.1
			c-7.5,0-13.6-6.1-13.6-13.6V309.5c0-7.5,6.1-13.6,13.6-13.6h181.5c15.4,0,34.6,0,38.4-22.1l9.6-29c3.3-10,7.1-10.1,12.4-10.1
			l132.9-0.2c10.3,0,18.6,8.4,18.6,18.6v201.6c0,7.5-6.1,13.6-13.6,13.6h-13.6v-75.6c0-15.6-12.7-28.2-28.2-28.2h-1.6v-19.7
			c0-19.2-15.6-34.8-34.7-34.8h-43.4c-19.2,0-34.8,15.6-34.8,34.8v19.7h-1.6c-15.6,0-28.2,12.7-28.2,28.2v75.6h-93.1
			c-4.1,0-7.5,3.4-7.5,7.5s3.4,7.5,7.5,7.5h93.1v0.4c0,15.6,12.7,28.2,28.2,28.2H404c15.6,0,28.2-12.7,28.2-28.2v-0.4h13.6
			c15.8,0,28.6-12.8,28.6-28.6V253.1C474.5,234.6,459.4,219.5,440.9,219.5L440.9,219.5z M308,219.7c-9.8,0-20.7,2.5-26.6,20.4
			l-9.8,29.5c-0.1,0.4-0.2,0.8-0.3,1.2c-1.3,8.6-4.9,10.1-23.7,10.1H124.5V61.4c0-0.9,0.8-1.7,1.8-1.7h75.5c4.1,0,7.5-3.4,7.5-7.5
			s-3.4-7.5-7.5-7.5h-75.5c-9.2,0-16.8,7.5-16.8,16.7v219.4H77.8V18.3c0-1.8,1.5-3.3,3.3-3.3h308c1.8,0,3.3,1.5,3.3,3.3v26.4H237
			c-4.1,0-7.5,3.4-7.5,7.5s3.4,7.5,7.5,7.5h174c1,0,1.8,0.8,1.8,1.7v158.1L308,219.7z M304.6,344.9c0-10.9,8.9-19.8,19.8-19.8h43.4
			c10.9,0,19.7,8.9,19.7,19.8v19.7h-82.8L304.6,344.9L304.6,344.9z M417.2,483.8c0,7.3-5.9,13.2-13.2,13.2H288.1
			c-7.3,0-13.2-5.9-13.2-13.2v-91c0-7.3,5.9-13.2,13.2-13.2H404c7.3,0,13.2,5.9,13.2,13.2V483.8z"/>
		<path d="M346.1,406.5c-14.2,0-25.7,11.5-25.7,25.7c0,11.6,7.7,21.4,18.2,24.6v15.8c0,4.1,3.4,7.5,7.5,7.5s7.5-3.4,7.5-7.5v-15.8
			c10.5-3.2,18.2-13,18.2-24.6C371.8,418.1,360.2,406.5,346.1,406.5z M346.1,443c-5.9,0-10.7-4.8-10.7-10.7
			c0-5.9,4.8-10.7,10.7-10.7c5.9,0,10.7,4.8,10.7,10.7C356.8,438.2,352,443,346.1,443z"/>
	</g>
</g>
</svg>
