<svg width="551" height="367" viewBox="0 0 551 367" fill="none" xmlns="http://www.w3.org/2000/svg">
<g filter="url(#filter0_ddd)">
<path d="M376.47 21.8976H157.712C130.322 21.8976 108 44.1384 108 71.6976C108 99.1359 130.202 121.498 157.712 121.498H376.47C403.86 121.498 426.182 99.2568 426.182 71.6976C426.182 44.1384 403.981 21.8976 376.47 21.8976Z" fill="#00A79D"/>
</g>
<path d="M379.914 140.576H321.152V136.587H379.914C415.75 136.587 444.83 107.457 444.83 71.5573C444.83 35.6578 415.75 6.52717 379.914 6.52717H321.152V2.53833H379.914C417.922 2.53833 448.811 33.482 448.811 71.5573C448.811 109.633 417.922 140.576 379.914 140.576Z" fill="#93F5E4"/>
<path d="M212.317 140.576H153.555C115.547 140.576 84.6582 109.633 84.6582 71.5573C84.6582 33.482 115.547 2.53833 153.555 2.53833H212.317V6.52717H153.555C117.719 6.52717 88.64 35.6578 88.64 71.5573C88.64 107.457 117.719 136.587 153.555 136.587H212.317V140.576Z" fill="#93F5E4"/>
<path d="M443.141 189.047C442.779 189.047 442.538 188.805 442.538 188.442C442.538 178.289 434.333 170.069 424.197 170.069H313.913C304.26 170.069 296.297 162.213 296.297 152.422V138.642C296.297 138.28 296.538 138.038 296.9 138.038C297.262 138.038 297.503 138.28 297.503 138.642V152.422C297.503 161.366 304.864 168.74 313.793 168.74H424.077C434.936 168.74 443.744 177.564 443.744 188.442C443.865 188.684 443.503 189.047 443.141 189.047Z" fill="#095FAF"/>
<path d="M90.3289 189.047C89.9669 189.047 89.7256 188.805 89.7256 188.442C89.7256 177.564 98.5338 168.74 109.393 168.74H219.677C228.606 168.74 235.966 161.366 235.966 152.422V138.642C235.966 138.28 236.208 138.038 236.57 138.038C236.932 138.038 237.173 138.28 237.173 138.642V152.422C237.173 162.092 229.33 170.069 219.557 170.069H109.273C99.1371 170.069 90.9322 178.289 90.9322 188.442C90.9322 188.684 90.6909 189.047 90.3289 189.047Z" fill="#095FAF"/>
<path d="M443.141 192.915C445.673 192.915 447.726 190.858 447.726 188.321C447.726 185.785 445.673 183.728 443.141 183.728C440.609 183.728 438.556 185.785 438.556 188.321C438.556 190.858 440.609 192.915 443.141 192.915Z" fill="#303942"/>
<path d="M296.9 143.115C299.432 143.115 301.485 141.058 301.485 138.521C301.485 135.985 299.432 133.928 296.9 133.928C294.367 133.928 292.314 135.985 292.314 138.521C292.314 141.058 294.367 143.115 296.9 143.115Z" fill="#303942"/>
<path d="M236.448 143.115C238.981 143.115 241.033 141.058 241.033 138.521C241.033 135.985 238.981 133.928 236.448 133.928C233.916 133.928 231.863 135.985 231.863 138.521C231.863 141.058 233.916 143.115 236.448 143.115Z" fill="#6B88B6"/>
<path d="M296.9 9.18643C299.432 9.18643 301.485 7.12998 301.485 4.59322C301.485 2.05645 299.432 0 296.9 0C294.367 0 292.314 2.05645 292.314 4.59322C292.314 7.12998 294.367 9.18643 296.9 9.18643Z" fill="#2A526A"/>
<path d="M236.448 9.18643C238.981 9.18643 241.033 7.12998 241.033 4.59322C241.033 2.05645 238.981 0 236.448 0C233.916 0 231.863 2.05645 231.863 4.59322C231.863 7.12998 233.916 9.18643 236.448 9.18643Z" fill="#00ACB4"/>
<path d="M201.455 74.9026H197.285L196.595 76.8976H194.39L198.155 66.4126H200.6L204.365 76.8976H202.145L201.455 74.9026ZM200.885 73.2226L199.37 68.8426L197.855 73.2226H200.885ZM205.532 72.7126C205.532 71.8726 205.697 71.1276 206.027 70.4776C206.367 69.8276 206.827 69.3276 207.407 68.9776C207.987 68.6276 208.632 68.4526 209.342 68.4526C209.882 68.4526 210.397 68.5726 210.887 68.8126C211.377 69.0426 211.767 69.3526 212.057 69.7426V65.7976H214.187V76.8976H212.057V75.6676C211.797 76.0776 211.432 76.4076 210.962 76.6576C210.492 76.9076 209.947 77.0326 209.327 77.0326C208.627 77.0326 207.987 76.8526 207.407 76.4926C206.827 76.1326 206.367 75.6276 206.027 74.9776C205.697 74.3176 205.532 73.5626 205.532 72.7126ZM212.072 72.7426C212.072 72.2326 211.972 71.7976 211.772 71.4376C211.572 71.0676 211.302 70.7876 210.962 70.5976C210.622 70.3976 210.257 70.2976 209.867 70.2976C209.477 70.2976 209.117 70.3926 208.787 70.5826C208.457 70.7726 208.187 71.0526 207.977 71.4226C207.777 71.7826 207.677 72.2126 207.677 72.7126C207.677 73.2126 207.777 73.6526 207.977 74.0326C208.187 74.4026 208.457 74.6876 208.787 74.8876C209.127 75.0876 209.487 75.1876 209.867 75.1876C210.257 75.1876 210.622 75.0926 210.962 74.9026C211.302 74.7026 211.572 74.4226 211.772 74.0626C211.972 73.6926 212.072 73.2526 212.072 72.7426ZM226.858 68.4676C227.878 68.4676 228.698 68.7826 229.318 69.4126C229.948 70.0326 230.263 70.9026 230.263 72.0226V76.8976H228.163V72.3076C228.163 71.6576 227.998 71.1626 227.668 70.8226C227.338 70.4726 226.888 70.2976 226.318 70.2976C225.748 70.2976 225.293 70.4726 224.953 70.8226C224.623 71.1626 224.458 71.6576 224.458 72.3076V76.8976H222.358V72.3076C222.358 71.6576 222.193 71.1626 221.863 70.8226C221.533 70.4726 221.083 70.2976 220.513 70.2976C219.933 70.2976 219.473 70.4726 219.133 70.8226C218.803 71.1626 218.638 71.6576 218.638 72.3076V76.8976H216.538V68.5876H218.638V69.5926C218.908 69.2426 219.253 68.9676 219.673 68.7676C220.103 68.5676 220.573 68.4676 221.083 68.4676C221.733 68.4676 222.313 68.6076 222.823 68.8876C223.333 69.1576 223.728 69.5476 224.008 70.0576C224.278 69.5776 224.668 69.1926 225.178 68.9026C225.698 68.6126 226.258 68.4676 226.858 68.4676ZM233.621 67.5976C233.251 67.5976 232.941 67.4826 232.691 67.2526C232.451 67.0126 232.331 66.7176 232.331 66.3676C232.331 66.0176 232.451 65.7276 232.691 65.4976C232.941 65.2576 233.251 65.1376 233.621 65.1376C233.991 65.1376 234.296 65.2576 234.536 65.4976C234.786 65.7276 234.911 66.0176 234.911 66.3676C234.911 66.7176 234.786 67.0126 234.536 67.2526C234.296 67.4826 233.991 67.5976 233.621 67.5976ZM234.656 68.5876V76.8976H232.556V68.5876H234.656ZM241.636 68.4676C242.626 68.4676 243.426 68.7826 244.036 69.4126C244.646 70.0326 244.951 70.9026 244.951 72.0226V76.8976H242.851V72.3076C242.851 71.6476 242.686 71.1426 242.356 70.7926C242.026 70.4326 241.576 70.2526 241.006 70.2526C240.426 70.2526 239.966 70.4326 239.626 70.7926C239.296 71.1426 239.131 71.6476 239.131 72.3076V76.8976H237.031V68.5876H239.131V69.6226C239.411 69.2626 239.766 68.9826 240.196 68.7826C240.636 68.5726 241.116 68.4676 241.636 68.4676ZM248.313 67.5976C247.943 67.5976 247.633 67.4826 247.383 67.2526C247.143 67.0126 247.023 66.7176 247.023 66.3676C247.023 66.0176 247.143 65.7276 247.383 65.4976C247.633 65.2576 247.943 65.1376 248.313 65.1376C248.683 65.1376 248.988 65.2576 249.228 65.4976C249.478 65.7276 249.603 66.0176 249.603 66.3676C249.603 66.7176 249.478 67.0126 249.228 67.2526C248.988 67.4826 248.683 67.5976 248.313 67.5976ZM249.348 68.5876V76.8976H247.248V68.5876H249.348ZM254.903 77.0326C254.223 77.0326 253.613 76.9126 253.073 76.6726C252.533 76.4226 252.103 76.0876 251.783 75.6676C251.473 75.2476 251.303 74.7826 251.273 74.2726H253.388C253.428 74.5926 253.583 74.8576 253.853 75.0676C254.133 75.2776 254.478 75.3826 254.888 75.3826C255.288 75.3826 255.598 75.3026 255.818 75.1426C256.048 74.9826 256.163 74.7776 256.163 74.5276C256.163 74.2576 256.023 74.0576 255.743 73.9276C255.473 73.7876 255.038 73.6376 254.438 73.4776C253.818 73.3276 253.308 73.1726 252.908 73.0126C252.518 72.8526 252.178 72.6076 251.888 72.2776C251.608 71.9476 251.468 71.5026 251.468 70.9426C251.468 70.4826 251.598 70.0626 251.858 69.6826C252.128 69.3026 252.508 69.0026 252.998 68.7826C253.498 68.5626 254.083 68.4526 254.753 68.4526C255.743 68.4526 256.533 68.7026 257.123 69.2026C257.713 69.6926 258.038 70.3576 258.098 71.1976H256.088C256.058 70.8676 255.918 70.6076 255.668 70.4176C255.428 70.2176 255.103 70.1176 254.693 70.1176C254.313 70.1176 254.018 70.1876 253.808 70.3276C253.608 70.4676 253.508 70.6626 253.508 70.9126C253.508 71.1926 253.648 71.4076 253.928 71.5576C254.208 71.6976 254.643 71.8426 255.233 71.9926C255.833 72.1426 256.328 72.2976 256.718 72.4576C257.108 72.6176 257.443 72.8676 257.723 73.2076C258.013 73.5376 258.163 73.9776 258.173 74.5276C258.173 75.0076 258.038 75.4376 257.768 75.8176C257.508 76.1976 257.128 76.4976 256.628 76.7176C256.138 76.9276 255.563 77.0326 254.903 77.0326ZM262.642 70.3126V74.3326C262.642 74.6126 262.707 74.8176 262.837 74.9476C262.977 75.0676 263.207 75.1276 263.527 75.1276H264.502V76.8976H263.182C261.412 76.8976 260.527 76.0376 260.527 74.3176V70.3126H259.537V68.5876H260.527V66.5326H262.642V68.5876H264.502V70.3126H262.642ZM268.412 69.8776C268.682 69.4376 269.032 69.0926 269.462 68.8426C269.902 68.5926 270.402 68.4676 270.962 68.4676V70.6726H270.407C269.747 70.6726 269.247 70.8276 268.907 71.1376C268.577 71.4476 268.412 71.9876 268.412 72.7576V76.8976H266.312V68.5876H268.412V69.8776ZM272.136 72.7126C272.136 71.8726 272.301 71.1276 272.631 70.4776C272.971 69.8276 273.426 69.3276 273.996 68.9776C274.576 68.6276 275.221 68.4526 275.931 68.4526C276.551 68.4526 277.091 68.5776 277.551 68.8276C278.021 69.0776 278.396 69.3926 278.676 69.7726V68.5876H280.791V76.8976H278.676V75.6826C278.406 76.0726 278.031 76.3976 277.551 76.6576C277.081 76.9076 276.536 77.0326 275.916 77.0326C275.216 77.0326 274.576 76.8526 273.996 76.4926C273.426 76.1326 272.971 75.6276 272.631 74.9776C272.301 74.3176 272.136 73.5626 272.136 72.7126ZM278.676 72.7426C278.676 72.2326 278.576 71.7976 278.376 71.4376C278.176 71.0676 277.906 70.7876 277.566 70.5976C277.226 70.3976 276.861 70.2976 276.471 70.2976C276.081 70.2976 275.721 70.3926 275.391 70.5826C275.061 70.7726 274.791 71.0526 274.581 71.4226C274.381 71.7826 274.281 72.2126 274.281 72.7126C274.281 73.2126 274.381 73.6526 274.581 74.0326C274.791 74.4026 275.061 74.6876 275.391 74.8876C275.731 75.0876 276.091 75.1876 276.471 75.1876C276.861 75.1876 277.226 75.0926 277.566 74.9026C277.906 74.7026 278.176 74.4226 278.376 74.0626C278.576 73.6926 278.676 73.2526 278.676 72.7426ZM286.322 77.0326C285.642 77.0326 285.032 76.9126 284.492 76.6726C283.952 76.4226 283.522 76.0876 283.202 75.6676C282.892 75.2476 282.722 74.7826 282.692 74.2726H284.807C284.847 74.5926 285.002 74.8576 285.272 75.0676C285.552 75.2776 285.897 75.3826 286.307 75.3826C286.707 75.3826 287.017 75.3026 287.237 75.1426C287.467 74.9826 287.582 74.7776 287.582 74.5276C287.582 74.2576 287.442 74.0576 287.162 73.9276C286.892 73.7876 286.457 73.6376 285.857 73.4776C285.237 73.3276 284.727 73.1726 284.327 73.0126C283.937 72.8526 283.597 72.6076 283.307 72.2776C283.027 71.9476 282.887 71.5026 282.887 70.9426C282.887 70.4826 283.017 70.0626 283.277 69.6826C283.547 69.3026 283.927 69.0026 284.417 68.7826C284.917 68.5626 285.502 68.4526 286.172 68.4526C287.162 68.4526 287.952 68.7026 288.542 69.2026C289.132 69.6926 289.457 70.3576 289.517 71.1976H287.507C287.477 70.8676 287.337 70.6076 287.087 70.4176C286.847 70.2176 286.522 70.1176 286.112 70.1176C285.732 70.1176 285.437 70.1876 285.227 70.3276C285.027 70.4676 284.927 70.6626 284.927 70.9126C284.927 71.1926 285.067 71.4076 285.347 71.5576C285.627 71.6976 286.062 71.8426 286.652 71.9926C287.252 72.1426 287.747 72.2976 288.137 72.4576C288.527 72.6176 288.862 72.8676 289.142 73.2076C289.432 73.5376 289.582 73.9776 289.592 74.5276C289.592 75.0076 289.457 75.4376 289.187 75.8176C288.927 76.1976 288.547 76.4976 288.047 76.7176C287.557 76.9276 286.982 77.0326 286.322 77.0326ZM292.681 67.5976C292.311 67.5976 292.001 67.4826 291.751 67.2526C291.511 67.0126 291.391 66.7176 291.391 66.3676C291.391 66.0176 291.511 65.7276 291.751 65.4976C292.001 65.2576 292.311 65.1376 292.681 65.1376C293.051 65.1376 293.356 65.2576 293.596 65.4976C293.846 65.7276 293.971 66.0176 293.971 66.3676C293.971 66.7176 293.846 67.0126 293.596 67.2526C293.356 67.4826 293.051 67.5976 292.681 67.5976ZM293.716 68.5876V76.8976H291.616V68.5876H293.716ZM303.625 66.4276C304.725 66.4276 305.69 66.6426 306.52 67.0726C307.36 67.5026 308.005 68.1176 308.455 68.9176C308.915 69.7076 309.145 70.6276 309.145 71.6776C309.145 72.7276 308.915 73.6476 308.455 74.4376C308.005 75.2176 307.36 75.8226 306.52 76.2526C305.69 76.6826 304.725 76.8976 303.625 76.8976H299.965V66.4276H303.625ZM303.55 75.1126C304.65 75.1126 305.5 74.8126 306.1 74.2126C306.7 73.6126 307 72.7676 307 71.6776C307 70.5876 306.7 69.7376 306.1 69.1276C305.5 68.5076 304.65 68.1976 303.55 68.1976H302.065V75.1126H303.55ZM318.742 72.5626C318.742 72.8626 318.722 73.1326 318.682 73.3726H312.607C312.657 73.9726 312.867 74.4426 313.237 74.7826C313.607 75.1226 314.062 75.2926 314.602 75.2926C315.382 75.2926 315.937 74.9576 316.267 74.2876H318.532C318.292 75.0876 317.832 75.7476 317.152 76.2676C316.472 76.7776 315.637 77.0326 314.647 77.0326C313.847 77.0326 313.127 76.8576 312.487 76.5076C311.857 76.1476 311.362 75.6426 311.002 74.9926C310.652 74.3426 310.477 73.5926 310.477 72.7426C310.477 71.8826 310.652 71.1276 311.002 70.4776C311.352 69.8276 311.842 69.3276 312.472 68.9776C313.102 68.6276 313.827 68.4526 314.647 68.4526C315.437 68.4526 316.142 68.6226 316.762 68.9626C317.392 69.3026 317.877 69.7876 318.217 70.4176C318.567 71.0376 318.742 71.7526 318.742 72.5626ZM316.567 71.9626C316.557 71.4226 316.362 70.9926 315.982 70.6726C315.602 70.3426 315.137 70.1776 314.587 70.1776C314.067 70.1776 313.627 70.3376 313.267 70.6576C312.917 70.9676 312.702 71.4026 312.622 71.9626H316.567ZM323.755 77.0326C323.075 77.0326 322.465 76.9126 321.925 76.6726C321.385 76.4226 320.955 76.0876 320.635 75.6676C320.325 75.2476 320.155 74.7826 320.125 74.2726H322.24C322.28 74.5926 322.435 74.8576 322.705 75.0676C322.985 75.2776 323.33 75.3826 323.74 75.3826C324.14 75.3826 324.45 75.3026 324.67 75.1426C324.9 74.9826 325.015 74.7776 325.015 74.5276C325.015 74.2576 324.875 74.0576 324.595 73.9276C324.325 73.7876 323.89 73.6376 323.29 73.4776C322.67 73.3276 322.16 73.1726 321.76 73.0126C321.37 72.8526 321.03 72.6076 320.74 72.2776C320.46 71.9476 320.32 71.5026 320.32 70.9426C320.32 70.4826 320.45 70.0626 320.71 69.6826C320.98 69.3026 321.36 69.0026 321.85 68.7826C322.35 68.5626 322.935 68.4526 323.605 68.4526C324.595 68.4526 325.385 68.7026 325.975 69.2026C326.565 69.6926 326.89 70.3576 326.95 71.1976H324.94C324.91 70.8676 324.77 70.6076 324.52 70.4176C324.28 70.2176 323.955 70.1176 323.545 70.1176C323.165 70.1176 322.87 70.1876 322.66 70.3276C322.46 70.4676 322.36 70.6626 322.36 70.9126C322.36 71.1926 322.5 71.4076 322.78 71.5576C323.06 71.6976 323.495 71.8426 324.085 71.9926C324.685 72.1426 325.18 72.2976 325.57 72.4576C325.96 72.6176 326.295 72.8676 326.575 73.2076C326.865 73.5376 327.015 73.9776 327.025 74.5276C327.025 75.0076 326.89 75.4376 326.62 75.8176C326.36 76.1976 325.98 76.4976 325.48 76.7176C324.99 76.9276 324.415 77.0326 323.755 77.0326ZM328.509 72.7126C328.509 71.8726 328.674 71.1276 329.004 70.4776C329.344 69.8276 329.799 69.3276 330.369 68.9776C330.949 68.6276 331.594 68.4526 332.304 68.4526C332.924 68.4526 333.464 68.5776 333.924 68.8276C334.394 69.0776 334.769 69.3926 335.049 69.7726V68.5876H337.164V76.8976H335.049V75.6826C334.779 76.0726 334.404 76.3976 333.924 76.6576C333.454 76.9076 332.909 77.0326 332.289 77.0326C331.589 77.0326 330.949 76.8526 330.369 76.4926C329.799 76.1326 329.344 75.6276 329.004 74.9776C328.674 74.3176 328.509 73.5626 328.509 72.7126ZM335.049 72.7426C335.049 72.2326 334.949 71.7976 334.749 71.4376C334.549 71.0676 334.279 70.7876 333.939 70.5976C333.599 70.3976 333.234 70.2976 332.844 70.2976C332.454 70.2976 332.094 70.3926 331.764 70.5826C331.434 70.7726 331.164 71.0526 330.954 71.4226C330.754 71.7826 330.654 72.2126 330.654 72.7126C330.654 73.2126 330.754 73.6526 330.954 74.0326C331.164 74.4026 331.434 74.6876 331.764 74.8876C332.104 75.0876 332.464 75.1876 332.844 75.1876C333.234 75.1876 333.599 75.0926 333.939 74.9026C334.279 74.7026 334.549 74.4226 334.749 74.0626C334.949 73.6926 335.049 73.2526 335.049 72.7426Z" fill="white"/>
<g filter="url(#filter1_ddd)">
<rect x="20" y="195.898" width="146" height="141" rx="20" fill="#06A185"/>
</g>
<g filter="url(#filter2_ddd)">
<rect x="385" y="195.898" width="146" height="141" rx="20" fill="#06A185"/>
</g>
<path d="M45.928 302.296H42.436L41.836 304H40.408L43.396 295.648H44.98L47.968 304H46.528L45.928 302.296ZM45.544 301.18L44.188 297.304L42.82 301.18H45.544ZM49.0512 300.664C49.0512 300 49.1872 299.412 49.4592 298.9C49.7392 298.388 50.1152 297.992 50.5872 297.712C51.0672 297.424 51.5992 297.28 52.1832 297.28C52.6152 297.28 53.0392 297.376 53.4552 297.568C53.8792 297.752 54.2152 298 54.4632 298.312V295.12H55.8432V304H54.4632V303.004C54.2392 303.324 53.9272 303.588 53.5272 303.796C53.1352 304.004 52.6832 304.108 52.1712 304.108C51.5952 304.108 51.0672 303.964 50.5872 303.676C50.1152 303.38 49.7392 302.972 49.4592 302.452C49.1872 301.924 49.0512 301.328 49.0512 300.664ZM54.4632 300.688C54.4632 300.232 54.3672 299.836 54.1752 299.5C53.9912 299.164 53.7472 298.908 53.4432 298.732C53.1392 298.556 52.8112 298.468 52.4592 298.468C52.1072 298.468 51.7792 298.556 51.4752 298.732C51.1712 298.9 50.9232 299.152 50.7312 299.488C50.5472 299.816 50.4552 300.208 50.4552 300.664C50.4552 301.12 50.5472 301.52 50.7312 301.864C50.9232 302.208 51.1712 302.472 51.4752 302.656C51.7872 302.832 52.1152 302.92 52.4592 302.92C52.8112 302.92 53.1392 302.832 53.4432 302.656C53.7472 302.48 53.9912 302.224 54.1752 301.888C54.3672 301.544 54.4632 301.144 54.4632 300.688ZM65.884 297.28C66.404 297.28 66.868 297.388 67.276 297.604C67.692 297.82 68.016 298.14 68.248 298.564C68.488 298.988 68.608 299.5 68.608 300.1V304H67.252V300.304C67.252 299.712 67.104 299.26 66.808 298.948C66.512 298.628 66.108 298.468 65.596 298.468C65.084 298.468 64.676 298.628 64.372 298.948C64.076 299.26 63.928 299.712 63.928 300.304V304H62.572V300.304C62.572 299.712 62.424 299.26 62.128 298.948C61.832 298.628 61.428 298.468 60.916 298.468C60.404 298.468 59.996 298.628 59.692 298.948C59.396 299.26 59.248 299.712 59.248 300.304V304H57.88V297.388H59.248V298.144C59.472 297.872 59.756 297.66 60.1 297.508C60.444 297.356 60.812 297.28 61.204 297.28C61.732 297.28 62.204 297.392 62.62 297.616C63.036 297.84 63.356 298.164 63.58 298.588C63.78 298.188 64.092 297.872 64.516 297.64C64.94 297.4 65.396 297.28 65.884 297.28ZM71.2847 296.512C71.0367 296.512 70.8287 296.428 70.6607 296.26C70.4927 296.092 70.4087 295.884 70.4087 295.636C70.4087 295.388 70.4927 295.18 70.6607 295.012C70.8287 294.844 71.0367 294.76 71.2847 294.76C71.5247 294.76 71.7287 294.844 71.8967 295.012C72.0647 295.18 72.1487 295.388 72.1487 295.636C72.1487 295.884 72.0647 296.092 71.8967 296.26C71.7287 296.428 71.5247 296.512 71.2847 296.512ZM71.9567 297.388V304H70.5887V297.388H71.9567ZM77.3288 297.28C77.8488 297.28 78.3128 297.388 78.7208 297.604C79.1368 297.82 79.4608 298.14 79.6928 298.564C79.9248 298.988 80.0408 299.5 80.0408 300.1V304H78.6848V300.304C78.6848 299.712 78.5368 299.26 78.2408 298.948C77.9448 298.628 77.5408 298.468 77.0288 298.468C76.5168 298.468 76.1088 298.628 75.8048 298.948C75.5088 299.26 75.3608 299.712 75.3608 300.304V304H73.9928V297.388H75.3608V298.144C75.5848 297.872 75.8688 297.66 76.2128 297.508C76.5648 297.356 76.9368 297.28 77.3288 297.28ZM82.7218 296.512C82.4738 296.512 82.2658 296.428 82.0978 296.26C81.9298 296.092 81.8458 295.884 81.8458 295.636C81.8458 295.388 81.9298 295.18 82.0978 295.012C82.2658 294.844 82.4738 294.76 82.7218 294.76C82.9618 294.76 83.1658 294.844 83.3338 295.012C83.5018 295.18 83.5858 295.388 83.5858 295.636C83.5858 295.884 83.5018 296.092 83.3338 296.26C83.1658 296.428 82.9618 296.512 82.7218 296.512ZM83.3938 297.388V304H82.0258V297.388H83.3938ZM87.8298 304.108C87.3098 304.108 86.8418 304.016 86.4258 303.832C86.0178 303.64 85.6938 303.384 85.4538 303.064C85.2138 302.736 85.0858 302.372 85.0698 301.972H86.4858C86.5098 302.252 86.6418 302.488 86.8818 302.68C87.1298 302.864 87.4378 302.956 87.8058 302.956C88.1898 302.956 88.4858 302.884 88.6938 302.74C88.9098 302.588 89.0178 302.396 89.0178 302.164C89.0178 301.916 88.8978 301.732 88.6578 301.612C88.4258 301.492 88.0538 301.36 87.5418 301.216C87.0458 301.08 86.6418 300.948 86.3298 300.82C86.0178 300.692 85.7458 300.496 85.5138 300.232C85.2898 299.968 85.1778 299.62 85.1778 299.188C85.1778 298.836 85.2818 298.516 85.4898 298.228C85.6978 297.932 85.9938 297.7 86.3778 297.532C86.7698 297.364 87.2178 297.28 87.7218 297.28C88.4738 297.28 89.0778 297.472 89.5338 297.856C89.9978 298.232 90.2458 298.748 90.2778 299.404H88.9098C88.8858 299.108 88.7658 298.872 88.5498 298.696C88.3338 298.52 88.0418 298.432 87.6738 298.432C87.3138 298.432 87.0378 298.5 86.8458 298.636C86.6538 298.772 86.5578 298.952 86.5578 299.176C86.5578 299.352 86.6218 299.5 86.7498 299.62C86.8778 299.74 87.0338 299.836 87.2178 299.908C87.4018 299.972 87.6738 300.056 88.0338 300.16C88.5138 300.288 88.9058 300.42 89.2098 300.556C89.5218 300.684 89.7898 300.876 90.0138 301.132C90.2378 301.388 90.3538 301.728 90.3618 302.152C90.3618 302.528 90.2578 302.864 90.0498 303.16C89.8418 303.456 89.5458 303.688 89.1618 303.856C88.7858 304.024 88.3418 304.108 87.8298 304.108ZM93.676 298.504V302.164C93.676 302.412 93.732 302.592 93.844 302.704C93.964 302.808 94.164 302.86 94.444 302.86H95.284V304H94.204C93.588 304 93.116 303.856 92.788 303.568C92.46 303.28 92.296 302.812 92.296 302.164V298.504H91.516V297.388H92.296V295.744H93.676V297.388H95.284V298.504H93.676ZM98.1528 298.348C98.3528 298.012 98.6168 297.752 98.9448 297.568C99.2808 297.376 99.6768 297.28 100.133 297.28V298.696H99.7848C99.2488 298.696 98.8408 298.832 98.5608 299.104C98.2888 299.376 98.1528 299.848 98.1528 300.52V304H96.7848V297.388H98.1528V298.348ZM101.174 300.664C101.174 300 101.31 299.412 101.582 298.9C101.862 298.388 102.238 297.992 102.71 297.712C103.19 297.424 103.718 297.28 104.294 297.28C104.814 297.28 105.266 297.384 105.65 297.592C106.042 297.792 106.354 298.044 106.586 298.348V297.388H107.966V304H106.586V303.016C106.354 303.328 106.038 303.588 105.638 303.796C105.238 304.004 104.782 304.108 104.27 304.108C103.702 304.108 103.182 303.964 102.71 303.676C102.238 303.38 101.862 302.972 101.582 302.452C101.31 301.924 101.174 301.328 101.174 300.664ZM106.586 300.688C106.586 300.232 106.49 299.836 106.298 299.5C106.114 299.164 105.87 298.908 105.566 298.732C105.262 298.556 104.934 298.468 104.582 298.468C104.23 298.468 103.902 298.556 103.598 298.732C103.294 298.9 103.046 299.152 102.854 299.488C102.67 299.816 102.578 300.208 102.578 300.664C102.578 301.12 102.67 301.52 102.854 301.864C103.046 302.208 103.294 302.472 103.598 302.656C103.91 302.832 104.238 302.92 104.582 302.92C104.934 302.92 105.262 302.832 105.566 302.656C105.87 302.48 106.114 302.224 106.298 301.888C106.49 301.544 106.586 301.144 106.586 300.688ZM112.403 304.108C111.883 304.108 111.415 304.016 110.999 303.832C110.591 303.64 110.267 303.384 110.027 303.064C109.787 302.736 109.659 302.372 109.643 301.972H111.059C111.083 302.252 111.215 302.488 111.455 302.68C111.703 302.864 112.011 302.956 112.379 302.956C112.763 302.956 113.059 302.884 113.267 302.74C113.483 302.588 113.591 302.396 113.591 302.164C113.591 301.916 113.471 301.732 113.231 301.612C112.999 301.492 112.627 301.36 112.115 301.216C111.619 301.08 111.215 300.948 110.903 300.82C110.591 300.692 110.319 300.496 110.087 300.232C109.863 299.968 109.751 299.62 109.751 299.188C109.751 298.836 109.855 298.516 110.063 298.228C110.271 297.932 110.567 297.7 110.951 297.532C111.343 297.364 111.791 297.28 112.295 297.28C113.047 297.28 113.651 297.472 114.107 297.856C114.571 298.232 114.819 298.748 114.851 299.404H113.483C113.459 299.108 113.339 298.872 113.123 298.696C112.907 298.52 112.615 298.432 112.247 298.432C111.887 298.432 111.611 298.5 111.419 298.636C111.227 298.772 111.131 298.952 111.131 299.176C111.131 299.352 111.195 299.5 111.323 299.62C111.451 299.74 111.607 299.836 111.791 299.908C111.975 299.972 112.247 300.056 112.607 300.16C113.087 300.288 113.479 300.42 113.783 300.556C114.095 300.684 114.363 300.876 114.587 301.132C114.811 301.388 114.927 301.728 114.935 302.152C114.935 302.528 114.831 302.864 114.623 303.16C114.415 303.456 114.119 303.688 113.735 303.856C113.359 304.024 112.915 304.108 112.403 304.108ZM117.349 296.512C117.101 296.512 116.893 296.428 116.725 296.26C116.557 296.092 116.473 295.884 116.473 295.636C116.473 295.388 116.557 295.18 116.725 295.012C116.893 294.844 117.101 294.76 117.349 294.76C117.589 294.76 117.793 294.844 117.961 295.012C118.129 295.18 118.213 295.388 118.213 295.636C118.213 295.884 118.129 296.092 117.961 296.26C117.793 296.428 117.589 296.512 117.349 296.512ZM118.021 297.388V304H116.653V297.388H118.021ZM42.256 315.66V320.976C42.256 321.608 42.42 322.084 42.748 322.404C43.084 322.724 43.548 322.884 44.14 322.884C44.74 322.884 45.204 322.724 45.532 322.404C45.868 322.084 46.036 321.608 46.036 320.976V315.66H47.404V320.952C47.404 321.632 47.256 322.208 46.96 322.68C46.664 323.152 46.268 323.504 45.772 323.736C45.276 323.968 44.728 324.084 44.128 324.084C43.528 324.084 42.98 323.968 42.484 323.736C41.996 323.504 41.608 323.152 41.32 322.68C41.032 322.208 40.888 321.632 40.888 320.952V315.66H42.256ZM57.4292 317.28C57.9492 317.28 58.4132 317.388 58.8212 317.604C59.2372 317.82 59.5612 318.14 59.7932 318.564C60.0332 318.988 60.1532 319.5 60.1532 320.1V324H58.7972V320.304C58.7972 319.712 58.6492 319.26 58.3532 318.948C58.0572 318.628 57.6532 318.468 57.1412 318.468C56.6292 318.468 56.2212 318.628 55.9172 318.948C55.6212 319.26 55.4732 319.712 55.4732 320.304V324H54.1172V320.304C54.1172 319.712 53.9692 319.26 53.6732 318.948C53.3772 318.628 52.9732 318.468 52.4612 318.468C51.9492 318.468 51.5412 318.628 51.2372 318.948C50.9412 319.26 50.7932 319.712 50.7932 320.304V324H49.4252V317.388H50.7932V318.144C51.0172 317.872 51.3012 317.66 51.6452 317.508C51.9892 317.356 52.3572 317.28 52.7492 317.28C53.2772 317.28 53.7492 317.392 54.1652 317.616C54.5812 317.84 54.9012 318.164 55.1252 318.588C55.3252 318.188 55.6372 317.872 56.0612 317.64C56.4852 317.4 56.9412 317.28 57.4292 317.28ZM68.1219 317.388V324H66.7539V323.22C66.5379 323.492 66.2539 323.708 65.9019 323.868C65.5579 324.02 65.1899 324.096 64.7979 324.096C64.2779 324.096 63.8099 323.988 63.3939 323.772C62.9859 323.556 62.6619 323.236 62.4219 322.812C62.1899 322.388 62.0739 321.876 62.0739 321.276V317.388H63.4299V321.072C63.4299 321.664 63.5779 322.12 63.8739 322.44C64.1699 322.752 64.5739 322.908 65.0859 322.908C65.5979 322.908 66.0019 322.752 66.2979 322.44C66.6019 322.12 66.7539 321.664 66.7539 321.072V317.388H68.1219ZM78.1709 317.28C78.6909 317.28 79.1549 317.388 79.5629 317.604C79.9789 317.82 80.3029 318.14 80.5349 318.564C80.7749 318.988 80.8949 319.5 80.8949 320.1V324H79.5389V320.304C79.5389 319.712 79.3909 319.26 79.0949 318.948C78.7989 318.628 78.3949 318.468 77.8829 318.468C77.3709 318.468 76.9629 318.628 76.6589 318.948C76.3629 319.26 76.2149 319.712 76.2149 320.304V324H74.8589V320.304C74.8589 319.712 74.7109 319.26 74.4149 318.948C74.1189 318.628 73.7149 318.468 73.2029 318.468C72.6909 318.468 72.2829 318.628 71.9789 318.948C71.6829 319.26 71.5349 319.712 71.5349 320.304V324H70.1669V317.388H71.5349V318.144C71.7589 317.872 72.0429 317.66 72.3869 317.508C72.7309 317.356 73.0989 317.28 73.4909 317.28C74.0189 317.28 74.4909 317.392 74.9069 317.616C75.3229 317.84 75.6429 318.164 75.8669 318.588C76.0669 318.188 76.3789 317.872 76.8029 317.64C77.2269 317.4 77.6829 317.28 78.1709 317.28Z" fill="white"/>
<path d="M414.684 295.66V304H413.316V298.288L410.772 304H409.824L407.268 298.288V304H405.9V295.66H407.376L410.304 302.2L413.22 295.66H414.684ZM416.266 300.664C416.266 300 416.402 299.412 416.674 298.9C416.954 298.388 417.33 297.992 417.802 297.712C418.282 297.424 418.81 297.28 419.386 297.28C419.906 297.28 420.358 297.384 420.742 297.592C421.134 297.792 421.446 298.044 421.678 298.348V297.388H423.058V304H421.678V303.016C421.446 303.328 421.13 303.588 420.73 303.796C420.33 304.004 419.874 304.108 419.362 304.108C418.794 304.108 418.274 303.964 417.802 303.676C417.33 303.38 416.954 302.972 416.674 302.452C416.402 301.924 416.266 301.328 416.266 300.664ZM421.678 300.688C421.678 300.232 421.582 299.836 421.39 299.5C421.206 299.164 420.962 298.908 420.658 298.732C420.354 298.556 420.026 298.468 419.674 298.468C419.322 298.468 418.994 298.556 418.69 298.732C418.386 298.9 418.138 299.152 417.946 299.488C417.762 299.816 417.67 300.208 417.67 300.664C417.67 301.12 417.762 301.52 417.946 301.864C418.138 302.208 418.386 302.472 418.69 302.656C419.002 302.832 419.33 302.92 419.674 302.92C420.026 302.92 420.354 302.832 420.658 302.656C420.962 302.48 421.206 302.224 421.39 301.888C421.582 301.544 421.678 301.144 421.678 300.688ZM428.431 297.28C428.951 297.28 429.415 297.388 429.823 297.604C430.239 297.82 430.563 298.14 430.795 298.564C431.027 298.988 431.143 299.5 431.143 300.1V304H429.787V300.304C429.787 299.712 429.639 299.26 429.343 298.948C429.047 298.628 428.643 298.468 428.131 298.468C427.619 298.468 427.211 298.628 426.907 298.948C426.611 299.26 426.463 299.712 426.463 300.304V304H425.095V297.388H426.463V298.144C426.687 297.872 426.971 297.66 427.315 297.508C427.667 297.356 428.039 297.28 428.431 297.28ZM432.672 300.664C432.672 300 432.808 299.412 433.08 298.9C433.36 298.388 433.736 297.992 434.208 297.712C434.688 297.424 435.216 297.28 435.792 297.28C436.312 297.28 436.764 297.384 437.148 297.592C437.54 297.792 437.852 298.044 438.084 298.348V297.388H439.464V304H438.084V303.016C437.852 303.328 437.536 303.588 437.136 303.796C436.736 304.004 436.28 304.108 435.768 304.108C435.2 304.108 434.68 303.964 434.208 303.676C433.736 303.38 433.36 302.972 433.08 302.452C432.808 301.924 432.672 301.328 432.672 300.664ZM438.084 300.688C438.084 300.232 437.988 299.836 437.796 299.5C437.612 299.164 437.368 298.908 437.064 298.732C436.76 298.556 436.432 298.468 436.08 298.468C435.728 298.468 435.4 298.556 435.096 298.732C434.792 298.9 434.544 299.152 434.352 299.488C434.168 299.816 434.076 300.208 434.076 300.664C434.076 301.12 434.168 301.52 434.352 301.864C434.544 302.208 434.792 302.472 435.096 302.656C435.408 302.832 435.736 302.92 436.08 302.92C436.432 302.92 436.76 302.832 437.064 302.656C437.368 302.48 437.612 302.224 437.796 301.888C437.988 301.544 438.084 301.144 438.084 300.688ZM442.197 296.512C441.949 296.512 441.741 296.428 441.573 296.26C441.405 296.092 441.321 295.884 441.321 295.636C441.321 295.388 441.405 295.18 441.573 295.012C441.741 294.844 441.949 294.76 442.197 294.76C442.437 294.76 442.641 294.844 442.809 295.012C442.977 295.18 443.061 295.388 443.061 295.636C443.061 295.884 442.977 296.092 442.809 296.26C442.641 296.428 442.437 296.512 442.197 296.512ZM442.869 305.296C442.869 305.944 442.705 306.412 442.377 306.7C442.057 306.996 441.589 307.144 440.973 307.144H440.265V305.992H440.733C441.013 305.992 441.209 305.936 441.321 305.824C441.441 305.72 441.501 305.544 441.501 305.296V297.388H442.869V305.296ZM450.965 300.532C450.965 300.78 450.949 301.004 450.917 301.204H445.865C445.905 301.732 446.101 302.156 446.453 302.476C446.805 302.796 447.237 302.956 447.749 302.956C448.485 302.956 449.005 302.648 449.309 302.032H450.785C450.585 302.64 450.221 303.14 449.693 303.532C449.173 303.916 448.525 304.108 447.749 304.108C447.117 304.108 446.549 303.968 446.045 303.688C445.549 303.4 445.157 303 444.869 302.488C444.589 301.968 444.449 301.368 444.449 300.688C444.449 300.008 444.585 299.412 444.857 298.9C445.137 298.38 445.525 297.98 446.021 297.7C446.525 297.42 447.101 297.28 447.749 297.28C448.373 297.28 448.929 297.416 449.417 297.688C449.905 297.96 450.285 298.344 450.557 298.84C450.829 299.328 450.965 299.892 450.965 300.532ZM449.537 300.1C449.529 299.596 449.349 299.192 448.997 298.888C448.645 298.584 448.209 298.432 447.689 298.432C447.217 298.432 446.813 298.584 446.477 298.888C446.141 299.184 445.941 299.588 445.877 300.1H449.537ZM460.555 297.28C461.075 297.28 461.539 297.388 461.947 297.604C462.363 297.82 462.687 298.14 462.919 298.564C463.159 298.988 463.279 299.5 463.279 300.1V304H461.923V300.304C461.923 299.712 461.775 299.26 461.479 298.948C461.183 298.628 460.779 298.468 460.267 298.468C459.755 298.468 459.347 298.628 459.043 298.948C458.747 299.26 458.599 299.712 458.599 300.304V304H457.243V300.304C457.243 299.712 457.095 299.26 456.799 298.948C456.503 298.628 456.099 298.468 455.587 298.468C455.075 298.468 454.667 298.628 454.363 298.948C454.067 299.26 453.919 299.712 453.919 300.304V304H452.551V297.388H453.919V298.144C454.143 297.872 454.427 297.66 454.771 297.508C455.115 297.356 455.483 297.28 455.875 297.28C456.403 297.28 456.875 297.392 457.291 297.616C457.707 297.84 458.027 298.164 458.251 298.588C458.451 298.188 458.763 297.872 459.187 297.64C459.611 297.4 460.067 297.28 460.555 297.28ZM471.32 300.532C471.32 300.78 471.304 301.004 471.272 301.204H466.22C466.26 301.732 466.456 302.156 466.808 302.476C467.16 302.796 467.592 302.956 468.104 302.956C468.84 302.956 469.36 302.648 469.664 302.032H471.14C470.94 302.64 470.576 303.14 470.048 303.532C469.528 303.916 468.88 304.108 468.104 304.108C467.472 304.108 466.904 303.968 466.4 303.688C465.904 303.4 465.512 303 465.224 302.488C464.944 301.968 464.804 301.368 464.804 300.688C464.804 300.008 464.94 299.412 465.212 298.9C465.492 298.38 465.88 297.98 466.376 297.7C466.88 297.42 467.456 297.28 468.104 297.28C468.728 297.28 469.284 297.416 469.772 297.688C470.26 297.96 470.64 298.344 470.912 298.84C471.184 299.328 471.32 299.892 471.32 300.532ZM469.892 300.1C469.884 299.596 469.704 299.192 469.352 298.888C469 298.584 468.564 298.432 468.044 298.432C467.572 298.432 467.168 298.584 466.832 298.888C466.496 299.184 466.296 299.588 466.232 300.1H469.892ZM476.242 297.28C476.762 297.28 477.226 297.388 477.634 297.604C478.05 297.82 478.374 298.14 478.606 298.564C478.838 298.988 478.954 299.5 478.954 300.1V304H477.598V300.304C477.598 299.712 477.45 299.26 477.154 298.948C476.858 298.628 476.454 298.468 475.942 298.468C475.43 298.468 475.022 298.628 474.718 298.948C474.422 299.26 474.274 299.712 474.274 300.304V304H472.906V297.388H474.274V298.144C474.498 297.872 474.782 297.66 475.126 297.508C475.478 297.356 475.85 297.28 476.242 297.28ZM411.732 318.144C411.732 318.568 411.632 318.968 411.432 319.344C411.232 319.72 410.912 320.028 410.472 320.268C410.032 320.5 409.468 320.616 408.78 320.616H407.268V324H405.9V315.66H408.78C409.42 315.66 409.96 315.772 410.4 315.996C410.848 316.212 411.18 316.508 411.396 316.884C411.62 317.26 411.732 317.68 411.732 318.144ZM408.78 319.5C409.3 319.5 409.688 319.384 409.944 319.152C410.2 318.912 410.328 318.576 410.328 318.144C410.328 317.232 409.812 316.776 408.78 316.776H407.268V319.5H408.78ZM412.821 320.664C412.821 320 412.957 319.412 413.229 318.9C413.509 318.388 413.885 317.992 414.357 317.712C414.837 317.424 415.365 317.28 415.941 317.28C416.461 317.28 416.913 317.384 417.297 317.592C417.689 317.792 418.001 318.044 418.233 318.348V317.388H419.613V324H418.233V323.016C418.001 323.328 417.685 323.588 417.285 323.796C416.885 324.004 416.429 324.108 415.917 324.108C415.349 324.108 414.829 323.964 414.357 323.676C413.885 323.38 413.509 322.972 413.229 322.452C412.957 321.924 412.821 321.328 412.821 320.664ZM418.233 320.688C418.233 320.232 418.137 319.836 417.945 319.5C417.761 319.164 417.517 318.908 417.213 318.732C416.909 318.556 416.581 318.468 416.229 318.468C415.877 318.468 415.549 318.556 415.245 318.732C414.941 318.9 414.693 319.152 414.501 319.488C414.317 319.816 414.225 320.208 414.225 320.664C414.225 321.12 414.317 321.52 414.501 321.864C414.693 322.208 414.941 322.472 415.245 322.656C415.557 322.832 415.885 322.92 416.229 322.92C416.581 322.92 416.909 322.832 417.213 322.656C417.517 322.48 417.761 322.224 417.945 321.888C418.137 321.544 418.233 321.144 418.233 320.688ZM422.346 316.512C422.098 316.512 421.89 316.428 421.722 316.26C421.554 316.092 421.47 315.884 421.47 315.636C421.47 315.388 421.554 315.18 421.722 315.012C421.89 314.844 422.098 314.76 422.346 314.76C422.586 314.76 422.79 314.844 422.958 315.012C423.126 315.18 423.21 315.388 423.21 315.636C423.21 315.884 423.126 316.092 422.958 316.26C422.79 316.428 422.586 316.512 422.346 316.512ZM423.018 325.296C423.018 325.944 422.854 326.412 422.526 326.7C422.206 326.996 421.738 327.144 421.122 327.144H420.414V325.992H420.882C421.162 325.992 421.358 325.936 421.47 325.824C421.59 325.72 421.65 325.544 421.65 325.296V317.388H423.018V325.296ZM424.598 320.664C424.598 320 424.734 319.412 425.006 318.9C425.286 318.388 425.662 317.992 426.134 317.712C426.614 317.424 427.142 317.28 427.718 317.28C428.238 317.28 428.69 317.384 429.074 317.592C429.466 317.792 429.778 318.044 430.01 318.348V317.388H431.39V324H430.01V323.016C429.778 323.328 429.462 323.588 429.062 323.796C428.662 324.004 428.206 324.108 427.694 324.108C427.126 324.108 426.606 323.964 426.134 323.676C425.662 323.38 425.286 322.972 425.006 322.452C424.734 321.924 424.598 321.328 424.598 320.664ZM430.01 320.688C430.01 320.232 429.914 319.836 429.722 319.5C429.538 319.164 429.294 318.908 428.99 318.732C428.686 318.556 428.358 318.468 428.006 318.468C427.654 318.468 427.326 318.556 427.022 318.732C426.718 318.9 426.47 319.152 426.278 319.488C426.094 319.816 426.002 320.208 426.002 320.664C426.002 321.12 426.094 321.52 426.278 321.864C426.47 322.208 426.718 322.472 427.022 322.656C427.334 322.832 427.662 322.92 428.006 322.92C428.358 322.92 428.686 322.832 428.99 322.656C429.294 322.48 429.538 322.224 429.722 321.888C429.914 321.544 430.01 321.144 430.01 320.688ZM436.042 320.7L439.09 324H437.242L434.794 321.156V324H433.426V315.12H434.794V320.28L437.194 317.388H439.09L436.042 320.7Z" fill="white"/>
<path d="M59.5649 236.661C59.5649 237.202 59.1247 237.645 58.5867 237.645C58.0486 237.645 57.6084 237.202 57.6084 236.661C57.6084 236.12 58.0486 235.677 58.5867 235.677C59.1247 235.677 59.5649 236.12 59.5649 236.661Z" fill="white"/>
<path d="M67.3911 236.661C67.3911 237.202 66.9509 237.645 66.4128 237.645C65.8748 237.645 65.4346 237.202 65.4346 236.661C65.4346 236.12 65.8748 235.677 66.4128 235.677C66.9509 235.677 67.3911 236.12 67.3911 236.661Z" fill="white"/>
<path d="M64.4565 242.564H58.5869V244.532H64.4565C66.0706 244.532 67.3913 243.204 67.3913 241.581H65.4347C65.4347 242.122 64.9945 242.564 64.4565 242.564Z" fill="white"/>
<path d="M82.962 238.334C82.7174 238.268 82.538 238.072 82.4728 237.809C81.9674 235.645 81.1196 233.611 79.9783 231.726C79.8315 231.496 79.8315 231.217 79.9783 230.955C80.5978 229.922 80.4348 228.594 79.587 227.741L77.2391 225.38C76.5217 224.658 75.4946 224.445 74.5652 224.756C72.8696 219.673 68.1087 216 62.5 216C56.8913 216 52.1304 219.673 50.4348 224.756C49.5054 224.445 48.462 224.658 47.7609 225.38L45.413 227.741C44.5652 228.594 44.4022 229.922 45.0543 231.004C45.1848 231.217 45.1685 231.496 45.0217 231.726C43.8641 233.611 43.0326 235.661 42.5272 237.809C42.462 238.072 42.2826 238.285 41.9891 238.35C40.8152 238.645 40 239.695 40 240.892V244.237C40 245.451 40.8152 246.5 42.038 246.795C42.2826 246.861 42.462 247.058 42.5272 247.32C43.0326 249.484 43.8804 251.518 45.0217 253.403C45.038 253.436 45.038 253.485 45.0543 253.518C43.1141 256.257 41.9565 259.602 41.9565 263.209V264.193C41.9565 268.047 44.4185 271.31 47.8261 272.54V277H77.1739V272.556C80.5815 271.343 83.0435 268.063 83.0435 264.21V263.226C83.0435 259.602 81.8859 256.273 79.9456 253.535C79.962 253.502 79.962 253.453 79.9783 253.42C81.1359 251.534 81.9674 249.484 82.4728 247.336C82.538 247.074 82.7174 246.861 83.0109 246.795C84.1685 246.5 84.9837 245.451 84.9837 244.253V240.908C85 239.695 84.1848 238.645 82.962 238.334ZM69.5109 246.795C70.6196 245.729 71.3043 244.221 71.3043 242.565C73.4565 242.565 75.2174 240.794 75.2174 238.629V235.218C76.4891 237.448 77.1739 239.974 77.1739 242.565C77.1739 244.909 76.6196 247.205 75.5761 249.271C73.7663 248.074 71.712 247.222 69.5109 246.795ZM72.2826 271.097H68.3696C67.2935 271.097 66.413 270.211 66.413 269.129C66.413 268.047 67.2935 267.161 68.3696 267.161H69.3478V266.177C69.3478 265.636 69.788 265.194 70.3261 265.194H70.4891C70.75 265.194 70.9946 265.292 71.1739 265.489L72.2663 266.587V271.097H72.2826ZM67.3913 265.325C65.712 265.767 64.4565 267.292 64.4565 269.129C64.4565 270.949 65.712 272.491 67.3913 272.917V275.032H57.6087V257.323H67.3913V265.325ZM55.6522 262.652L50.0761 257.044C49.8967 256.847 49.7826 256.617 49.7826 256.355C49.7826 256.093 49.8804 255.847 50.0761 255.666C50.4511 255.289 51.087 255.289 51.462 255.666L55.6522 259.864V262.652ZM49.7826 259.536L55.4076 265.194H51.7391C50.663 265.194 49.7826 264.308 49.7826 263.226V259.536ZM49.4239 249.271C48.3804 247.205 47.8261 244.909 47.8261 242.565C47.8261 239.974 48.5109 237.432 49.7826 235.218V238.629C49.7826 240.794 51.5435 242.565 53.6957 242.565C53.6957 244.221 54.3804 245.729 55.4891 246.795C53.288 247.222 51.2337 248.074 49.4239 249.271ZM50.7609 229.774H74.2391C74.7772 229.774 75.2174 230.217 75.2174 230.758C75.2174 231.299 74.7772 231.742 74.2391 231.742H50.7609C50.2228 231.742 49.7826 231.299 49.7826 230.758C49.7826 230.217 50.2228 229.774 50.7609 229.774ZM62.5 252.994L64.375 255.355H60.625L62.5 252.994ZM62.5 250.026L60.9511 248.468H64.0489L62.5 250.026ZM65.4348 246.5H59.5652C57.413 246.5 55.6522 244.729 55.6522 242.565V233.71H69.3478V242.565C69.3478 244.729 67.587 246.5 65.4348 246.5ZM53.6957 240.597C52.6196 240.597 51.7391 239.711 51.7391 238.629C51.7391 237.547 52.6196 236.661 53.6957 236.661V240.597ZM53.6957 234.694C52.9783 234.694 52.3098 234.907 51.7391 235.235V233.71H53.6957V234.694ZM71.3043 236.661C72.3804 236.661 73.2609 237.547 73.2609 238.629C73.2609 239.711 72.3804 240.597 71.3043 240.597V236.661ZM73.2609 235.235C72.6902 234.89 72.0217 234.694 71.3043 234.694V233.71H73.2609V235.235ZM61.1957 251.485L59.3207 253.83L58.8478 249.14L61.1957 251.485ZM63.8043 251.485L66.1359 249.14L65.663 253.83L63.8043 251.485ZM73.212 227.806H69.3478V223.871H67.3913V227.806H65.4348V218.394C69.6413 219.591 72.8043 223.297 73.212 227.806ZM63.4783 218.017V227.806H61.5217V218.017C61.8478 217.984 62.1739 217.968 62.5 217.968C62.8261 217.968 63.1522 217.984 63.4783 218.017ZM59.5652 218.394V227.806H57.6087V223.871H55.6522V227.806H51.788C52.1957 223.297 55.3587 219.591 59.5652 218.394ZM44.4185 246.877C44.1902 245.893 43.4565 245.123 42.4457 244.877C42.1522 244.811 41.9565 244.532 41.9565 244.237V240.892C41.9565 240.597 42.1685 240.318 42.5109 240.236C43.4565 239.99 44.2065 239.236 44.4348 238.252C44.8913 236.301 45.6576 234.448 46.7011 232.759C47.2228 231.89 47.2391 230.84 46.7174 229.938C46.5707 229.676 46.6033 229.348 46.8152 229.135L49.163 226.773C49.375 226.56 49.7011 226.511 49.962 226.675L49.9783 226.691C49.913 227.118 49.8641 227.544 49.8315 227.97C48.6739 228.364 47.8261 229.463 47.8261 230.758C47.8261 231.66 48.2337 232.447 48.8696 232.988C46.9293 235.792 45.8696 239.137 45.8696 242.565C45.8696 245.336 46.5543 248.058 47.8587 250.468C47.3533 250.911 46.8641 251.37 46.4076 251.862C45.5109 250.321 44.8424 248.632 44.4185 246.877ZM43.913 264.21V263.226C43.913 255.683 49.5707 249.452 56.8261 248.583L57.4946 255.355H55.6522V257.077L52.8315 254.24C51.7228 253.125 49.7826 253.125 48.6739 254.24C48.1196 254.797 47.8098 255.535 47.8098 256.322V263.209C47.8098 265.374 49.5707 267.145 51.7228 267.145H55.6359V271.08H50.7609C46.9783 271.097 43.913 268.014 43.913 264.21ZM49.7826 272.999C50.1087 273.032 50.4348 273.065 50.7609 273.065H55.6522V275.032H49.7826V272.999ZM75.2174 275.032H69.3478V273.065H74.2391C74.5652 273.065 74.8913 273.048 75.2174 272.999V275.032ZM81.087 264.21C81.087 268.014 78.0217 271.097 74.2391 271.097V267.014C75.9185 266.571 77.1739 265.046 77.1739 263.226V256.339H75.2174V263.226C75.2174 264.177 74.5326 264.98 73.6359 265.161L72.5761 264.095C72.0217 263.537 71.288 263.226 70.5054 263.226H70.3424C70 263.226 69.6739 263.291 69.3641 263.406V255.355H67.5054L68.1739 248.583C75.4293 249.452 81.087 255.683 81.087 263.226V264.21ZM83.0435 244.237C83.0435 244.532 82.8315 244.811 82.4891 244.893C81.5435 245.139 80.7935 245.893 80.5652 246.877C80.1576 248.632 79.4728 250.321 78.5924 251.878C78.1359 251.387 77.663 250.911 77.1413 250.468C78.4293 248.041 79.1141 245.336 79.1141 242.565C79.1141 239.137 78.0543 235.792 76.1141 232.988C76.75 232.447 77.1576 231.644 77.1576 230.758C77.1576 229.463 76.3098 228.364 75.1522 227.97C75.1196 227.528 75.0706 227.101 75.0054 226.691L75.0217 226.675C75.2826 226.527 75.6087 226.56 75.8206 226.773L78.1685 229.135C78.3804 229.348 78.4293 229.676 78.2337 229.987C77.7283 230.84 77.7446 231.89 78.2826 232.759C79.3261 234.464 80.0924 236.317 80.5489 238.268C80.7772 239.252 81.5109 240.023 82.5217 240.269C82.8152 240.334 83.0109 240.613 83.0109 240.908V244.237H83.0435Z" fill="white"/>
<g clip-path="url(#clip0)">
<path d="M457.25 235.1H446.8V230.35C446.8 230.326 446.788 230.314 446.788 230.291C446.788 230.207 446.764 230.124 446.741 230.041C446.729 230.006 446.717 229.982 446.705 229.946C446.658 229.839 446.598 229.744 446.515 229.673L435.115 218.273C435.032 218.19 434.937 218.131 434.83 218.083C434.806 218.071 434.771 218.059 434.747 218.047C434.664 218.024 434.581 218 434.497 218C434.486 218 434.462 217.988 434.45 217.988H409.75C407.126 218 405 220.126 405 222.75V266.45C405 269.074 407.126 271.2 409.75 271.2H429.795C430.246 273.409 432.194 275 434.45 275H457.25C459.874 275 462 272.874 462 270.25V239.85C462 237.226 459.874 235.1 457.25 235.1ZM443.558 229.4H436.35C435.827 229.4 435.4 228.972 435.4 228.45V221.242L443.558 229.4ZM406.9 266.45V222.75C406.9 221.171 408.171 219.9 409.75 219.9H433.5V228.45C433.5 230.029 434.771 231.3 436.35 231.3H444.9V235.1H434.45C431.826 235.1 429.7 237.226 429.7 239.85V269.3H409.75C408.171 269.3 406.9 268.029 406.9 266.45ZM460.1 270.25C460.1 271.829 458.829 273.1 457.25 273.1H434.45C432.871 273.1 431.6 271.829 431.6 270.25V239.85C431.6 238.271 432.871 237 434.45 237H457.25C458.829 237 460.1 238.271 460.1 239.85V270.25Z" fill="white"/>
<path d="M453.45 238.9H438.25C435.626 238.9 433.5 241.026 433.5 243.65V247.45C433.5 250.074 435.626 252.2 438.25 252.2H453.45C456.074 252.2 458.2 250.074 458.2 247.45V243.65C458.2 241.026 456.074 238.9 453.45 238.9ZM456.3 247.45C456.3 249.029 455.029 250.3 453.45 250.3H438.25C436.671 250.3 435.4 249.029 435.4 247.45V243.65C435.4 242.071 436.671 240.8 438.25 240.8H453.45C455.029 240.8 456.3 242.071 456.3 243.65V247.45Z" fill="white"/>
<path d="M437.3 254.1C435.198 254.1 433.5 255.798 433.5 257.9C433.5 260.002 435.198 261.7 437.3 261.7C439.402 261.7 441.1 260.002 441.1 257.9C441.1 255.798 439.402 254.1 437.3 254.1ZM437.3 259.8C436.255 259.8 435.4 258.945 435.4 257.9C435.4 256.855 436.255 256 437.3 256C438.345 256 439.2 256.855 439.2 257.9C439.2 258.945 438.345 259.8 437.3 259.8Z" fill="white"/>
<path d="M445.85 254.1C443.748 254.1 442.05 255.798 442.05 257.9C442.05 260.002 443.748 261.7 445.85 261.7C447.952 261.7 449.65 260.002 449.65 257.9C449.65 255.798 447.952 254.1 445.85 254.1ZM445.85 259.8C444.805 259.8 443.95 258.945 443.95 257.9C443.95 256.855 444.805 256 445.85 256C446.895 256 447.75 256.855 447.75 257.9C447.75 258.945 446.895 259.8 445.85 259.8Z" fill="white"/>
<path d="M437.3 263.6C435.198 263.6 433.5 265.298 433.5 267.4C433.5 269.502 435.198 271.2 437.3 271.2C439.402 271.2 441.1 269.502 441.1 267.4C441.1 265.298 439.402 263.6 437.3 263.6ZM437.3 269.3C436.255 269.3 435.4 268.445 435.4 267.4C435.4 266.355 436.255 265.5 437.3 265.5C438.345 265.5 439.2 266.355 439.2 267.4C439.2 268.445 438.345 269.3 437.3 269.3Z" fill="white"/>
<path d="M445.85 263.6C443.748 263.6 442.05 265.298 442.05 267.4C442.05 269.502 443.748 271.2 445.85 271.2C447.952 271.2 449.65 269.502 449.65 267.4C449.65 265.298 447.952 263.6 445.85 263.6ZM445.85 269.3C444.805 269.3 443.95 268.445 443.95 267.4C443.95 266.355 444.805 265.5 445.85 265.5C446.895 265.5 447.75 266.355 447.75 267.4C447.75 268.445 446.895 269.3 445.85 269.3Z" fill="white"/>
<path d="M454.4 254.1C452.298 254.1 450.6 255.798 450.6 257.9V267.4C450.6 269.502 452.298 271.2 454.4 271.2C456.501 271.2 458.2 269.502 458.2 267.4V257.9C458.2 255.798 456.501 254.1 454.4 254.1ZM456.3 267.4C456.3 268.445 455.445 269.3 454.4 269.3C453.355 269.3 452.5 268.445 452.5 267.4V257.9C452.5 256.855 453.355 256 454.4 256C455.445 256 456.3 256.855 456.3 257.9V267.4Z" fill="white"/>
<path d="M414.773 234.827C415.141 235.195 415.747 235.195 416.115 234.827L424.665 226.277C425.021 225.909 425.021 225.315 424.653 224.947C424.285 224.579 423.691 224.579 423.323 224.935L414.773 233.485C414.405 233.853 414.405 234.447 414.773 234.827Z" fill="white"/>
<path d="M420.2 233.2C420.2 234.779 421.471 236.05 423.05 236.05C424.63 236.05 425.9 234.779 425.9 233.2C425.9 231.621 424.63 230.35 423.05 230.35C421.471 230.35 420.2 231.621 420.2 233.2ZM424 233.2C424 233.722 423.573 234.15 423.05 234.15C422.528 234.15 422.1 233.722 422.1 233.2C422.1 232.677 422.528 232.25 423.05 232.25C423.573 232.25 424 232.677 424 233.2Z" fill="white"/>
<path d="M416.4 229.4C417.979 229.4 419.25 228.129 419.25 226.55C419.25 224.971 417.979 223.7 416.4 223.7C414.82 223.7 413.55 224.971 413.55 226.55C413.55 228.129 414.82 229.4 416.4 229.4ZM416.4 225.6C416.922 225.6 417.35 226.028 417.35 226.55C417.35 227.073 416.922 227.5 416.4 227.5C415.877 227.5 415.45 227.073 415.45 226.55C415.45 226.028 415.877 225.6 416.4 225.6Z" fill="white"/>
<path d="M411.65 243.65H423.05C423.573 243.65 424 243.223 424 242.7C424 242.178 423.573 241.75 423.05 241.75H411.65C411.128 241.75 410.7 242.178 410.7 242.7C410.7 243.223 411.128 243.65 411.65 243.65Z" fill="white"/>
<path d="M424.95 245.55H411.65C411.128 245.55 410.7 245.977 410.7 246.5C410.7 247.022 411.128 247.45 411.65 247.45H424.95C425.473 247.45 425.9 247.022 425.9 246.5C425.9 245.977 425.473 245.55 424.95 245.55Z" fill="white"/>
<path d="M415.45 249.35H411.65C411.128 249.35 410.7 249.777 410.7 250.3C410.7 250.822 411.128 251.25 411.65 251.25H415.45C415.973 251.25 416.4 250.822 416.4 250.3C416.4 249.777 415.973 249.35 415.45 249.35Z" fill="white"/>
<path d="M424.95 249.35H419.25C418.727 249.35 418.3 249.777 418.3 250.3C418.3 250.822 418.727 251.25 419.25 251.25H424.95C425.472 251.25 425.9 250.822 425.9 250.3C425.9 249.777 425.472 249.35 424.95 249.35Z" fill="white"/>
</g>
<defs>
<filter id="filter0_ddd" x="88" y="11.8976" width="358.182" height="139.6" filterUnits="userSpaceOnUse" color-interpolation-filters="sRGB">
<feFlood flood-opacity="0" result="BackgroundImageFix"/>
<feColorMatrix in="SourceAlpha" type="matrix" values="0 0 0 0 0 0 0 0 0 0 0 0 0 0 0 0 0 0 127 0"/>
<feOffset/>
<feGaussianBlur stdDeviation="0.5"/>
<feColorMatrix type="matrix" values="0 0 0 0 0 0 0 0 0 0 0 0 0 0 0 0 0 0 0.04 0"/>
<feBlend mode="normal" in2="BackgroundImageFix" result="effect1_dropShadow"/>
<feColorMatrix in="SourceAlpha" type="matrix" values="0 0 0 0 0 0 0 0 0 0 0 0 0 0 0 0 0 0 127 0"/>
<feOffset dy="2"/>
<feGaussianBlur stdDeviation="3"/>
<feColorMatrix type="matrix" values="0 0 0 0 0 0 0 0 0 0 0 0 0 0 0 0 0 0 0.04 0"/>
<feBlend mode="normal" in2="effect1_dropShadow" result="effect2_dropShadow"/>
<feColorMatrix in="SourceAlpha" type="matrix" values="0 0 0 0 0 0 0 0 0 0 0 0 0 0 0 0 0 0 127 0"/>
<feOffset dy="10"/>
<feGaussianBlur stdDeviation="10"/>
<feColorMatrix type="matrix" values="0 0 0 0 0 0 0 0 0 0 0 0 0 0 0 0 0 0 0.04 0"/>
<feBlend mode="normal" in2="effect2_dropShadow" result="effect3_dropShadow"/>
<feBlend mode="normal" in="SourceGraphic" in2="effect3_dropShadow" result="shape"/>
</filter>
<filter id="filter1_ddd" x="0" y="185.898" width="186" height="181" filterUnits="userSpaceOnUse" color-interpolation-filters="sRGB">
<feFlood flood-opacity="0" result="BackgroundImageFix"/>
<feColorMatrix in="SourceAlpha" type="matrix" values="0 0 0 0 0 0 0 0 0 0 0 0 0 0 0 0 0 0 127 0"/>
<feOffset/>
<feGaussianBlur stdDeviation="0.5"/>
<feColorMatrix type="matrix" values="0 0 0 0 0 0 0 0 0 0 0 0 0 0 0 0 0 0 0.04 0"/>
<feBlend mode="normal" in2="BackgroundImageFix" result="effect1_dropShadow"/>
<feColorMatrix in="SourceAlpha" type="matrix" values="0 0 0 0 0 0 0 0 0 0 0 0 0 0 0 0 0 0 127 0"/>
<feOffset dy="2"/>
<feGaussianBlur stdDeviation="3"/>
<feColorMatrix type="matrix" values="0 0 0 0 0 0 0 0 0 0 0 0 0 0 0 0 0 0 0.04 0"/>
<feBlend mode="normal" in2="effect1_dropShadow" result="effect2_dropShadow"/>
<feColorMatrix in="SourceAlpha" type="matrix" values="0 0 0 0 0 0 0 0 0 0 0 0 0 0 0 0 0 0 127 0"/>
<feOffset dy="10"/>
<feGaussianBlur stdDeviation="10"/>
<feColorMatrix type="matrix" values="0 0 0 0 0 0 0 0 0 0 0 0 0 0 0 0 0 0 0.04 0"/>
<feBlend mode="normal" in2="effect2_dropShadow" result="effect3_dropShadow"/>
<feBlend mode="normal" in="SourceGraphic" in2="effect3_dropShadow" result="shape"/>
</filter>
<filter id="filter2_ddd" x="365" y="185.898" width="186" height="181" filterUnits="userSpaceOnUse" color-interpolation-filters="sRGB">
<feFlood flood-opacity="0" result="BackgroundImageFix"/>
<feColorMatrix in="SourceAlpha" type="matrix" values="0 0 0 0 0 0 0 0 0 0 0 0 0 0 0 0 0 0 127 0"/>
<feOffset/>
<feGaussianBlur stdDeviation="0.5"/>
<feColorMatrix type="matrix" values="0 0 0 0 0 0 0 0 0 0 0 0 0 0 0 0 0 0 0.04 0"/>
<feBlend mode="normal" in2="BackgroundImageFix" result="effect1_dropShadow"/>
<feColorMatrix in="SourceAlpha" type="matrix" values="0 0 0 0 0 0 0 0 0 0 0 0 0 0 0 0 0 0 127 0"/>
<feOffset dy="2"/>
<feGaussianBlur stdDeviation="3"/>
<feColorMatrix type="matrix" values="0 0 0 0 0 0 0 0 0 0 0 0 0 0 0 0 0 0 0.04 0"/>
<feBlend mode="normal" in2="effect1_dropShadow" result="effect2_dropShadow"/>
<feColorMatrix in="SourceAlpha" type="matrix" values="0 0 0 0 0 0 0 0 0 0 0 0 0 0 0 0 0 0 127 0"/>
<feOffset dy="10"/>
<feGaussianBlur stdDeviation="10"/>
<feColorMatrix type="matrix" values="0 0 0 0 0 0 0 0 0 0 0 0 0 0 0 0 0 0 0.04 0"/>
<feBlend mode="normal" in2="effect2_dropShadow" result="effect3_dropShadow"/>
<feBlend mode="normal" in="SourceGraphic" in2="effect3_dropShadow" result="shape"/>
</filter>
<clipPath id="clip0">
<rect width="57" height="57" fill="white" transform="translate(405 218)"/>
</clipPath>
</defs>
</svg>
