<?xml version="1.0" encoding="iso-8859-1"?>
<!-- Generator: Adobe Illustrator 19.0.0, SVG Export Plug-In . SVG Version: 6.00 Build 0)  -->
<svg version="1.1" id="Capa_1" xmlns="http://www.w3.org/2000/svg" xmlns:xlink="http://www.w3.org/1999/xlink" x="0px" y="0px"
	 viewBox="0 0 512.001 512.001" style="enable-background:new 0 0 512.001 512.001;" xml:space="preserve">
<path style="fill:#F3E8D6;" d="M376.412,11.22H48.795c-5.362,0-9.709,4.347-9.709,9.709v296.008h433.828V107.689
	C440.76,75.629,395.312,30.273,376.412,11.22z"/>
<path style="fill:#E5D8C6;" d="M432.302,67.171v249.766h40.611V107.689C460.582,95.393,446.297,81.144,432.302,67.171z"/>
<path style="fill:#FFBF14;" d="M176.263,176.646H14.796c-4.019,0-7.277,3.258-7.277,7.277v309.58c0,4.019,3.258,7.277,7.277,7.277
	h482.407c4.019,0,7.277-3.258,7.277-7.277V237.489c0-4.019-3.258-7.277-7.277-7.277H245.402c-9.284,0-18.017-4.403-23.538-11.867
	l-22.063-29.83C194.28,181.05,185.547,176.646,176.263,176.646z"/>
<g>
	<path style="fill:#EAA200;" d="M159.2,188.514l22.063,29.83c5.521,7.464,14.254,11.867,23.538,11.867h40.601
		c-9.284,0-18.017-4.403-23.538-11.867l-22.063-29.83c-5.521-7.464-14.254-11.867-23.538-11.867h-40.601
		C144.946,176.646,153.679,181.05,159.2,188.514z"/>
	<path style="fill:#EAA200;" d="M497.203,230.211h-40.601c4.019,0,7.277,3.258,7.277,7.277v256.016c0,4.019-3.258,7.277-7.277,7.277
		h40.601c4.019,0,7.277-3.258,7.277-7.277V237.489C504.481,233.469,501.223,230.211,497.203,230.211z"/>
</g>
<path style="fill:#2D5872;" d="M420.744,425.851H91.256c-4.537,0-8.216-3.678-8.216-8.216V310.753c0-4.537,3.678-8.216,8.216-8.216
	h329.488c4.537,0,8.216,3.678,8.216,8.216v106.882C428.96,422.173,425.281,425.851,420.744,425.851z"/>
<path style="fill:#1D4859;" d="M420.744,302.537h-40.729c4.537,0,8.216,3.678,8.216,8.216v106.882c0,4.537-3.678,8.216-8.216,8.216
	h40.729c4.537,0,8.216-3.678,8.216-8.216V310.753C428.96,306.215,425.281,302.537,420.744,302.537z"/>
<g>
	<path style="fill:#FFFFFF;" d="M142.187,378.755c0.227-13.074-27.823-9.551-27.464-30.21c0.226-12.987,11.46-17.239,21.484-17.065
		c5.143,0.089,16.54,1.508,16.44,7.261c-0.035,2.005-1.499,5.991-4.637,5.936c-2.702-0.047-4.649-3.394-11.971-3.522
		c-6.276-0.109-9.893,2.357-9.966,6.541c-0.187,10.809,27.858,7.547,27.466,30.123c-0.216,12.465-9.045,18.764-21.074,18.555
		c-11.419-0.199-20.035-6.103-19.948-11.158c0.043-2.441,2.372-6.062,5.074-6.015c3.574,0.062,5.811,6.814,14.702,6.969
		C137.523,386.261,142.096,383.986,142.187,378.755z"/>
	<path style="fill:#FFFFFF;" d="M174.643,359.136l13.249,0.23c2.267,0.039,3.536,2.241,3.495,4.595
		c-0.035,2.005-1.209,4.339-3.649,4.296l-13.25-0.23l-0.304,17.52l24.668,0.429c2.267,0.039,3.533,2.415,3.486,5.118
		c-0.041,2.354-1.218,4.862-3.658,4.82l-31.032-0.539c-2.528-0.044-4.947-1.307-4.906-3.66l0.982-56.572
		c0.041-2.354,2.503-3.531,5.031-3.487l31.031,0.539c2.441,0.042,3.53,2.59,3.489,4.943c-0.047,2.702-1.395,5.033-3.662,4.993
		l-24.668-0.428L174.643,359.136z"/>
	<path style="fill:#FFFFFF;" d="M231.386,341.836c-5.84-0.101-9.209,3.066-9.327,9.865l-0.423,24.32
		c-0.118,6.8,3.138,10.081,9.153,10.186c7.932,0.138,8.728-5.516,9.053-9.172c0.221-2.699,2.677-3.529,5.641-3.478
		c3.922,0.069,5.733,1.234,5.656,5.679c-0.184,10.547-8.929,17.11-21.133,16.898c-10.983-0.191-19.954-5.753-19.702-20.31
		l0.422-24.32c0.253-14.557,9.499-19.801,20.482-19.612c12.116,0.211,20.634,6.811,20.458,16.923
		c-0.079,4.532-1.927,5.546-5.763,5.48c-3.225-0.056-5.562-1.055-5.604-3.672C240.174,347.918,239.667,341.98,231.386,341.836z"/>
	<path style="fill:#FFFFFF;" d="M261.265,335.025c0.032-1.83,1.542-3.461,3.721-3.423l17.259,0.3
		c11.419,0.199,20.583,4.717,20.342,18.577c-0.174,10.025-5.15,15.344-11.722,17.235l11.051,21.38
		c0.341,0.443,0.418,1.053,0.412,1.402c-0.05,2.876-3.851,5.863-7.164,5.805c-1.569-0.027-3.034-1.011-3.876-2.77l-11.96-24.274
		l-7.322-0.127l-0.395,22.751c-0.041,2.353-2.852,3.525-5.728,3.475c-2.789-0.048-5.645-1.319-5.604-3.671L261.265,335.025z
		 M272.484,341.673l-0.323,18.566l9.588,0.166c5.666,0.099,9.368-2.191,9.487-9.077c0.12-6.887-3.499-9.391-9.164-9.489
		L272.484,341.673z"/>
	<path style="fill:#FFFFFF;" d="M323.566,359.136l13.249,0.23c2.267,0.039,3.536,2.241,3.495,4.595
		c-0.035,2.005-1.209,4.339-3.649,4.296l-13.25-0.23l-0.304,17.52l24.668,0.429c2.267,0.039,3.533,2.415,3.486,5.118
		c-0.041,2.354-1.218,4.862-3.658,4.82l-31.032-0.539c-2.527-0.044-4.947-1.307-4.906-3.66l0.983-56.572
		c0.041-2.354,2.503-3.531,5.031-3.487l31.031,0.539c2.441,0.042,3.53,2.59,3.489,4.943c-0.047,2.702-1.395,5.033-3.662,4.993
		l-24.668-0.428L323.566,359.136z"/>
	<path style="fill:#FFFFFF;" d="M396.869,332.2c2.441,0.043,3.529,2.678,3.486,5.118c-0.047,2.702-1.397,5.12-3.663,5.08
		l-12.726-0.221l-0.868,49.947c-0.041,2.354-2.938,3.524-5.727,3.476c-2.876-0.05-5.645-1.319-5.604-3.672l0.868-49.947
		l-12.813-0.222c-2.267-0.039-3.533-2.415-3.484-5.205c0.042-2.441,1.221-5.036,3.662-4.994L396.869,332.2z"/>
</g>
<path style="fill:#E5D8C6;" d="M376.562,91.314V11.22l96.352,96.352H392.82C383.841,107.571,376.562,100.293,376.562,91.314z"/>
<path d="M423.617,146.733c4.153,0,7.519-3.366,7.519-7.519s-3.366-7.519-7.519-7.519H177.353c-4.153,0-7.519,3.366-7.519,7.519
	s3.366,7.519,7.519,7.519H423.617z"/>
<path d="M142.367,131.694H88.382c-4.153,0-7.519,3.366-7.519,7.519s3.366,7.519,7.519,7.519h53.985c4.153,0,7.519-3.366,7.519-7.519
	S146.52,131.694,142.367,131.694z"/>
<path d="M88.382,95.267h238.799c4.153,0,7.519-3.366,7.519-7.519s-3.366-7.519-7.519-7.519H88.382c-4.153,0-7.519,3.366-7.519,7.519
	C80.863,91.901,84.23,95.267,88.382,95.267z"/>
<path d="M497.203,222.692h-16.771V107.689c0-0.097-0.011-0.192-0.014-0.289c-0.003-0.139-0.01-0.276-0.021-0.414
	c-0.005-0.056-0.014-0.111-0.021-0.167c-0.171-1.69-0.894-3.312-2.147-4.565l-96.35-96.351c-1.401-1.401-3.264-2.149-5.169-2.187
	c-0.1-0.004-0.199-0.015-0.299-0.015H48.795c-9.5,0-17.228,7.729-17.228,17.228v148.198h-16.77C6.638,169.127,0,175.765,0,183.923
	v309.581c0,8.158,6.638,14.797,14.797,14.797h482.407c8.159,0,14.797-6.638,14.797-14.797V237.488
	C512,229.33,505.362,222.692,497.203,222.692z M384.082,29.585c18.547,18.595,45.934,45.939,70.526,70.467H392.82
	c-4.818,0-8.739-3.92-8.739-8.738V29.585H384.082z M46.605,20.929c0-1.207,0.982-2.189,2.19-2.189h320.248v72.575
	c0,13.111,10.666,23.776,23.777,23.776h72.574v107.601H245.402c-6.869,0-13.408-3.296-17.493-8.819l-22.063-29.83
	c-6.908-9.34-17.967-14.916-29.583-14.916H46.605V20.929z M496.962,493.263H15.038V184.165h161.224
	c6.869,0,13.408,3.297,17.493,8.82l22.063,29.83c6.908,9.339,17.967,14.915,29.583,14.915h251.56v255.533H496.962z"/>
<path d="M75.521,310.753v106.882c0,8.676,7.059,15.735,15.735,15.735h243.45c4.153,0,7.519-3.366,7.519-7.519
	s-3.367-7.519-7.519-7.519H91.256c-0.384,0-0.697-0.312-0.697-0.697V310.753c0-0.385,0.312-0.697,0.697-0.697h329.488
	c0.384,0,0.697,0.312,0.697,0.697v106.882c0,0.385-0.312,0.697-0.697,0.697h-51.052c-4.153,0-7.519,3.366-7.519,7.519
	s3.366,7.519,7.519,7.519h51.052c8.676,0,15.735-7.059,15.735-15.735V310.753c0-8.676-7.059-15.735-15.735-15.735H91.256
	C82.58,295.018,75.521,302.077,75.521,310.753z"/>
<g>
</g>
<g>
</g>
<g>
</g>
<g>
</g>
<g>
</g>
<g>
</g>
<g>
</g>
<g>
</g>
<g>
</g>
<g>
</g>
<g>
</g>
<g>
</g>
<g>
</g>
<g>
</g>
<g>
</g>
</svg>
