<svg height="512" viewBox="0 0 64 64" width="512" xmlns="http://www.w3.org/2000/svg"><g id="Filled_outline" data-name="Filled outline"><path d="m41 26h20v20h-20z" fill="#d3843d"/><path d="m41 26h20v8h-20z" fill="#ad6327"/><path d="m47 38h8v8h-8z" fill="#66342e"/><path d="m61 26h-20v-5l6-3h8l6 3z" fill="#f9bb4b"/><path d="m46 21h2v2h-2z" fill="#fcf05a"/><path d="m50 21h2v2h-2z" fill="#fcf05a"/><path d="m54 21h2v2h-2z" fill="#fcf05a"/><path d="m3 21h20v25h-20z" fill="#d3843d"/><path d="m8 38h10v8h-10z" fill="#66342e"/><path d="m12 38h2v7h-2z" fill="#995f5b"/><path d="m23 21h-20l10-8z" fill="#f9bb4b"/><path d="m3 21h20v8h-20z" fill="#ad6327"/><path d="m8 34h5v4h-5z" fill="#ffd782"/><path d="m13 34h5v4h-5z" fill="#f7bf66"/><path d="m33 33h-8l4-6z" fill="#55b56a"/><path d="m27 33-2 4h8l-2-4z" fill="#8ec13f"/><path d="m39 20h-8l4-6z" fill="#55b56a"/><path d="m33 20-2 4h8l-2-4z" fill="#8ec13f"/><path d="m33 24-2 4h8l-2-4z" fill="#c8d952"/><path d="m27 37-2 4h8l-2-4z" fill="#c8d952"/><path d="m28 41h2v6h-2z" fill="#d3843d"/><path d="m57 14v-1a2.768 2.768 0 0 0 -3-3h-1c-.593-1.9-2-3-5-3-2.227 0-4.518.932-5 3h-1a2.919 2.919 0 0 0 -3 3v1z" fill="#cdeef6"/><path d="m36 10v-1a2.768 2.768 0 0 0 -3-3h-1c-.593-1.9-2-3-5-3-2.227 0-4.518.932-5 3h-1a2.919 2.919 0 0 0 -3 3v1z" fill="#cdeef6"/><path d="m3 46h58v15h-58z" fill="#55b56a"/><g fill="#3e8051"><path d="m10 50h2v2h-2z"/><path d="m12 56h6v2h-6z"/><path d="m33 49h2v2h-2z"/><path d="m54 49h2v2h-2z"/><path d="m56 51h2v2h-2z"/><path d="m6 52h2v2h-2z"/></g><path d="m25 56a1.02 1.02 0 0 1 -.372-.071l-5-2 .744-1.858 4.628 1.852 4.628-1.852.744 1.858-5 2a1.02 1.02 0 0 1 -.372.071z" fill="#c8d952"/><path d="m25 56a1 1 0 0 1 -.929-.628l-2-5 1.858-.744 1.071 2.68 1.071-2.68 1.858.744-2 5a1 1 0 0 1 -.929.628z" fill="#c8d952"/><path d="m47 58a1.02 1.02 0 0 1 -.372-.071l-5-2 .744-1.858 4.628 1.852 4.628-1.852.744 1.858-5 2a1.02 1.02 0 0 1 -.372.071z" fill="#c8d952"/><path d="m47 58a1 1 0 0 1 -.929-.628l-2-5 1.858-.744 1.071 2.68 1.071-2.68 1.858.744-2 5a1 1 0 0 1 -.929.628z" fill="#c8d952"/><path d="m34 28h2v18h-2z" fill="#d3843d"/><path d="m50 19.23h2.001v21.541h-2.001z" fill="#66342e" transform="matrix(.371 -.928 .928 .371 4.205 66.211)"/><path d="m40.23 29h21.541v2.001h-21.541z" fill="#66342e" transform="matrix(.928 -.371 .371 .928 -7.495 21.092)"/><path d="m12 13.905h2v21.19h-2z" fill="#66342e" transform="matrix(.33 -.944 .944 .33 -14.419 28.677)"/><path d="m2.405 23.5h21.19v2h-21.19z" fill="#66342e" transform="matrix(.944 -.331 .331 .944 -7.368 5.674)"/><path d="m46.764 17-6.764 3.382v24.618h-4v-16h3a1 1 0 0 0 .9-1.447l-1.282-2.553h.382a1 1 0 0 0 .9-1.447l-1.282-2.553h.382a1 1 0 0 0 .832-1.555l-4-6a1.039 1.039 0 0 0 -1.664 0l-4 6a1 1 0 0 0 .832 1.555h.382l-1.277 2.553a1 1 0 0 0 .895 1.447h.382l-1.077 2.154-.473-.709a1.039 1.039 0 0 0 -1.664 0l-4 6a1 1 0 0 0 .832 1.555h.382l-1.277 2.553a1 1 0 0 0 .895 1.447h.382l-1.277 2.553a1 1 0 0 0 .895 1.447h3v3h-4v-24a2.057 2.057 0 0 0 -.069-.341 1.984 1.984 0 0 0 -.181-.3c-.027-.031-.108-.123-.125-.137l-10-8a1 1 0 0 0 -1.25 0l-10 8c-.017.014-.1.106-.125.137a1.984 1.984 0 0 0 -.181.3 2.057 2.057 0 0 0 -.069.341v40a1 1 0 0 0 1 1h58a1 1 0 0 0 1-1v-40.618l-6.764-3.382zm1.543 13-6.307 2.523v-5.046zm2.693 1.077 4.807 1.923h-9.614zm2.693-1.077 6.307-2.523v5.046zm-2.693-1.077-4.807-1.923h9.614zm-16-13.123 2.131 3.2h-4.262zm1.382 5.2 1 2h-4.764l1-2zm0 4 1 2h-4.764l1-2zm-7.382 3.8 2.131 3.2h-4.262zm1.382 5.2 1 2h-4.764l1-2zm-2.764 4h2.764l1 2h-4.764zm2.382 4h3a1 1 0 0 0 .9-1.447l-1.282-2.553h.382a1 1 0 0 0 .9-1.447l-1.282-2.553h.382a1 1 0 0 0 .832-1.555l-2.297-3.445h2.465v16h-4zm-16-7h3v2h-3zm-2 2h-3v-2h3zm-3 2h3v6h-3zm5 0h3v6h-3zm5-5a1 1 0 0 0 -1-1h-10a1 1 0 0 0 -1 1v11h-3v-15h18v15h-3zm-15-11.59 5.973 2.09-5.973 2.09zm9 3.15 6.973 2.44h-13.946zm9 1.03-5.973-2.09 5.973-2.09zm-9-3.15-4.116-1.44h8.232zm0-9.159 7.149 5.719h-14.298zm47 45.719h-56v-13h56zm-6-15h-6v-6h6zm6 0h-4v-8h-10v8h-4v-10h18zm0-20h-18v-3.382l5.236-2.618h7.528l5.236 2.618z"/><path d="m46 21h2v2h-2z"/><path d="m50 21h2v2h-2z"/><path d="m54 21h2v2h-2z"/><path d="m39 15h18a1 1 0 0 0 1-1v-1a3.748 3.748 0 0 0 -4-4h-.31c-.909-2.017-2.778-3-5.69-3-2.731 0-4.878 1.153-5.712 3h-.288a3.913 3.913 0 0 0 -4 4v1a1 1 0 0 0 1 1zm3-4h1a1 1 0 0 0 .974-.773c.383-1.644 2.408-2.227 4.026-2.227 2.927 0 3.674 1.1 4.045 2.3a1 1 0 0 0 .955.7h1a1.792 1.792 0 0 1 2 2h-16a1.913 1.913 0 0 1 2-2z"/><path d="m18 11h18a1 1 0 0 0 1-1v-1a3.748 3.748 0 0 0 -4-4h-.31c-.909-2.017-2.778-3-5.69-3-2.731 0-4.878 1.153-5.712 3h-.288a3.913 3.913 0 0 0 -4 4v1a1 1 0 0 0 1 1zm3-4h1a1 1 0 0 0 .974-.773c.383-1.644 2.408-2.227 4.026-2.227 2.927 0 3.674 1.1 4.045 2.3a1 1 0 0 0 .955.7h1a1.792 1.792 0 0 1 2 2h-16a1.913 1.913 0 0 1 2-2z"/><path d="m10 50h2v2h-2z"/><path d="m12 56h6v2h-6z"/><path d="m33 49h2v2h-2z"/><path d="m54 49h2v2h-2z"/><path d="m56 51h2v2h-2z"/><path d="m6 52h2v2h-2z"/><path d="m26.8 53.205 1.133-2.833-1.858-.744-1.075 2.68-1.071-2.68-1.858.744 1.129 2.833-2.832-1.134-.744 1.858 5 2a1.913 1.913 0 0 0 .376.071 1.913 1.913 0 0 0 .372-.071l5-2-.744-1.858z"/><path d="m48.8 55.205 1.133-2.833-1.858-.744-1.075 2.68-1.071-2.68-1.858.744 1.129 2.833-2.832-1.134-.744 1.858 5 2a1.01 1.01 0 0 0 .744 0l5-2-.744-1.858z"/></g></svg>