<?xml version="1.0" encoding="UTF-8"?>
<!DOCTYPE svg PUBLIC "-//W3C//DTD SVG 1.1//EN" "http://www.w3.org/Graphics/SVG/1.1/DTD/svg11.dtd">
<!-- Creator: CorelDRAW X7 -->
<svg xmlns="http://www.w3.org/2000/svg" xml:space="preserve" width="72.7278mm" height="72.7278mm" version="1.1" style="shape-rendering:geometricPrecision; text-rendering:geometricPrecision; image-rendering:optimizeQuality; fill-rule:evenodd; clip-rule:evenodd"
viewBox="0 0 1941 1941"
 xmlns:xlink="http://www.w3.org/1999/xlink">
 <defs>
  <style type="text/css">
   <![CDATA[
    .fil1 {fill:none}
    .fil0 {fill:#03443D}
   ]]>
  </style>
   <clipPath id="id0">
    <path d="M0 0l1941 0 0 1941 -1941 0 0 -1941z"/>
   </clipPath>
 </defs>
 <g id="Layer_x0020_1">
  <metadata id="CorelCorpID_0Corel-Layer"/>
  <g>
  </g>
  <g style="clip-path:url(#id0)">
   <g>
    <g id="_1956337314320">
     <path class="fil0" d="M1745 919l-5 -10 168 -168c27,-27 42,-63 42,-101 0,-79 -64,-143 -143,-143 -17,0 -32,3 -47,8l0 -419c0,-52 -42,-95 -95,-95l-984 0c-25,0 -49,10 -67,28l-279 279c-18,18 -28,42 -28,67l0 70c-177,16 -316,165 -316,346l0 1011c0,87 71,158 158,158l379 0c87,0 158,-71 158,-158l0 -32 758 0 32 0 448 0 -69 -414c-1,-149 -38,-296 -110,-427l0 0zm46 407l-308 84 -74 -60c-38,-30 -59,-75 -59,-123l0 -256 0 -32c34,0 63,28 63,63l0 221 63 0 0 -50 217 -217c61,114 94,241 98,370zm-441 -450c-35,0 -64,28 -64,63l0 32c0,17 -14,31 -31,31 -18,0 -32,-14 -32,-31l0 -32c0,-70 57,-126 127,-126l81 0 -65 64c-5,0 -11,-1 -16,-1l0 0zm-346 539l41 -104 90 90 -104 42c-13,5 -29,-5 -29,-20 0,-3 1,-5 2,-8zm188 -47l-114 -113 191 -191c6,-1 12,-3 17,-5l0 168c0,14 2,28 5,42l-99 99zm-26 -366l-353 0 0 -126 358 0c-7,20 -11,41 -11,63l0 32c0,11 2,21 6,31zm-353 63l366 0 -127 127 -239 0 0 -127zm0 190l187 0 -51 126 -136 0 0 -126zm0 189l129 0c10,37 42,64 82,64 10,0 21,-2 31,-6l73 -30 0 99 -315 0 0 -127zm379 3l17 -7 106 -105c1,2 2,4 3,6l0 230 -126 0 0 -124zm189 -38l63 51 0 111 -63 0 0 -162zm506 -769c0,21 -9,41 -24,57l-387 387 0 -82c0,-39 -19,-74 -47,-98l321 -321c15,-15 35,-23 57,-23 44,0 80,36 80,80l0 0zm-1264 -541l0 177c0,17 -14,31 -32,31l-176 0 208 -208zm-284 398c156,0 284,127 284,284 0,157 -128,284 -284,284 -157,0 -285,-127 -285,-284 0,-157 128,-284 285,-284zm-158 593c47,24 101,38 158,38 57,0 110,-14 158,-38l0 165 -316 0 0 -165zm347 797l-379 0c-52,0 -95,-43 -95,-95l0 -812c18,26 40,49 64,69l0 206c0,35 28,63 63,63l316 0c35,0 63,-28 63,-63l0 -206c24,-20 45,-43 63,-69l0 812c0,52 -42,95 -95,95zm158 -190l0 -916c0,-181 -139,-330 -316,-346l0 -65 221 0c53,0 95,-42 95,-94l0 -222 979 0c18,0 32,15 32,32l0 461 -203 202 -144 0c-56,0 -107,25 -141,64l-460 0 0 821 695 0 0 63 -758 0zm822 0l0 -228 290 -80 51 308 -341 0z"/>
     <path class="fil0" d="M307 934l0 68 63 0 0 -68c37,-11 64,-45 64,-85 0,-35 -20,-65 -50,-81l-62 -31c-9,-4 -15,-14 -15,-24 0,-15 12,-27 27,-27l9 0c15,0 27,12 27,27l0 36 64 0 0 -36c0,-40 -27,-74 -64,-85l0 -68 -63 0 0 68c-36,11 -63,45 -63,85 0,35 19,65 50,81l61 31c10,4 15,13 15,24 0,15 -12,27 -27,27l-9 0c-15,0 -27,-12 -27,-27l0 -36 -63 0 0 36c0,40 27,74 63,85z"/>
     <path class="fil0" d="M497 1381l-316 0c-35,0 -63,29 -63,63l0 316c0,35 28,63 63,63l316 0c35,0 63,-28 63,-63l0 -316c0,-34 -28,-63 -63,-63zm0 127l-63 0 0 -64 63 0 0 64zm-127 252l-63 0 0 -63 63 0 0 63zm0 -126l-63 0 0 -63 63 0 0 63zm-126 0l-63 0 0 -63 63 0 0 63zm63 -126l0 -64 63 0 0 64 -63 0zm-63 -64l0 64 -63 0 0 -64 63 0zm-63 253l63 0 0 63 -63 0 0 -63zm253 63l0 -189 63 0 0 189 -63 0z"/>
     <path class="fil0" d="M1634 118l-885 0 0 189 885 0 0 -189zm-63 126l-758 0 0 -63 758 0 0 63z"/>
     <polygon class="fil0" points="749,370 1634,370 1634,434 749,434 "/>
     <polygon class="fil0" points="749,497 1634,497 1634,560 749,560 "/>
     <polygon class="fil0" points="749,623 1255,623 1255,686 749,686 "/>
    </g>
   </g>
  </g>
  <polygon class="fil1" points="0,0 1941,0 1941,1941 0,1941 "/>
 </g>
</svg>
