<?xml version="1.0" encoding="UTF-8"?>
<!DOCTYPE svg PUBLIC "-//W3C//DTD SVG 1.1//EN" "http://www.w3.org/Graphics/SVG/1.1/DTD/svg11.dtd">
<!-- Creator: CorelDRAW X7 -->
<svg xmlns="http://www.w3.org/2000/svg" xml:space="preserve" width="72.7278mm" height="72.7278mm" version="1.1" style="shape-rendering:geometricPrecision; text-rendering:geometricPrecision; image-rendering:optimizeQuality; fill-rule:evenodd; clip-rule:evenodd"
viewBox="0 0 4554 4554"
 xmlns:xlink="http://www.w3.org/1999/xlink">
 <defs>
  <style type="text/css">
   <![CDATA[
    .fil1 {fill:none}
    .fil0 {fill:#03443D}
   ]]>
  </style>
   <clipPath id="id0">
    <path d="M0 0l4554 0 0 4554 -4554 0 0 -4554z"/>
   </clipPath>
 </defs>
 <g id="Layer_x0020_1">
  <metadata id="CorelCorpID_0Corel-Layer"/>
  <g>
  </g>
  <g style="clip-path:url(#id0)">
   <g>
    <g id="_1954757115680">
     <path class="fil0" d="M2277 802c-813,0 -1475,662 -1475,1475 0,813 662,1475 1475,1475 813,0 1475,-662 1475,-1475 0,-813 -662,-1475 -1475,-1475l0 0zm-742 2554l0 -517c0,-159 119,-293 277,-312 208,243 569,284 827,95 38,-28 72,-60 103,-95 158,19 277,153 277,312l0 517c-216,145 -467,231 -742,231 -275,0 -526,-86 -742,-231zm1649 -134l0 -383c-1,-265 -215,-479 -480,-480 -27,0 -51,13 -67,34 -84,115 -218,182 -360,182 -142,0 -276,-67 -361,-182 -15,-21 -40,-34 -66,-34 -265,1 -480,215 -480,480l0 383c-258,-247 -403,-589 -403,-945 0,-722 587,-1310 1310,-1310 722,0 1310,588 1310,1310 0,356 -146,698 -403,945z"/>
     <path class="fil0" d="M4279 2508c20,-184 15,-369 -15,-552l229 -219c25,-24 32,-61 18,-92l-260 -595c-14,-32 -47,-51 -81,-49l-316 24c-114,-147 -249,-275 -401,-382l10 -315c1,-35 -21,-67 -53,-80l-605 -233c-32,-13 -69,-3 -92,23l-205 237c-184,-20 -369,-15 -552,14l-219 -228c-24,-25 -61,-32 -92,-18l-594 260c-33,14 -52,46 -50,81l24 316c-147,114 -275,249 -382,401l-315 -10c-35,-1 -67,20 -80,53l-233 605c-13,32 -3,69 23,92l237 205c-20,183 -15,369 15,552l-229 219c-25,24 -32,61 -18,92l260 594c14,32 46,52 81,49l316 -23c114,147 249,275 401,382l-10 315c-1,35 20,67 53,80l605 233c32,12 69,3 92,-23l205 -237c183,19 369,15 552,-15l219 229c24,24 61,32 92,18l594 -260c32,-14 52,-47 49,-81l-23 -316c147,-114 275,-249 382,-401l315 9c35,1 67,-20 80,-52l233 -605c12,-32 3,-69 -23,-92l-237 -205zm-106 788l-303 -9c-28,-1 -55,13 -71,37 -109,164 -246,307 -404,425 -23,16 -36,44 -34,72l23 302 -488 214 -210 -219c-19,-20 -47,-29 -74,-24 -194,36 -393,41 -590,16 -27,-4 -55,7 -73,28l-195 226 -496 -191 9 -303c1,-28 -13,-55 -37,-71 -164,-109 -308,-246 -425,-404 -17,-23 -44,-36 -72,-34l-303 23 -213 -488 218 -210c20,-19 29,-47 24,-74 -35,-194 -40,-393 -15,-590 4,-27 -7,-55 -28,-73l-226 -195 191 -496 302 9c29,1 56,-13 71,-37 110,-164 247,-308 405,-425 23,-17 35,-44 33,-72l-22 -303 488 -213 209 218c19,20 47,29 75,24 194,-35 393,-41 590,-15 27,4 54,-7 73,-28l195 -226 496 191 -9 302c-1,29 13,56 37,71 164,110 308,247 425,405 17,23 44,35 72,33l302 -22 214 488 -218 209c-20,19 -29,47 -24,75 35,194 40,393 15,589 -4,28 7,55 28,73l226 196 -191 496z"/>
     <path class="fil0" d="M2277 1299c-289,0 -524,234 -524,523 0,290 235,524 524,524 289,0 524,-234 524,-524 -1,-289 -235,-523 -524,-523zm0 882c-198,0 -359,-160 -359,-359 0,-198 161,-359 359,-359 198,0 359,161 359,359 0,198 -161,359 -359,359z"/>
    </g>
   </g>
  </g>
  <polygon class="fil1" points="0,0 4554,0 4554,4554 0,4554 "/>
 </g>
</svg>
