<?xml version="1.0" encoding="UTF-8"?>
<!DOCTYPE svg PUBLIC "-//W3C//DTD SVG 1.1//EN" "http://www.w3.org/Graphics/SVG/1.1/DTD/svg11.dtd">
<!-- Creator: CorelDRAW X7 -->
<svg xmlns="http://www.w3.org/2000/svg" xml:space="preserve" width="72.7278mm" height="72.7278mm" version="1.1" style="shape-rendering:geometricPrecision; text-rendering:geometricPrecision; image-rendering:optimizeQuality; fill-rule:evenodd; clip-rule:evenodd"
viewBox="0 0 1131 1131"
 xmlns:xlink="http://www.w3.org/1999/xlink">
 <defs>
  <style type="text/css">
   <![CDATA[
    .fil1 {fill:none}
    .fil0 {fill:#03443D}
   ]]>
  </style>
   <clipPath id="id0">
    <path d="M0 0l1131 0 0 1131 -1131 0 0 -1131z"/>
   </clipPath>
 </defs>
 <g id="Layer_x0020_1">
  <metadata id="CorelCorpID_0Corel-Layer"/>
  <g>
  </g>
  <g style="clip-path:url(#id0)">
   <g>
    <g id="_1954758368016">
     <path class="fil0" d="M521 91c9,0 17,-8 17,-17 0,-9 -8,-16 -17,-16l-111 0c-9,0 -16,7 -16,16 0,9 7,17 16,17l111 0z"/>
     <path class="fil0" d="M517 1026c0,-28 -23,-51 -51,-51 -28,0 -51,23 -51,51 0,28 23,51 51,51 28,0 51,-23 51,-51zm-51 18c-10,0 -18,-8 -18,-18 0,-10 8,-18 18,-18 10,0 18,8 18,18 0,10 -8,18 -18,18z"/>
     <path class="fil0" d="M515 768l158 0c9,0 16,-8 16,-17 0,-9 -7,-16 -16,-16l-158 0c-9,0 -16,7 -16,16 0,9 7,17 16,17z"/>
     <path class="fil0" d="M515 562c-9,0 -16,7 -16,17 0,9 7,16 16,16l158 0c9,0 16,-7 16,-16 0,-10 -7,-17 -16,-17l-158 0z"/>
     <path class="fil0" d="M857 562c-9,0 -16,7 -16,17 0,9 7,16 16,16l34 0c9,0 16,-7 16,-16 0,-10 -7,-17 -16,-17l-34 0z"/>
     <path class="fil0" d="M987 352c0,-26 -22,-49 -49,-49l-150 0 0 -210c0,-51 -41,-92 -92,-92l-461 0c-50,0 -92,41 -92,92l0 945c0,51 42,92 92,92l192 0c9,0 17,-8 17,-17 0,-9 -8,-16 -17,-16l-192 0c-32,0 -58,-27 -58,-59l0 -945c0,-33 26,-59 58,-59l461 0c33,0 59,26 59,59l0 210 -35 0c0,-33 0,-132 0,-165 0,-13 -11,-23 -24,-23 -22,0 -438,0 -461,0 -13,0 -23,10 -23,23l0 799c0,13 10,23 23,23l461 0c13,0 24,-10 24,-23l0 -83 35 0 0 184c0,32 -26,59 -59,59l-192 0c-9,0 -16,7 -16,16 0,9 7,17 16,17l192 0c51,0 92,-41 92,-92l0 -184 150 0c27,0 49,-23 49,-49l0 -108c0,-12 -5,-23 -13,-32 8,-9 13,-20 13,-33l0 -15c0,-9 -7,-16 -16,-16 -9,0 -17,7 -17,16l0 15c0,9 -7,16 -16,16l-470 0c-3,0 -6,-1 -9,-3 -4,-2 -7,-7 -7,-13l0 -107c0,-9 8,-16 16,-16l470 0c9,0 16,7 16,16l0 15c0,9 8,16 17,16 9,0 16,-7 16,-16l0 -15c0,-13 -5,-24 -13,-33 8,-8 13,-20 13,-32l0 -108 0 0zm-656 -204l356 0 0 53 -356 0 0 -53zm-86 0l53 0 0 53 -53 0 0 -53zm223 533l470 0c9,0 16,8 16,16l0 108c0,8 -7,16 -16,16 -7,0 -463,0 -470,0 -8,0 -16,-8 -16,-16l0 -108c0,-8 8,-16 16,-16l0 0zm-49 -329l0 108c0,12 5,23 13,32 -8,9 -13,21 -13,33l0 107c0,12 5,24 13,33 -8,9 -13,20 -13,32l0 108c0,26 23,49 49,49l219 0 0 73 -442 0 0 -693 442 0 0 69 -219 0c-26,0 -49,23 -49,49l0 0zm535 108c0,8 -7,16 -16,16l-470 0c-8,0 -16,-8 -16,-16l0 -108c0,-8 8,-16 16,-16l470 0c9,0 16,8 16,16l0 108z"/>
     <path class="fil0" d="M673 389l-158 0c-9,0 -16,8 -16,17 0,9 7,17 16,17l158 0c9,0 16,-8 16,-17 0,-9 -7,-17 -16,-17z"/>
     <path class="fil0" d="M891 389l-34 0c-9,0 -16,8 -16,17 0,9 7,17 16,17l34 0c9,0 16,-8 16,-17 0,-9 -7,-17 -16,-17z"/>
     <path class="fil0" d="M857 768l34 0c9,0 16,-8 16,-17 0,-9 -7,-16 -16,-16l-34 0c-9,0 -16,7 -16,16 0,9 7,17 16,17z"/>
     <path class="fil0" d="M759 562c-9,0 -16,7 -16,17 0,9 7,16 16,16l34 0c9,0 16,-7 16,-16 0,-10 -7,-17 -16,-17l-34 0z"/>
     <path class="fil0" d="M793 389l-34 0c-9,0 -16,8 -16,17 0,9 7,17 16,17l34 0c9,0 16,-8 16,-17 0,-9 -7,-17 -16,-17z"/>
     <path class="fil0" d="M759 768l34 0c9,0 16,-8 16,-17 0,-9 -7,-16 -16,-16l-34 0c-9,0 -16,7 -16,16 0,9 7,17 16,17z"/>
    </g>
   </g>
  </g>
  <polygon class="fil1" points="0,0 1131,0 1131,1131 0,1131 "/>
 </g>
</svg>
