<svg xmlns="http://www.w3.org/2000/svg" xmlns:xlink="http://www.w3.org/1999/xlink" width="274.877" height="274.877" version="1.1" viewBox="0 0 4466 4466" xml:space="preserve" style="shape-rendering:geometricPrecision;text-rendering:geometricPrecision;image-rendering:optimizeQuality;fill-rule:evenodd;clip-rule:evenodd"><defs><style type="text/css">.fil1{fill:none}.fil0{fill:#03443d}</style><clipPath id="id0"><path d="M0 0l4466 0 0 4466 -4466 0 0 -4466z"/></clipPath></defs><g id="Layer_x0020_1"><metadata id="CorelCorpID_0Corel-Layer"/><g style="clip-path:url(#id0)"><g><g id="_1954757102944"><path d="M1336 4155l1938 0c52,0 89,12 116,35 33,27 43,59 54,107l-2276 0c22,-95 51,-142 168,-142zm1387 -712l303 0 115 569 -533 0 115 -569zm-1413 383c39,19 104,0 184,47 47,28 86,73 92,139l-276 0 0 -186zm1147 186l-293 0 0 -142 320 0c-4,47 -23,95 -27,142zm35 -284l-382 0c-136,0 -231,-95 -231,-232l0 -960c0,-138 93,-231 231,-231l1529 0c136,0 232,95 232,231l0 960c0,137 -96,232 -232,232 -475,0 -394,29 -421,-94l-68 -334 -551 0 -66 335c-6,36 -8,93 -41,93zm-2035 -294c0,135 107,257 234,308 56,22 162,30 228,38 79,9 169,27 249,27l0 205 -463 0c-203,0 -341,-73 -431,-191 -159,-213 -109,-482 11,-719 62,-124 182,-250 302,-321 49,-28 159,-93 225,-95 11,143 140,259 258,259 93,0 157,-9 229,-82 41,-41 76,-103 82,-177 157,14 316,177 356,187 0,211 1,421 0,633 -2,205 158,352 285,355l0 151 -285 0c-10,-118 -90,-217 -169,-267 -180,-114 -792,-65 -909,-193 -77,-83 -61,-201 -61,-322l-141 0 0 204zm498 -800c0,-52 22,-69 26,-116l231 0c4,47 27,64 27,116 0,222 -284,222 -284,0zm710 -686l0 -284c179,42 157,183 99,241 -25,26 -57,34 -99,43zm-1137 -284l0 284c-179,-41 -157,-183 -99,-240 26,-26 57,-35 99,-44zm542 -284c103,0 161,46 169,142l142 0c0,-103 -9,-68 -27,-142 109,0 169,59 169,168l0 516c0,188 -123,311 -311,311 -220,0 -542,40 -542,-311l0 -436c0,-104 46,-185 112,-225 90,-54 165,22 173,119l142 0c0,-51 -6,-95 -27,-142zm-533 142c-85,0 -81,12 -142,26 0,-42 -10,-41 -10,-70 0,-255 139,-446 359,-550 139,-66 561,-64 699,-3 218,99 365,299 365,543 0,40 -10,35 -10,80 -64,-15 -44,-26 -133,-26 0,-165 -129,-285 -266,-285l-596 0c-58,0 -137,71 -171,104 -38,39 -90,115 -95,181zm204 -747l0 -508c1,-58 24,-97 80,-97l1404 0c45,0 80,36 80,79l0 1103c0,135 -138,98 -355,98 0,-113 -27,-206 -63,-285 -104,-232 -353,-426 -621,-426 -129,0 -420,-15 -525,36zm-143 70c-36,9 -109,69 -135,96 -114,114 -220,296 -220,474 0,181 27,238 27,249 0,37 -88,196 51,341 53,55 119,86 207,86 0,211 146,372 302,409l0 27c-172,14 -433,187 -549,323 -226,269 -357,711 -152,1018 36,54 51,67 94,111 109,109 251,177 429,176 136,-1 272,0 409,0 -50,94 -36,163 -36,284l2561 0c0,-145 20,-251 -91,-354 -51,-47 -106,-73 -203,-73 -4,-47 -22,-95 -26,-142 142,0 409,19 514,-19 108,-39 232,-163 232,-310l0 -1049c0,-165 -165,-330 -328,-330l-1618 0c-118,0 -221,83 -271,156 -75,110 -58,197 -58,368 -33,-8 -55,-31 -84,-49 -28,-17 -58,-31 -88,-45 -45,-22 -147,-61 -202,-65l0 -27c156,-37 302,-198 302,-409 165,0 285,-137 285,-258 0,-208 -52,-59 -9,-240 75,0 284,9 344,-3 80,-18 162,-100 162,-193l0 -1174c0,-98 -96,-196 -194,-196l-1459 0c-66,0 -131,48 -158,90 -48,74 -38,108 -38,221 0,170 0,339 0,507z" class="fil0"/><path d="M2732 1371l0 -1122c0,-43 36,-79 80,-79l1387 0c66,0 97,31 97,98l0 1103c0,43 -35,79 -79,79l-1405 0c-44,0 -80,-36 -80,-79zm-142 -1148l0 1174c0,98 98,196 196,196l1457 0c98,0 196,-98 196,-196l0 -1174c0,-98 -98,-196 -196,-196l-1457 0c-98,0 -196,98 -196,196z" class="fil0"/><path d="M3017 1023l284 0 0 143 -284 0 0 -143zm-143 285l570 0 0 -426 -570 0 0 426z" class="fil0"/><polygon points="883 455 2164 455 2164 312 883 312" class="fil0"/><polygon points="2874 455 4154 455 4154 312 2874 312" class="fil0"/><polygon points="2874 739 4154 739 4154 597 2874 597" class="fil0"/><path d="M1070 2233c93,0 157,-9 229,-82 53,-53 82,-117 82,-203l-142 0c-42,179 -183,157 -241,99 -25,-25 -34,-57 -43,-99l-143 0c0,90 29,147 73,194 36,40 113,91 185,91z" class="fil0"/><polygon points="1595 739 2164 739 2164 597 1595 597" class="fil0"/><polygon points="3586 1023 4154 1023 4154 882 3586 882" class="fil0"/><polygon points="3586 1308 4154 1308 4154 1166 3586 1166" class="fil0"/><path d="M1239 1717c0,131 142,105 142,18 0,-101 -142,-84 -142,-18z" class="fil0"/><path d="M812 1735c0,96 143,96 143,0 0,-96 -143,-96 -143,0z" class="fil0"/></g></g></g><polygon points="0 0 4466 0 4466 4466 0 4466" class="fil1"/></g></svg>