<?xml version="1.0" encoding="UTF-8"?>
<!DOCTYPE svg PUBLIC "-//W3C//DTD SVG 1.1//EN" "http://www.w3.org/Graphics/SVG/1.1/DTD/svg11.dtd">
<!-- Creator: CorelDRAW X7 -->
<svg xmlns="http://www.w3.org/2000/svg" xml:space="preserve" width="72.7278mm" height="72.7278mm" version="1.1" style="shape-rendering:geometricPrecision; text-rendering:geometricPrecision; image-rendering:optimizeQuality; fill-rule:evenodd; clip-rule:evenodd"
viewBox="0 0 9727 9727"
 xmlns:xlink="http://www.w3.org/1999/xlink">
 <defs>
  <style type="text/css">
   <![CDATA[
    .fil1 {fill:none}
    .fil0 {fill:#03443D}
   ]]>
  </style>
   <clipPath id="id0">
    <path d="M0 0l9727 0 0 9727 -9727 0 0 -9727z"/>
   </clipPath>
 </defs>
 <g id="Layer_x0020_1">
  <metadata id="CorelCorpID_0Corel-Layer"/>
  <g>
  </g>
  <g style="clip-path:url(#id0)">
   <g>
    <g id="_1954757302832">
     <path class="fil0" d="M235 8991c0,-540 -77,-425 1408,-425 534,0 1067,0 1601,0 18,70 151,245 200,321 111,171 118,144 378,142 171,-1 309,22 502,20 110,-1 134,-21 250,-21 90,0 180,1 270,1 347,0 695,0 1042,0 266,0 275,44 389,-131 49,-73 190,-262 209,-332l2778 -1c277,0 230,159 230,426 0,294 -207,501 -501,501l-8254 0c-296,0 -502,-207 -502,-501zm3394 -425l2469 0c-21,77 -57,78 -77,155l-2314 0 -78 -155zm4166 -5554l463 0 0 4629 -463 0 0 -4629zm-5554 -1851l5245 0 0 6480 -5245 0 0 -6480zm-772 1851l463 0 0 4629 -463 0 0 -4629zm-308 -154l0 4937c0,93 61,154 154,154l7097 0c93,0 154,-61 154,-154l0 -4976c0,-62 -83,-115 -154,-115l-617 0 0 -309 713 0c237,0 367,130 367,367l0 5496 -8023 0 0 -5496c0,-243 124,-367 366,-367l714 0 0 309 -617 0c-93,0 -154,61 -154,154zm1080 -2623l5245 0 0 617 -5245 0 0 -617zm-309 -154l0 2006 -810 0c-298,0 -579,281 -579,578l0 5593 -192 0c-213,0 -425,212 -425,424l0 405c0,356 358,714 714,714l8447 0c356,0 714,-358 714,-714l0 -405c0,-212 -213,-424 -425,-424l-193 0 0 -5593c0,-297 -281,-578 -578,-578l-810 0 0 -2006c0,-93 -61,-155 -154,-155l-5554 0c-94,0 -155,62 -155,155z"/>
     <path class="fil0" d="M4806 3610c438,0 768,250 868,675 -122,81 -201,127 -356,185 -436,165 -889,67 -1264,-185 13,-168 153,-377 250,-463 114,-100 290,-212 502,-212zm-347 -752l0 -78c0,-581 810,-581 810,0 0,717 -810,604 -810,78zm-309 -174c0,455 -20,387 212,733 -198,46 -511,412 -559,617 -171,-114 -328,-603 -328,-849 0,-903 848,-1616 1800,-1337 752,220 1193,1083 848,1883 -40,92 -129,257 -199,303 -48,-205 -360,-571 -559,-617 42,-80 72,-93 117,-172 118,-204 142,-493 72,-712 -259,-814 -1404,-554 -1404,151zm-983 405c0,765 351,1302 957,1608 655,329 1402,158 1940,-311 260,-226 497,-726 497,-1104 0,-652 -134,-864 -471,-1303 -43,-56 -46,-53 -100,-94 -147,-114 -135,-132 -355,-242 -461,-231 -1049,-240 -1511,-7 -521,263 -957,822 -957,1453z"/>
     <path class="fil0" d="M3320 6715l3086 0 0 309 -3086 0 0 -309zm-308 -154l0 617c0,93 61,154 155,154l3394 0c93,0 154,-61 154,-154l0 -656c0,-46 -70,-116 -116,-116l-3432 0c-94,0 -155,61 -155,155z"/>
     <path class="fil0" d="M3320 5481l3086 0 0 308 -3086 0 0 -308zm-308 -155l0 618c0,93 61,154 155,154l3394 0c93,0 154,-61 154,-154l0 -618c0,-93 -61,-154 -154,-154l-3394 0c-94,0 -155,61 -155,154z"/>
     <path class="fil0" d="M3784 543c0,230 308,176 308,39 0,-89 0,-192 -154,-192 -94,0 -154,60 -154,153z"/>
     <path class="fil0" d="M2549 543c0,208 309,208 309,0 0,-206 -309,-206 -309,0z"/>
     <path class="fil0" d="M3167 543c0,208 308,208 308,0 0,-206 -308,-206 -308,0z"/>
    </g>
   </g>
  </g>
  <polygon class="fil1" points="0,0 9727,0 9727,9727 0,9727 "/>
 </g>
</svg>
