<svg xmlns="http://www.w3.org/2000/svg" xmlns:xlink="http://www.w3.org/1999/xlink" width="274.877" height="274.877" version="1.1" viewBox="0 0 9459 9459" xml:space="preserve" style="shape-rendering:geometricPrecision;text-rendering:geometricPrecision;image-rendering:optimizeQuality;fill-rule:evenodd;clip-rule:evenodd"><defs><style type="text/css">.fil1{fill:none}.fil0{fill:#03443d}</style><clipPath id="id0"><path d="M0 0l9459 0 0 9459 -9459 0 0 -9459z"/></clipPath></defs><g id="Layer_x0020_1"><metadata id="CorelCorpID_0Corel-Layer"/><g style="clip-path:url(#id0)"><g><g id="_1954760040016"><path d="M8930 8440l0 -156c-1,-196 -126,-371 -311,-437l0 -185c-1,-197 -125,-373 -311,-438l0 -2391c186,-66 310,-241 311,-438l0 -275 283 -567 449 -449c61,-60 61,-159 0,-219 -8,-9 -18,-17 -29,-23l-4512 -2754c-49,-30 -112,-30 -162,0l-4511 2754c-74,44 -97,140 -52,213 6,11 14,21 23,29l448 449 284 567 0 275c0,197 125,372 311,438l0 2391c-186,65 -311,241 -311,438l0 185c-186,66 -310,241 -311,437l0 156c-258,0 -467,209 -467,466l0 312c0,86 70,155 155,155 0,0 0,0 0,0l9024 0c86,0 156,-69 156,-155 0,0 0,0 0,0l0 -312c0,-257 -209,-466 -467,-466zm-622 -4045c0,86 -70,155 -156,155l-933 0c-86,0 -156,-69 -156,-155l0 -156 1245 0 0 156 0 0zm-4356 2829l0 -2391c185,-66 310,-241 311,-438l0 -156 933 0 0 156c1,197 125,372 311,438l0 2391c-186,65 -310,241 -311,438l0 155 -933 0 0 -155c-1,-197 -126,-373 -311,-438zm-2645 -2674c-86,0 -156,-69 -156,-155l0 -156 1245 0 0 156c0,86 -70,155 -156,155l-933 0zm778 311l0 2334 -623 0 0 -2334 623 0zm311 -28c57,-21 110,-52 155,-93 46,41 98,72 156,93l0 2391c-58,20 -110,52 -156,92 -45,-40 -98,-72 -155,-92l0 -2391zm311 2829c0,-86 70,-156 155,-156l934 0c86,0 155,70 156,156l0 155 -1245 0 0 -155zm311 -467l0 -2334 622 0 0 2334 -622 0zm778 -2645l-934 0c-85,0 -155,-69 -155,-155l0 -156 1245 0 0 156c-1,86 -70,155 -156,155zm1711 3112c0,-86 70,-156 156,-156l933 0c86,0 156,70 156,156l0 155 -1245 0 0 -155zm311 -467l0 -2334 623 0 0 2334 -623 0zm778 -2645l-933 0c-86,0 -156,-69 -156,-155l0 -156 1245 0 0 156c0,86 -70,155 -156,155zm156 283c57,-21 110,-52 156,-93 45,41 98,72 155,93l0 2391c-57,20 -110,52 -155,92 -46,-40 -99,-72 -156,-92l0 -2391zm311 2829c0,-86 70,-156 156,-156l933 0c86,0 156,70 156,156l0 155 -1245 0 0 -155 0 0zm311 -467l0 -2334 623 0 0 2334 -623 0zm-6667 -3931l-240 -240 4262 -2601 4263 2601 -241 240 -3940 -2425c-50,-31 -113,-31 -163,0l-3941 2425zm7518 42l-6991 0 3495 -2151 3496 2151zm-7133 622l-156 -311 7587 0 -156 311 -7275 0zm59 3734c0,-86 70,-156 156,-156l933 0c86,0 156,70 156,156l0 155 -1245 0 0 -155zm7935 1400l-8713 0 0 -155c0,-86 70,-156 156,-156l3267 0c86,0 156,-70 156,-156 0,-86 -70,-155 -156,-155l-2956 0 0 -156c2,-87 74,-157 162,-155l7455 0c88,-2 160,68 162,155l0 156 -2956 0c-86,0 -156,69 -156,155 0,86 70,156 156,156l3267 0c86,0 156,70 156,156l0 155z" class="fil0"/><path d="M4729 1672c-343,0 -622,279 -622,622 0,344 279,623 622,623 344,0 623,-279 623,-623 0,-343 -279,-622 -623,-622zm0 933c-171,0 -311,-139 -311,-311 0,-172 140,-311 311,-311 172,0 311,139 312,311 0,172 -140,311 -312,311z" class="fil0"/></g></g></g><polygon points="0 0 9459 0 9459 9459 0 9459" class="fil1"/></g></svg>